<svg width="1160" height="300" viewBox="0 0 1160 300" fill="none" xmlns="http://www.w3.org/2000/svg">
<g clip-path="url(#clip0_1_199)">
<rect width="1160" height="300" rx="12" fill="#0077FF"/>
<g style="mix-blend-mode:multiply">
<circle cx="580" cy="150" r="438" fill="url(#paint0_radial_1_199)"/>
</g>
<mask id="path-3-inside-1_1_199" fill="white">
<path d="M142.002 148.714C141.686 256.141 180.863 359.938 252.081 440.367C323.299 520.795 421.591 572.246 528.267 584.934C634.943 597.622 742.562 570.664 830.659 509.185C918.756 447.706 981.187 355.994 1006.08 251.49C1030.97 146.986 1016.59 36.9778 965.669 -57.6148C914.747 -152.207 830.838 -224.787 729.897 -261.552C628.956 -298.317 518.023 -296.703 418.194 -257.017C318.366 -217.331 236.603 -142.341 188.455 -46.3073L364.317 41.8638C390.839 -11.0366 435.878 -52.345 490.869 -74.2061C545.86 -96.0671 606.967 -96.9562 662.571 -76.7041C718.174 -56.4521 764.396 -16.4714 792.446 35.635C820.496 87.7415 828.418 148.34 814.706 205.906C800.994 263.472 766.604 313.992 718.076 347.857C669.548 381.723 610.266 396.573 551.503 389.584C492.74 382.594 438.596 354.253 399.365 309.949C360.135 265.645 338.554 208.468 338.728 149.291L142.002 148.714Z"/>
</mask>
<path d="M142.002 148.714C141.686 256.141 180.863 359.938 252.081 440.367C323.299 520.795 421.591 572.246 528.267 584.934C634.943 597.622 742.562 570.664 830.659 509.185C918.756 447.706 981.187 355.994 1006.08 251.49C1030.97 146.986 1016.59 36.9778 965.669 -57.6148C914.747 -152.207 830.838 -224.787 729.897 -261.552C628.956 -298.317 518.023 -296.703 418.194 -257.017C318.366 -217.331 236.603 -142.341 188.455 -46.3073L364.317 41.8638C390.839 -11.0366 435.878 -52.345 490.869 -74.2061C545.86 -96.0671 606.967 -96.9562 662.571 -76.7041C718.174 -56.4521 764.396 -16.4714 792.446 35.635C820.496 87.7415 828.418 148.34 814.706 205.906C800.994 263.472 766.604 313.992 718.076 347.857C669.548 381.723 610.266 396.573 551.503 389.584C492.74 382.594 438.596 354.253 399.365 309.949C360.135 265.645 338.554 208.468 338.728 149.291L142.002 148.714Z" stroke="#19E9FC" stroke-width="58" mask="url(#path-3-inside-1_1_199)"/>
<path opacity="0.54" d="M411.133 118.924H413.854V112.594H394.754V118.924H397.488V115H411.133V118.924ZM398.596 95.0938L397.994 106.059C397.894 107.927 397.712 109.399 397.447 110.475C397.183 111.55 396.827 112.475 396.381 113.25H399.361C399.689 112.548 399.967 111.669 400.195 110.611C400.432 109.545 400.601 108.05 400.701 106.127L401.166 97.5H408.467V115H411.461V95.0938H398.596ZM415.166 108.314C415.166 110.42 415.777 112.124 416.998 113.428C418.229 114.722 419.86 115.369 421.893 115.369C423.916 115.369 425.538 114.722 426.76 113.428C427.99 112.124 428.605 110.42 428.605 108.314V107.877C428.605 105.771 427.99 104.072 426.76 102.777C425.538 101.474 423.916 100.822 421.893 100.822C419.86 100.822 418.229 101.474 416.998 102.777C415.777 104.072 415.166 105.771 415.166 107.877V108.314ZM418.119 107.809C418.119 106.423 418.438 105.293 419.076 104.418C419.723 103.543 420.658 103.105 421.879 103.105C423.118 103.105 424.057 103.543 424.695 104.418C425.333 105.293 425.652 106.423 425.652 107.809V108.369C425.652 109.755 425.333 110.889 424.695 111.773C424.057 112.658 423.118 113.1 421.879 113.1C420.648 113.1 419.714 112.658 419.076 111.773C418.438 110.889 418.119 109.755 418.119 108.369V107.809ZM433.609 108.082C433.609 106.742 433.924 105.653 434.553 104.814C435.191 103.967 436.134 103.543 437.383 103.543C438.622 103.543 439.557 103.967 440.186 104.814C440.824 105.653 441.143 106.742 441.143 108.082V108.506C441.143 109.873 440.824 110.98 440.186 111.828C439.557 112.676 438.618 113.1 437.369 113.1C436.13 113.1 435.191 112.676 434.553 111.828C433.924 110.98 433.609 109.873 433.609 108.506V108.082ZM438.094 101.26C436.9 101.26 435.87 101.524 435.004 102.053C434.147 102.581 433.5 103.301 433.062 104.213H432.912C433.058 102.39 433.523 100.973 434.307 99.9609C435.1 98.9492 436.581 98.2975 438.75 98.0059C440.6 97.7598 441.858 97.3496 442.523 96.7754C443.198 96.2012 443.576 95.3809 443.658 94.3145H441.143C441.097 94.5605 440.947 94.7793 440.691 94.9707C440.436 95.153 439.566 95.3535 438.08 95.5723C435.273 95.9915 433.331 97.0898 432.256 98.8672C431.189 100.635 430.656 103.119 430.656 106.318V107.248C430.656 110.146 431.253 112.225 432.447 113.482C433.65 114.74 435.296 115.369 437.383 115.369C439.397 115.369 441.02 114.74 442.25 113.482C443.48 112.215 444.096 110.557 444.096 108.506V108.068C444.096 106.072 443.553 104.441 442.469 103.174C441.393 101.898 439.935 101.26 438.094 101.26ZM446.857 120.783H449.742V113.414C450.143 113.979 450.69 114.43 451.383 114.768C452.085 115.105 452.91 115.273 453.857 115.273C455.598 115.273 456.988 114.631 458.027 113.346C459.076 112.051 459.6 110.365 459.6 108.287V107.85C459.6 105.781 459.076 104.108 458.027 102.832C456.988 101.556 455.589 100.918 453.83 100.918C452.882 100.918 452.039 101.118 451.301 101.52C450.562 101.911 450.02 102.395 449.674 102.969H449.619L449.551 101.205H446.857V120.783ZM449.742 110.762V105.416C449.997 104.833 450.412 104.318 450.986 103.871C451.57 103.415 452.276 103.188 453.105 103.188C454.318 103.188 455.211 103.616 455.785 104.473C456.359 105.329 456.646 106.437 456.646 107.795V108.355C456.646 109.714 456.359 110.83 455.785 111.705C455.211 112.571 454.318 113.004 453.105 113.004C452.276 113.004 451.57 112.781 450.986 112.334C450.412 111.878 449.997 111.354 449.742 110.762ZM461.541 108.314C461.541 110.42 462.152 112.124 463.373 113.428C464.604 114.722 466.235 115.369 468.268 115.369C470.291 115.369 471.913 114.722 473.135 113.428C474.365 112.124 474.98 110.42 474.98 108.314V107.877C474.98 105.771 474.365 104.072 473.135 102.777C471.913 101.474 470.291 100.822 468.268 100.822C466.235 100.822 464.604 101.474 463.373 102.777C462.152 104.072 461.541 105.771 461.541 107.877V108.314ZM464.494 107.809C464.494 106.423 464.813 105.293 465.451 104.418C466.098 103.543 467.033 103.105 468.254 103.105C469.493 103.105 470.432 103.543 471.07 104.418C471.708 105.293 472.027 106.423 472.027 107.809V108.369C472.027 109.755 471.708 110.889 471.07 111.773C470.432 112.658 469.493 113.1 468.254 113.1C467.023 113.1 466.089 112.658 465.451 111.773C464.813 110.889 464.494 109.755 464.494 108.369V107.809ZM484.154 101.205V115H487.039V103.434H492.658V115H495.557V101.205H484.154ZM498.318 108.314C498.318 110.42 498.929 112.124 500.15 113.428C501.381 114.722 503.012 115.369 505.045 115.369C507.068 115.369 508.691 114.722 509.912 113.428C511.143 112.124 511.758 110.42 511.758 108.314V107.877C511.758 105.771 511.143 104.072 509.912 102.777C508.691 101.474 507.068 100.822 505.045 100.822C503.012 100.822 501.381 101.474 500.15 102.777C498.929 104.072 498.318 105.771 498.318 107.877V108.314ZM501.271 107.809C501.271 106.423 501.59 105.293 502.229 104.418C502.876 103.543 503.81 103.105 505.031 103.105C506.271 103.105 507.21 103.543 507.848 104.418C508.486 105.293 508.805 106.423 508.805 107.809V108.369C508.805 109.755 508.486 110.889 507.848 111.773C507.21 112.658 506.271 113.1 505.031 113.1C503.801 113.1 502.867 112.658 502.229 111.773C501.59 110.889 501.271 109.755 501.271 108.369V107.809ZM523.885 115V101.205H521.041V115H523.885ZM529.258 115H532.58L526.906 106.975L524.938 108.779L529.258 115ZM522.463 106.852V109.094H526.578L531.979 101.205H528.82L525.047 106.852H522.463ZM515.668 115L519.975 108.779L518.115 106.975L512.441 115H515.668ZM522.463 106.852H519.893L516.105 101.205H512.906L518.293 109.094H522.463V106.852ZM533.332 110.98C533.332 112.375 533.774 113.437 534.658 114.166C535.542 114.886 536.663 115.246 538.021 115.246C539.179 115.246 540.132 115.027 540.879 114.59C541.635 114.143 542.169 113.637 542.479 113.072C542.506 113.428 542.565 113.783 542.656 114.139C542.757 114.485 542.87 114.772 542.998 115H545.801V114.781C545.637 114.398 545.509 113.947 545.418 113.428C545.327 112.908 545.281 112.357 545.281 111.773V105.525C545.281 103.921 544.803 102.736 543.846 101.971C542.898 101.205 541.558 100.822 539.826 100.822C538.085 100.822 536.695 101.223 535.656 102.025C534.626 102.818 534.111 103.785 534.111 104.924V105.156H536.941V104.979C536.941 104.395 537.16 103.912 537.598 103.529C538.044 103.137 538.751 102.941 539.717 102.941C540.692 102.941 541.38 103.174 541.781 103.639C542.182 104.094 542.383 104.714 542.383 105.498V106.496H539.293C537.543 106.496 536.112 106.888 535 107.672C533.888 108.456 533.332 109.559 533.332 110.98ZM536.217 110.789C536.217 110.033 536.508 109.445 537.092 109.025C537.684 108.597 538.573 108.383 539.758 108.383H542.383V110.133C542.383 110.889 542.023 111.582 541.303 112.211C540.583 112.831 539.762 113.141 538.842 113.141C537.958 113.141 537.297 112.936 536.859 112.525C536.431 112.106 536.217 111.527 536.217 110.789ZM552.76 103.434H557.381V115H560.266V101.205H550.244L549.902 108.479C549.829 110.101 549.679 111.231 549.451 111.869C549.232 112.498 548.804 112.812 548.166 112.812C547.984 112.812 547.82 112.799 547.674 112.771C547.537 112.744 547.396 112.708 547.25 112.662V115.041C547.423 115.114 547.633 115.169 547.879 115.205C548.134 115.251 548.412 115.273 548.713 115.273C550.08 115.273 551.028 114.772 551.557 113.77C552.085 112.767 552.4 111.113 552.5 108.807L552.76 103.434ZM563.041 108.314C563.041 110.42 563.652 112.124 564.873 113.428C566.104 114.722 567.735 115.369 569.768 115.369C571.791 115.369 573.413 114.722 574.635 113.428C575.865 112.124 576.48 110.42 576.48 108.314V107.877C576.48 105.771 575.865 104.072 574.635 102.777C573.413 101.474 571.791 100.822 569.768 100.822C567.735 100.822 566.104 101.474 564.873 102.777C563.652 104.072 563.041 105.771 563.041 107.877V108.314ZM565.994 107.809C565.994 106.423 566.313 105.293 566.951 104.418C567.598 103.543 568.533 103.105 569.754 103.105C570.993 103.105 571.932 103.543 572.57 104.418C573.208 105.293 573.527 106.423 573.527 107.809V108.369C573.527 109.755 573.208 110.889 572.57 111.773C571.932 112.658 570.993 113.1 569.754 113.1C568.523 113.1 567.589 112.658 566.951 111.773C566.313 110.889 565.994 109.755 565.994 108.369V107.809ZM579.256 115H586.051C587.618 115 588.835 114.658 589.701 113.975C590.576 113.282 591.014 112.325 591.014 111.104C591.014 110.201 590.736 109.477 590.18 108.93C589.633 108.383 588.872 108.036 587.896 107.891V107.85C588.699 107.686 589.337 107.339 589.811 106.811C590.285 106.273 590.521 105.594 590.521 104.773C590.521 103.579 590.098 102.686 589.25 102.094C588.411 101.501 587.208 101.205 585.641 101.205H579.256V115ZM582.113 106.975V103.201H585.312C586.124 103.201 586.712 103.356 587.076 103.666C587.441 103.976 587.623 104.423 587.623 105.006C587.623 105.635 587.441 106.122 587.076 106.469C586.712 106.806 586.124 106.975 585.312 106.975H582.113ZM582.113 112.99V108.957H585.668C586.516 108.957 587.135 109.139 587.527 109.504C587.928 109.859 588.129 110.347 588.129 110.967C588.129 111.596 587.924 112.092 587.514 112.457C587.113 112.812 586.497 112.99 585.668 112.99H582.113ZM593.324 110.98C593.324 112.375 593.766 113.437 594.65 114.166C595.535 114.886 596.656 115.246 598.014 115.246C599.171 115.246 600.124 115.027 600.871 114.59C601.628 114.143 602.161 113.637 602.471 113.072C602.498 113.428 602.557 113.783 602.648 114.139C602.749 114.485 602.863 114.772 602.99 115H605.793V114.781C605.629 114.398 605.501 113.947 605.41 113.428C605.319 112.908 605.273 112.357 605.273 111.773V105.525C605.273 103.921 604.795 102.736 603.838 101.971C602.89 101.205 601.55 100.822 599.818 100.822C598.077 100.822 596.688 101.223 595.648 102.025C594.618 102.818 594.104 103.785 594.104 104.924V105.156H596.934V104.979C596.934 104.395 597.152 103.912 597.59 103.529C598.036 103.137 598.743 102.941 599.709 102.941C600.684 102.941 601.372 103.174 601.773 103.639C602.174 104.094 602.375 104.714 602.375 105.498V106.496H599.285C597.535 106.496 596.104 106.888 594.992 107.672C593.88 108.456 593.324 109.559 593.324 110.98ZM596.209 110.789C596.209 110.033 596.501 109.445 597.084 109.025C597.676 108.597 598.565 108.383 599.75 108.383H602.375V110.133C602.375 110.889 602.015 111.582 601.295 112.211C600.575 112.831 599.755 113.141 598.834 113.141C597.95 113.141 597.289 112.936 596.852 112.525C596.423 112.106 596.209 111.527 596.209 110.789ZM607.461 103.434H611.795V115H614.68V103.434H619V101.205H607.461V103.434ZM624.086 101.205H621.201V115H627.299C629.003 115 630.311 114.59 631.223 113.77C632.134 112.949 632.59 111.828 632.59 110.406C632.59 108.993 632.134 107.877 631.223 107.057C630.311 106.236 629.003 105.826 627.299 105.826H624.086V101.205ZM626.998 107.945C627.982 107.945 628.675 108.173 629.076 108.629C629.486 109.076 629.691 109.663 629.691 110.393C629.691 111.131 629.486 111.732 629.076 112.197C628.675 112.653 627.982 112.881 626.998 112.881H624.086V107.945H626.998ZM641.545 115H648.34C649.908 115 651.124 114.658 651.99 113.975C652.865 113.282 653.303 112.325 653.303 111.104C653.303 110.201 653.025 109.477 652.469 108.93C651.922 108.383 651.161 108.036 650.186 107.891V107.85C650.988 107.686 651.626 107.339 652.1 106.811C652.574 106.273 652.811 105.594 652.811 104.773C652.811 103.579 652.387 102.686 651.539 102.094C650.701 101.501 649.497 101.205 647.93 101.205H641.545V115ZM644.402 106.975V103.201H647.602C648.413 103.201 649.001 103.356 649.365 103.666C649.73 103.976 649.912 104.423 649.912 105.006C649.912 105.635 649.73 106.122 649.365 106.469C649.001 106.806 648.413 106.975 647.602 106.975H644.402ZM644.402 112.99V108.957H647.957C648.805 108.957 649.424 109.139 649.816 109.504C650.217 109.859 650.418 110.347 650.418 110.967C650.418 111.596 650.213 112.092 649.803 112.457C649.402 112.812 648.786 112.99 647.957 112.99H644.402ZM662.764 115H665.334V105.963C665.334 105.516 665.325 105.156 665.307 104.883C665.298 104.6 665.284 104.336 665.266 104.09H665.389C665.443 104.345 665.512 104.618 665.594 104.91C665.685 105.202 665.812 105.557 665.977 105.977L669.654 115H671.992L675.656 106.004C675.848 105.53 675.984 105.156 676.066 104.883C676.148 104.6 676.221 104.336 676.285 104.09H676.381C676.363 104.336 676.349 104.6 676.34 104.883C676.331 105.165 676.326 105.548 676.326 106.031V115H679.129V101.205H675.205L671.596 110.078C671.413 110.534 671.286 110.876 671.213 111.104C671.14 111.331 671.076 111.568 671.021 111.814H670.912C670.867 111.568 670.807 111.331 670.734 111.104C670.661 110.867 670.529 110.52 670.338 110.064L666.729 101.205H662.764V115ZM681.945 110.98C681.945 112.375 682.387 113.437 683.271 114.166C684.156 114.886 685.277 115.246 686.635 115.246C687.792 115.246 688.745 115.027 689.492 114.59C690.249 114.143 690.782 113.637 691.092 113.072C691.119 113.428 691.178 113.783 691.27 114.139C691.37 114.485 691.484 114.772 691.611 115H694.414V114.781C694.25 114.398 694.122 113.947 694.031 113.428C693.94 112.908 693.895 112.357 693.895 111.773V105.525C693.895 103.921 693.416 102.736 692.459 101.971C691.511 101.205 690.171 100.822 688.439 100.822C686.699 100.822 685.309 101.223 684.27 102.025C683.24 102.818 682.725 103.785 682.725 104.924V105.156H685.555V104.979C685.555 104.395 685.773 103.912 686.211 103.529C686.658 103.137 687.364 102.941 688.33 102.941C689.305 102.941 689.993 103.174 690.395 103.639C690.796 104.094 690.996 104.714 690.996 105.498V106.496H687.906C686.156 106.496 684.725 106.888 683.613 107.672C682.501 108.456 681.945 109.559 681.945 110.98ZM684.83 110.789C684.83 110.033 685.122 109.445 685.705 109.025C686.298 108.597 687.186 108.383 688.371 108.383H690.996V110.133C690.996 110.889 690.636 111.582 689.916 112.211C689.196 112.831 688.376 113.141 687.455 113.141C686.571 113.141 685.91 112.936 685.473 112.525C685.044 112.106 684.83 111.527 684.83 110.789ZM697.463 101.205V115H700.348V103.434H706.623V101.205H697.463ZM708.086 110.98C708.086 112.375 708.528 113.437 709.412 114.166C710.296 114.886 711.417 115.246 712.775 115.246C713.933 115.246 714.885 115.027 715.633 114.59C716.389 114.143 716.923 113.637 717.232 113.072C717.26 113.428 717.319 113.783 717.41 114.139C717.51 114.485 717.624 114.772 717.752 115H720.555V114.781C720.391 114.398 720.263 113.947 720.172 113.428C720.081 112.908 720.035 112.357 720.035 111.773V105.525C720.035 103.921 719.557 102.736 718.6 101.971C717.652 101.205 716.312 100.822 714.58 100.822C712.839 100.822 711.449 101.223 710.41 102.025C709.38 102.818 708.865 103.785 708.865 104.924V105.156H711.695V104.979C711.695 104.395 711.914 103.912 712.352 103.529C712.798 103.137 713.505 102.941 714.471 102.941C715.446 102.941 716.134 103.174 716.535 103.639C716.936 104.094 717.137 104.714 717.137 105.498V106.496H714.047C712.297 106.496 710.866 106.888 709.754 107.672C708.642 108.456 708.086 109.559 708.086 110.98ZM710.971 110.789C710.971 110.033 711.262 109.445 711.846 109.025C712.438 108.597 713.327 108.383 714.512 108.383H717.137V110.133C717.137 110.889 716.777 111.582 716.057 112.211C715.337 112.831 714.516 113.141 713.596 113.141C712.712 113.141 712.051 112.936 711.613 112.525C711.185 112.106 710.971 111.527 710.971 110.789ZM728.717 115.369C730.485 115.369 731.93 115 733.051 114.262C734.172 113.514 734.732 112.448 734.732 111.062C734.732 110.169 734.445 109.454 733.871 108.916C733.306 108.378 732.504 108.036 731.465 107.891V107.85C732.331 107.676 733.014 107.312 733.516 106.756C734.017 106.191 734.268 105.53 734.268 104.773C734.268 103.534 733.803 102.568 732.873 101.875C731.943 101.173 730.604 100.822 728.854 100.822C726.985 100.822 725.531 101.255 724.492 102.121C723.462 102.978 722.943 104.149 722.934 105.635L722.947 105.744H725.709V105.635C725.709 104.824 725.973 104.176 726.502 103.693C727.031 103.21 727.787 102.969 728.771 102.969C729.592 102.969 730.225 103.146 730.672 103.502C731.128 103.848 731.355 104.354 731.355 105.02C731.355 105.612 731.169 106.081 730.795 106.428C730.421 106.774 729.806 106.947 728.949 106.947H727.131V109.012H729.291C730.175 109.012 730.818 109.185 731.219 109.531C731.629 109.878 731.834 110.352 731.834 110.953C731.834 111.673 731.556 112.234 731 112.635C730.444 113.027 729.678 113.223 728.703 113.223C727.555 113.223 726.721 112.963 726.201 112.443C725.682 111.924 725.422 111.286 725.422 110.529V110.42H722.66V110.529C722.66 111.887 723.157 113.036 724.15 113.975C725.153 114.913 726.675 115.378 728.717 115.369ZM737.686 115H740.639L745.629 106.619C745.829 106.282 745.993 105.99 746.121 105.744C746.258 105.498 746.385 105.243 746.504 104.979H746.654C746.636 105.279 746.622 105.589 746.613 105.908C746.604 106.218 746.6 106.523 746.6 106.824V115H749.471V101.205H746.504L741.514 109.559C741.322 109.905 741.158 110.197 741.021 110.434C740.885 110.671 740.748 110.921 740.611 111.186H740.488C740.516 110.885 740.529 110.579 740.529 110.27C740.538 109.96 740.543 109.654 740.543 109.354V101.205H737.686V115ZM753.053 101.205V115H755.938V109.08H761.707V115H764.605V101.205H761.707V106.852H755.938V101.205H753.053Z" fill="white"/>
<g filter="url(#filter0_d_1_199)">
<path d="M370.5 188H377.844V159.25C377.844 158.542 377.833 157.833 377.812 157.125C377.812 156.396 377.792 155.688 377.75 155H377.938C378.125 155.646 378.354 156.312 378.625 157C378.896 157.667 379.188 158.323 379.5 158.969L394.594 188H403.156V142.5H395.812V171.094C395.812 171.802 395.812 172.531 395.812 173.281C395.812 174.031 395.833 174.75 395.875 175.438H395.688C395.5 174.792 395.271 174.125 395 173.438C394.729 172.729 394.438 172.042 394.125 171.375L379.25 142.5H370.5V188ZM408.5 179.469C408.5 182.406 409.417 184.646 411.25 186.188C413.083 187.708 415.531 188.469 418.594 188.469C421.219 188.469 423.385 187.99 425.094 187.031C426.802 186.073 428 184.99 428.688 183.781C428.771 184.573 428.906 185.344 429.094 186.094C429.302 186.844 429.562 187.479 429.875 188H437.938V187.531C437.521 186.698 437.208 185.719 437 184.594C436.812 183.448 436.719 182.24 436.719 180.969V167.875C436.719 164.271 435.625 161.667 433.438 160.062C431.271 158.438 428.094 157.625 423.906 157.625C419.719 157.625 416.406 158.469 413.969 160.156C411.531 161.844 410.312 164 410.312 166.625V167.406L418.062 167.438V166.812C418.062 165.562 418.51 164.583 419.406 163.875C420.302 163.146 421.646 162.781 423.438 162.781C425.229 162.781 426.51 163.198 427.281 164.031C428.073 164.865 428.469 166.062 428.469 167.625V169.781H421.375C417.521 169.781 414.406 170.646 412.031 172.375C409.677 174.104 408.5 176.469 408.5 179.469ZM416.656 178.906C416.656 177.385 417.219 176.25 418.344 175.5C419.49 174.75 421.229 174.375 423.562 174.375H428.469V177.438C428.469 178.979 427.771 180.354 426.375 181.562C425 182.771 423.427 183.375 421.656 183.375C420.031 183.375 418.792 183 417.938 182.25C417.083 181.479 416.656 180.365 416.656 178.906ZM443.219 188H451.438V168.344C452.062 167.052 452.865 166.01 453.844 165.219C454.823 164.406 455.969 164 457.281 164C458.823 164 460.01 164.417 460.844 165.25C461.677 166.062 462.094 167.479 462.094 169.5V188H470.344V168.312C470.948 167.042 471.74 166.01 472.719 165.219C473.719 164.406 474.885 164 476.219 164C477.74 164 478.906 164.406 479.719 165.219C480.552 166.031 480.969 167.458 480.969 169.5V188H489.25V168.656C489.25 164.698 488.375 161.875 486.625 160.188C484.875 158.5 482.552 157.656 479.656 157.656C477.448 157.656 475.448 158.115 473.656 159.031C471.885 159.948 470.458 161.26 469.375 162.969H469.281C468.677 161.219 467.615 159.906 466.094 159.031C464.594 158.135 462.792 157.688 460.688 157.688C458.625 157.688 456.802 158.125 455.219 159C453.656 159.854 452.365 161.042 451.344 162.562H451.25L451.188 158.375H443.219V188ZM493.844 173.625C493.844 178.25 495.188 181.927 497.875 184.656C500.583 187.385 504.396 188.75 509.312 188.75C512.875 188.75 515.74 188.094 517.906 186.781C520.073 185.469 521.625 183.771 522.562 181.688L516.031 179.094C515.385 180.177 514.5 181.062 513.375 181.75C512.25 182.438 510.865 182.781 509.219 182.781C506.885 182.781 505.104 181.969 503.875 180.344C502.667 178.719 502.062 176.51 502.062 173.719V171.938C502.062 169.5 502.625 167.479 503.75 165.875C504.896 164.271 506.573 163.469 508.781 163.469C510.865 163.469 512.385 164.083 513.344 165.312C514.323 166.542 514.812 168.01 514.812 169.719V170.031H498.438V174.719H522.812V172.219C522.812 167.635 521.604 164.042 519.188 161.438C516.771 158.833 513.323 157.531 508.844 157.531C504.302 157.531 500.667 158.906 497.938 161.656C495.208 164.406 493.844 168.062 493.844 172.625V173.625ZM526.75 166.531C526.75 174.198 528.448 179.812 531.844 183.375C535.24 186.917 539.615 188.688 544.969 188.688C550.344 188.688 554.729 186.917 558.125 183.375C561.542 179.812 563.25 174.198 563.25 166.531V163.969C563.25 156.302 561.542 150.698 558.125 147.156C554.729 143.594 550.344 141.812 544.969 141.812C539.615 141.812 535.24 143.594 531.844 147.156C528.448 150.698 526.75 156.302 526.75 163.969V166.531ZM535.562 168.312V162.219C535.562 157.198 536.406 153.583 538.094 151.375C539.781 149.167 542.073 148.062 544.969 148.062C547.885 148.062 550.188 149.167 551.875 151.375C553.583 153.583 554.438 157.198 554.438 162.219V168.312C554.438 173.354 553.583 176.979 551.875 179.188C550.188 181.396 547.885 182.5 544.969 182.5C542.073 182.5 539.781 181.396 538.094 179.188C536.406 176.979 535.562 173.354 535.562 168.312ZM570.531 188H578.688V160.469L578.625 160.062V154.188C578.625 151.854 579.073 150.177 579.969 149.156C580.865 148.115 582.135 147.594 583.781 147.594C584.344 147.594 584.865 147.635 585.344 147.719C585.823 147.781 586.25 147.854 586.625 147.938L587.031 141.781C586.323 141.615 585.615 141.49 584.906 141.406C584.219 141.302 583.49 141.25 582.719 141.25C578.969 141.25 576 142.271 573.812 144.312C571.625 146.354 570.531 149.365 570.531 153.344V188ZM565.75 164.469H584.688V158.375H573.312H572.562H565.75V164.469ZM588.125 188H605.219C609.552 188 612.969 186.885 615.469 184.656C617.99 182.427 619.25 179.312 619.25 175.312C619.25 172.167 618.552 169.667 617.156 167.812C615.76 165.938 613.979 164.719 611.812 164.156V164.031C613.562 163.427 614.99 162.271 616.094 160.562C617.219 158.854 617.781 156.698 617.781 154.094C617.781 150.281 616.646 147.396 614.375 145.438C612.125 143.479 608.802 142.5 604.406 142.5H588.125V188ZM596.438 182.031V167.188H603.719C606.094 167.188 607.854 167.865 609 169.219C610.146 170.573 610.719 172.396 610.719 174.688C610.719 176.938 610.146 178.729 609 180.062C607.854 181.375 606.094 182.031 603.719 182.031H596.438ZM596.438 162.094V148.656H602.938C605.292 148.656 606.99 149.219 608.031 150.344C609.073 151.469 609.594 153.104 609.594 155.25C609.594 157.417 609.073 159.104 608.031 160.312C606.99 161.5 605.292 162.094 602.938 162.094H596.438ZM624.25 188H632.531V141.906H624.25V188ZM637.469 173.625C637.469 178.188 638.875 181.854 641.688 184.625C644.521 187.375 648.281 188.75 652.969 188.75C657.656 188.75 661.406 187.375 664.219 184.625C667.052 181.854 668.469 178.188 668.469 173.625V172.625C668.469 168.104 667.052 164.458 664.219 161.688C661.406 158.917 657.656 157.531 652.969 157.531C648.302 157.531 644.552 158.917 641.719 161.688C638.885 164.458 637.469 168.104 637.469 172.625V173.625ZM645.812 172.375C645.812 169.75 646.417 167.635 647.625 166.031C648.854 164.427 650.625 163.625 652.938 163.625C655.271 163.625 657.042 164.427 658.25 166.031C659.479 167.635 660.094 169.75 660.094 172.375V173.844C660.094 176.49 659.49 178.635 658.281 180.281C657.073 181.906 655.292 182.719 652.938 182.719C650.625 182.719 648.854 181.906 647.625 180.281C646.417 178.635 645.812 176.5 645.812 173.875V172.375ZM673.156 198.188C674.656 199.167 676.531 200 678.781 200.688C681.031 201.375 683.521 201.719 686.25 201.719C690.854 201.719 694.521 200.365 697.25 197.656C699.979 194.948 701.344 191.021 701.344 185.875V158.375H693.312L693.25 162.219H693.156C692.344 160.927 691.104 159.865 689.438 159.031C687.792 158.177 685.958 157.75 683.938 157.75C680.083 157.75 677.083 159.146 674.938 161.938C672.792 164.729 671.719 168.302 671.719 172.656V173.656C671.719 178.01 672.812 181.562 675 184.312C677.208 187.062 680.167 188.438 683.875 188.438C686.208 188.438 688.115 188.042 689.594 187.25C691.073 186.438 692.281 185.385 693.219 184.094V186.938C693.219 190.125 692.406 192.396 690.781 193.75C689.177 195.104 687.281 195.781 685.094 195.781C683.094 195.781 681.188 195.427 679.375 194.719C677.562 194.031 676.219 193.312 675.344 192.562L673.156 198.188ZM679.969 173.656V172.688C679.969 170.062 680.521 167.906 681.625 166.219C682.729 164.531 684.448 163.688 686.781 163.688C688.344 163.688 689.667 164.125 690.75 165C691.854 165.854 692.646 166.865 693.125 168.031V178.219C692.667 179.365 691.885 180.375 690.781 181.25C689.677 182.125 688.344 182.562 686.781 182.562C684.448 182.562 682.729 181.74 681.625 180.094C680.521 178.448 679.969 176.302 679.969 173.656ZM707.594 198.188C709.094 199.167 710.969 200 713.219 200.688C715.469 201.375 717.958 201.719 720.688 201.719C725.292 201.719 728.958 200.365 731.688 197.656C734.417 194.948 735.781 191.021 735.781 185.875V158.375H727.75L727.688 162.219H727.594C726.781 160.927 725.542 159.865 723.875 159.031C722.229 158.177 720.396 157.75 718.375 157.75C714.521 157.75 711.521 159.146 709.375 161.938C707.229 164.729 706.156 168.302 706.156 172.656V173.656C706.156 178.01 707.25 181.562 709.438 184.312C711.646 187.062 714.604 188.438 718.312 188.438C720.646 188.438 722.552 188.042 724.031 187.25C725.51 186.438 726.719 185.385 727.656 184.094V186.938C727.656 190.125 726.844 192.396 725.219 193.75C723.615 195.104 721.719 195.781 719.531 195.781C717.531 195.781 715.625 195.427 713.812 194.719C712 194.031 710.656 193.312 709.781 192.562L707.594 198.188ZM714.406 173.656V172.688C714.406 170.062 714.958 167.906 716.062 166.219C717.167 164.531 718.885 163.688 721.219 163.688C722.781 163.688 724.104 164.125 725.188 165C726.292 165.854 727.083 166.865 727.562 168.031V178.219C727.104 179.365 726.323 180.375 725.219 181.25C724.115 182.125 722.781 182.562 721.219 182.562C718.885 182.562 717.167 181.74 716.062 180.094C714.958 178.448 714.406 176.302 714.406 173.656ZM740.594 173.625C740.594 178.25 741.938 181.927 744.625 184.656C747.333 187.385 751.146 188.75 756.062 188.75C759.625 188.75 762.49 188.094 764.656 186.781C766.823 185.469 768.375 183.771 769.312 181.688L762.781 179.094C762.135 180.177 761.25 181.062 760.125 181.75C759 182.438 757.615 182.781 755.969 182.781C753.635 182.781 751.854 181.969 750.625 180.344C749.417 178.719 748.812 176.51 748.812 173.719V171.938C748.812 169.5 749.375 167.479 750.5 165.875C751.646 164.271 753.323 163.469 755.531 163.469C757.615 163.469 759.135 164.083 760.094 165.312C761.073 166.542 761.562 168.01 761.562 169.719V170.031H745.188V174.719H769.562V172.219C769.562 167.635 768.354 164.042 765.938 161.438C763.521 158.833 760.073 157.531 755.594 157.531C751.052 157.531 747.417 158.906 744.688 161.656C741.958 164.406 740.594 168.062 740.594 172.625V173.625ZM774.281 188H782.656V169.094C783.406 167.635 784.427 166.458 785.719 165.562C787.031 164.646 788.406 164.188 789.844 164.188C790.469 164.188 791.031 164.219 791.531 164.281C792.052 164.344 792.5 164.438 792.875 164.562V158.094C792.667 158.01 792.302 157.938 791.781 157.875C791.26 157.792 790.74 157.75 790.219 157.75C788.49 157.75 786.979 158.188 785.688 159.062C784.396 159.917 783.354 161 782.562 162.312H782.469L782.438 158.375H774.281V188Z" fill="white"/>
</g>
</g>
<defs>
<filter id="filter0_d_1_199" x="359.5" y="134.25" width="444.375" height="82.4688" filterUnits="userSpaceOnUse" color-interpolation-filters="sRGB">
<feFlood flood-opacity="0" result="BackgroundImageFix"/>
<feColorMatrix in="SourceAlpha" type="matrix" values="0 0 0 0 0 0 0 0 0 0 0 0 0 0 0 0 0 0 127 0" result="hardAlpha"/>
<feOffset dy="4"/>
<feGaussianBlur stdDeviation="5.5"/>
<feComposite in2="hardAlpha" operator="out"/>
<feColorMatrix type="matrix" values="0 0 0 0 0 0 0 0 0 0 0 0 0 0 0 0 0 0 0.25 0"/>
<feBlend mode="normal" in2="BackgroundImageFix" result="effect1_dropShadow_1_199"/>
<feBlend mode="normal" in="SourceGraphic" in2="effect1_dropShadow_1_199" result="shape"/>
</filter>
<radialGradient id="paint0_radial_1_199" cx="0" cy="0" r="1" gradientUnits="userSpaceOnUse" gradientTransform="translate(580 150) rotate(90) scale(438)">
<stop offset="0.203125" stop-color="white" stop-opacity="0"/>
<stop offset="0.421775" stop-color="#0084FF"/>
<stop offset="0.421875" stop-color="white" stop-opacity="0"/>
<stop offset="0.713442" stop-color="#0084FF"/>
<stop offset="0.713542" stop-color="white" stop-opacity="0"/>
<stop offset="0.9999" stop-color="#0084FF"/>
<stop offset="1" stop-color="white" stop-opacity="0.182292"/>
</radialGradient>
<clipPath id="clip0_1_199">
<rect width="1160" height="300" rx="12" fill="white"/>
</clipPath>
</defs>
</svg>
