<svg width="12" height="16" viewBox="0 0 12 16" fill="none" xmlns="http://www.w3.org/2000/svg">
<path fill-rule="evenodd" clip-rule="evenodd" d="M2.02668 15.8937C1.76219 15.7232 1.65292 15.391 1.76457 15.0968L3.66632 10.0856L0.722162 10.3311C0.447761 10.354 0.187527 10.2058 0.0671701 9.95812C-0.0531874 9.71046 -0.00889969 9.41429 0.178638 9.21268L8.55017 0.212635C8.76167 -0.0147495 9.10217 -0.0659809 9.37122 0.0890999C9.64027 0.244181 9.76661 0.564494 9.67587 0.861486L8.12925 5.9233L11.2797 5.66893C11.5578 5.64647 11.8206 5.79965 11.938 6.05279C12.0555 6.30593 12.0029 6.60546 11.8061 6.80339L2.86068 15.8033C2.63885 16.0265 2.29117 16.0642 2.02668 15.8937ZM9.58856 7.14313L7.25866 7.33125C7.03856 7.34902 6.82395 7.25666 6.68555 7.08461C6.54715 6.91255 6.50292 6.68313 6.56744 6.47195L7.55485 3.24034L2.32836 8.85922L4.60945 8.66904C4.83761 8.65002 5.05956 8.7494 5.19732 8.93226C5.33507 9.11512 5.36936 9.35588 5.28813 9.56993L4.12185 12.6431L9.58856 7.14313Z" fill="white"/>
<path d="M7.25866 7.33125L9.58856 7.14313L4.12185 12.6431L5.28813 9.56993C5.36936 9.35588 5.33507 9.11512 5.19732 8.93226C5.05956 8.7494 4.83761 8.65002 4.60945 8.66904L2.32836 8.85922L7.55485 3.24034L6.56744 6.47195C6.50292 6.68313 6.54715 6.91255 6.68555 7.08461C6.82395 7.25666 7.03856 7.34902 7.25866 7.33125Z" fill="white"/>
</svg>
