<svg width="36" height="36" viewBox="0 0 36 36" fill="none" xmlns="http://www.w3.org/2000/svg">
<rect width="36" height="36" rx="18" fill="white"/>
<path fill-rule="evenodd" clip-rule="evenodd" d="M19.0616 10.9912C19.0616 10.4438 18.6179 10 18.0704 10C17.523 10 17.0792 10.4438 17.0792 10.9912L17.0792 16.9384L10.9912 16.9384C10.4438 16.9384 10 17.3821 10 17.9296C10 18.477 10.4438 18.9208 10.9912 18.9208H17.0792L17.0792 25.0088C17.0792 25.5562 17.523 26 18.0704 26C18.6179 26 19.0616 25.5562 19.0616 25.0088V18.9208H25.0088C25.5562 18.9208 26 18.477 26 17.9296C26 17.3821 25.5562 16.9384 25.0088 16.9384L19.0616 16.9384L19.0616 10.9912Z" fill="#252525"/>
</svg>
