<svg width="36" height="33" viewBox="0 0 36 33" fill="none" xmlns="http://www.w3.org/2000/svg">
<path fill-rule="evenodd" clip-rule="evenodd" d="M3.77773 0.5C1.81405 0.5 0.222168 2.09188 0.222168 4.05556L0.222174 19.1667L0.222168 27.1667C0.222171 30.1122 2.60999 32.5 5.55551 32.5H30.4444C33.3899 32.5 35.7777 30.1122 35.7777 27.1667V11.1667C35.7777 8.22115 33.3899 5.83333 30.4444 5.83333L20.6666 5.83333L20.1974 5.83333L18.5135 2.46546C17.9112 1.2609 16.68 0.5 15.3333 0.5H3.77773ZM16.2222 5.83333L15.3333 4.05556L7.33328 4.05556L3.77773 4.05556V5.83333H16.2222ZM3.77773 9.38889L3.77773 19.1667L3.77773 27.1667C3.77773 28.1485 4.57366 28.9444 5.55551 28.9444L30.4444 28.9444C31.4262 28.9444 32.2222 28.1485 32.2222 27.1667V11.1667C32.2222 10.1848 31.4262 9.38889 30.4444 9.38889H20.6666L19.0987 9.38889L3.77773 9.38889ZM10.8888 19.1667C10.8888 18.1848 11.6848 17.3889 12.6666 17.3889H16.2222V13.8333C16.2222 12.8515 17.0181 12.0556 17.9999 12.0556C18.9818 12.0556 19.7777 12.8515 19.7777 13.8333V17.3889H23.3333C24.3151 17.3889 25.1111 18.1848 25.1111 19.1667C25.1111 20.1485 24.3151 20.9444 23.3333 20.9444H19.7777V24.5C19.7777 25.4818 18.9818 26.2778 17.9999 26.2778C17.0181 26.2778 16.2222 25.4818 16.2222 24.5V20.9444H12.6666C11.6848 20.9444 10.8888 20.1485 10.8888 19.1667Z" fill="#252525" fill-opacity="0.56"/>
</svg>
