<svg width="33" height="32" viewBox="0 0 33 32" fill="none" xmlns="http://www.w3.org/2000/svg">
<rect x="0.5" width="32" height="32" rx="8" fill="#1ED760"/>
<path fill-rule="evenodd" clip-rule="evenodd" d="M16.5 26C10.9772 26 6.5 21.5228 6.5 16C6.5 10.4772 10.9772 6 16.5 6C22.0228 6 26.5 10.4772 26.5 16C26.5 21.5228 22.0228 26 16.5 26ZM16.5 8C12.0817 8 8.5 11.5817 8.5 16C8.5 20.4183 12.0817 24 16.5 24C20.9183 24 24.5 20.4183 24.5 16C24.5 11.5817 20.9183 8 16.5 8ZM16.5005 10.7574C17.0527 10.7574 17.5005 11.2051 17.5005 11.7574V15H20.7426C21.2949 15 21.7426 15.4477 21.7426 16C21.7426 16.5523 21.2949 17 20.7426 17H17.5005V20.2426C17.5005 20.7949 17.0527 21.2426 16.5005 21.2426C15.9482 21.2426 15.5005 20.7949 15.5005 20.2426V17H12.2574C11.7051 17 11.2574 16.5523 11.2574 16C11.2574 15.4477 11.7051 15 12.2574 15H15.5005V11.7574C15.5005 11.2051 15.9482 10.7574 16.5005 10.7574Z" fill="white"/>
</svg>
