<svg width="14" height="14" viewBox="0 0 14 14" fill="none" xmlns="http://www.w3.org/2000/svg">
<path fill-rule="evenodd" clip-rule="evenodd" d="M10.9909 5.03695C11.2667 5.30784 11.2707 5.75104 10.9998 6.02686L7.49983 9.5905C7.36821 9.72451 7.18826 9.8 7.00042 9.8C6.81258 9.8 6.63263 9.72451 6.50101 9.5905L3.00101 6.02686C2.73011 5.75104 2.73411 5.30784 3.00992 5.03695C3.28574 4.76606 3.72894 4.77005 3.99983 5.04587L6.30042 7.38828L6.30042 0.699999C6.30042 0.3134 6.61382 3.37977e-08 7.00042 0C7.38702 -3.37977e-08 7.70042 0.3134 7.70042 0.699999L7.70042 7.38828L10.001 5.04587C10.2719 4.77005 10.7151 4.76605 10.9909 5.03695ZM0.7 6.3C1.0866 6.3 1.4 6.6134 1.4 7V12.6H12.6V7C12.6 6.6134 12.9134 6.3 13.3 6.3C13.6866 6.3 14 6.6134 14 7V13.3C14 13.6866 13.6866 14 13.3 14H0.7C0.313401 14 0 13.6866 0 13.3V7C0 6.6134 0.313401 6.3 0.7 6.3Z" fill="white"/>
</svg>
