<svg width="813" height="1025" viewBox="0 0 813 1025" fill="none" xmlns="http://www.w3.org/2000/svg">
<rect x="80" y="-86" width="148" height="148" rx="12" fill="#5865F2"/>
<g clip-path="url(#clip0_127_124)">
<path d="M177.595 -32.2558C173.467 -34.1174 169.043 -35.4933 164.416 -36.2757C164.375 -36.2836 164.332 -36.2785 164.294 -36.2611C164.256 -36.2437 164.224 -36.2149 164.203 -36.1786C163.636 -35.1831 163.005 -33.8854 162.562 -32.8602C157.655 -33.5934 152.666 -33.5934 147.759 -32.8602C147.266 -33.9964 146.71 -35.1042 146.094 -36.1786C146.073 -36.2153 146.042 -36.2448 146.004 -36.2632C145.966 -36.2815 145.923 -36.2877 145.881 -36.2811C141.257 -35.4987 136.832 -34.1228 132.702 -32.2585C132.666 -32.2436 132.636 -32.2182 132.615 -32.1857C124.22 -19.8427 121.918 -7.80462 123.049 4.0824C123.052 4.11152 123.061 4.13968 123.075 4.16519C123.09 4.1907 123.109 4.21302 123.132 4.23079C128.033 7.79858 133.499 10.5164 139.301 12.2706C139.341 12.283 139.385 12.283 139.425 12.2705C139.465 12.258 139.501 12.2336 139.528 12.2004C140.776 10.5306 141.883 8.75907 142.835 6.90442C142.848 6.87906 142.856 6.85116 142.858 6.8226C142.859 6.79404 142.854 6.7655 142.844 6.7389C142.833 6.71229 142.817 6.68824 142.797 6.6684C142.776 6.64854 142.752 6.63335 142.725 6.62384C140.982 5.96751 139.293 5.17549 137.674 4.25507C137.645 4.23846 137.62 4.21489 137.603 4.18648C137.585 4.15806 137.575 4.12569 137.572 4.09226C137.57 4.05883 137.577 4.0254 137.59 3.99495C137.604 3.96451 137.626 3.938 137.652 3.91783C137.992 3.66692 138.332 3.40522 138.656 3.14353C138.685 3.11999 138.72 3.10501 138.758 3.10025C138.795 3.09548 138.832 3.10112 138.867 3.11655C149.461 7.87567 160.936 7.87567 171.406 3.11655C171.44 3.10021 171.478 3.09383 171.516 3.09812C171.554 3.10241 171.59 3.11721 171.619 3.14083C171.943 3.40522 172.28 3.66692 172.623 3.91783C172.65 3.93758 172.672 3.96373 172.686 3.99391C172.7 4.0241 172.707 4.05739 172.705 4.0908C172.704 4.12421 172.694 4.1567 172.677 4.18537C172.66 4.21404 172.635 4.23798 172.607 4.25507C170.993 5.18315 169.315 5.96825 167.553 6.62114C167.526 6.63096 167.502 6.64644 167.481 6.66655C167.461 6.68665 167.445 6.71093 167.434 6.73774C167.424 6.76455 167.419 6.79329 167.42 6.82203C167.422 6.85077 167.43 6.87886 167.443 6.90442C168.414 8.75789 169.526 10.5223 170.748 12.1977C170.773 12.2321 170.809 12.2578 170.849 12.2713C170.89 12.2849 170.934 12.2855 170.974 12.2733C176.787 10.5241 182.261 7.80492 187.167 4.23079C187.191 4.21405 187.211 4.1924 187.226 4.16727C187.241 4.14215 187.251 4.11413 187.254 4.0851C188.603 -9.65809 184.993 -21.5991 177.679 -32.1803C177.661 -32.2147 177.631 -32.2415 177.595 -32.2558ZM144.419 -3.15611C141.23 -3.15611 138.599 -6.04018 138.599 -9.57715C138.599 -13.1168 141.179 -15.9982 144.419 -15.9982C147.683 -15.9982 150.29 -13.0925 150.238 -9.57715C150.238 -6.03749 147.659 -3.15611 144.419 -3.15611ZM165.935 -3.15611C162.743 -3.15611 160.115 -6.04018 160.115 -9.57715C160.115 -13.1168 162.692 -15.9982 165.935 -15.9982C169.199 -15.9982 171.805 -13.0925 171.754 -9.57715C171.754 -6.03749 169.202 -3.15611 165.935 -3.15611Z" fill="white"/>
</g>
<rect x="249" y="42" width="148" height="148" rx="12" fill="#252525" fill-opacity="0.06"/>
<g clip-path="url(#clip1_127_124)">
<path d="M346.595 95.7442C342.467 93.8826 338.043 92.5067 333.416 91.7243C333.375 91.7164 333.332 91.7215 333.294 91.7389C333.256 91.7563 333.224 91.7851 333.203 91.8214C332.636 92.8169 332.005 94.1146 331.562 95.1398C326.655 94.4066 321.666 94.4066 316.759 95.1398C316.266 94.0036 315.71 92.8958 315.094 91.8214C315.073 91.7847 315.042 91.7552 315.004 91.7368C314.966 91.7185 314.923 91.7123 314.881 91.7189C310.257 92.5013 305.832 93.8772 301.702 95.7415C301.666 95.7564 301.636 95.7818 301.615 95.8143C293.22 108.157 290.918 120.195 292.049 132.082C292.052 132.112 292.061 132.14 292.075 132.165C292.09 132.191 292.109 132.213 292.132 132.231C297.033 135.799 302.499 138.516 308.301 140.271C308.341 140.283 308.385 140.283 308.425 140.27C308.465 140.258 308.501 140.234 308.528 140.2C309.776 138.531 310.883 136.759 311.835 134.904C311.848 134.879 311.856 134.851 311.858 134.823C311.859 134.794 311.854 134.765 311.844 134.739C311.833 134.712 311.817 134.688 311.797 134.668C311.776 134.649 311.752 134.633 311.725 134.624C309.982 133.968 308.293 133.175 306.674 132.255C306.645 132.238 306.62 132.215 306.603 132.186C306.585 132.158 306.575 132.126 306.572 132.092C306.57 132.059 306.577 132.025 306.59 131.995C306.604 131.965 306.626 131.938 306.652 131.918C306.992 131.667 307.332 131.405 307.656 131.144C307.685 131.12 307.72 131.105 307.758 131.1C307.795 131.095 307.832 131.101 307.867 131.117C318.461 135.876 329.936 135.876 340.406 131.117C340.44 131.1 340.478 131.094 340.516 131.098C340.554 131.102 340.59 131.117 340.619 131.141C340.943 131.405 341.28 131.667 341.623 131.918C341.65 131.938 341.672 131.964 341.686 131.994C341.7 132.024 341.707 132.057 341.705 132.091C341.704 132.124 341.694 132.157 341.677 132.185C341.66 132.214 341.635 132.238 341.607 132.255C339.993 133.183 338.315 133.968 336.553 134.621C336.526 134.631 336.502 134.646 336.481 134.667C336.461 134.687 336.445 134.711 336.434 134.738C336.424 134.765 336.419 134.793 336.42 134.822C336.422 134.851 336.43 134.879 336.443 134.904C337.414 136.758 338.526 138.522 339.748 140.198C339.773 140.232 339.809 140.258 339.849 140.271C339.89 140.285 339.934 140.286 339.974 140.273C345.787 138.524 351.261 135.805 356.167 132.231C356.191 132.214 356.211 132.192 356.226 132.167C356.241 132.142 356.251 132.114 356.254 132.085C357.603 118.342 353.993 106.401 346.679 95.8197C346.661 95.7853 346.631 95.7585 346.595 95.7442ZM313.419 124.844C310.23 124.844 307.599 121.96 307.599 118.423C307.599 114.883 310.179 112.002 313.419 112.002C316.683 112.002 319.29 114.907 319.238 118.423C319.238 121.963 316.659 124.844 313.419 124.844ZM334.935 124.844C331.743 124.844 329.115 121.96 329.115 118.423C329.115 114.883 331.692 112.002 334.935 112.002C338.199 112.002 340.805 114.907 340.754 118.423C340.754 121.963 338.202 124.844 334.935 124.844Z" fill="white"/>
</g>
<rect x="80" y="82" width="148" height="148" rx="12" fill="#1ED760"/>
<g clip-path="url(#clip2_127_124)">
<path d="M154 127.598C136.12 127.598 121.625 142.093 121.625 159.973C121.625 177.854 136.12 192.348 154 192.348C171.881 192.348 186.375 177.854 186.375 159.973C186.375 142.095 171.881 127.6 153.999 127.6L154 127.598L154 127.598ZM168.847 174.293C168.267 175.244 167.022 175.545 166.071 174.961C158.47 170.318 148.901 169.267 137.631 171.841C137.11 171.96 136.562 171.867 136.109 171.582C135.656 171.297 135.334 170.844 135.215 170.322C135.156 170.064 135.148 169.796 135.193 169.535C135.237 169.274 135.332 169.024 135.473 168.799C135.614 168.575 135.798 168.38 136.014 168.227C136.23 168.074 136.475 167.965 136.733 167.906C149.066 165.088 159.644 166.301 168.178 171.517C169.129 172.1 169.43 173.341 168.847 174.293ZM172.809 165.477C172.078 166.665 170.524 167.04 169.338 166.309C160.635 160.96 147.37 159.411 137.077 162.535C135.742 162.938 134.332 162.186 133.927 160.854C133.525 159.519 134.278 158.111 135.61 157.706C147.368 154.138 161.984 155.866 171.978 162.007C173.165 162.738 173.54 164.292 172.809 165.477V165.477ZM173.15 156.298C162.715 150.1 145.5 149.53 135.538 152.554C133.938 153.039 132.246 152.136 131.762 150.536C131.277 148.935 132.179 147.245 133.78 146.758C145.216 143.287 164.227 143.958 176.24 151.089C177.682 151.943 178.154 153.802 177.299 155.239C176.449 156.678 174.585 157.152 173.151 156.298H173.15Z" fill="white"/>
</g>
<rect x="249" y="-126" width="148" height="148" rx="12" fill="#252525" fill-opacity="0.06"/>
<rect x="80" y="250" width="148" height="148" rx="12" fill="#252525" fill-opacity="0.06"/>
<g clip-path="url(#clip3_127_124)">
<path d="M177.595 303.744C173.467 301.883 169.043 300.507 164.416 299.724C164.375 299.716 164.332 299.721 164.294 299.739C164.256 299.756 164.224 299.785 164.203 299.821C163.636 300.817 163.005 302.115 162.562 303.14C157.655 302.407 152.666 302.407 147.759 303.14C147.266 302.004 146.71 300.896 146.094 299.821C146.073 299.785 146.042 299.755 146.004 299.737C145.966 299.719 145.923 299.712 145.881 299.719C141.257 300.501 136.832 301.877 132.702 303.741C132.666 303.756 132.636 303.782 132.615 303.814C124.22 316.157 121.918 328.195 123.049 340.082C123.052 340.112 123.061 340.14 123.075 340.165C123.09 340.191 123.109 340.213 123.132 340.231C128.033 343.799 133.499 346.516 139.301 348.271C139.341 348.283 139.385 348.283 139.425 348.27C139.465 348.258 139.501 348.234 139.528 348.2C140.776 346.531 141.883 344.759 142.835 342.904C142.848 342.879 142.856 342.851 142.858 342.823C142.859 342.794 142.854 342.765 142.844 342.739C142.833 342.712 142.817 342.688 142.797 342.668C142.776 342.649 142.752 342.633 142.725 342.624C140.982 341.968 139.293 341.175 137.674 340.255C137.645 340.238 137.62 340.215 137.603 340.186C137.585 340.158 137.575 340.126 137.572 340.092C137.57 340.059 137.577 340.025 137.59 339.995C137.604 339.965 137.626 339.938 137.652 339.918C137.992 339.667 138.332 339.405 138.656 339.144C138.685 339.12 138.72 339.105 138.758 339.1C138.795 339.095 138.832 339.101 138.867 339.117C149.461 343.876 160.936 343.876 171.406 339.117C171.44 339.1 171.478 339.094 171.516 339.098C171.554 339.102 171.59 339.117 171.619 339.141C171.943 339.405 172.28 339.667 172.623 339.918C172.65 339.938 172.672 339.964 172.686 339.994C172.7 340.024 172.707 340.057 172.705 340.091C172.704 340.124 172.694 340.157 172.677 340.185C172.66 340.214 172.635 340.238 172.607 340.255C170.993 341.183 169.315 341.968 167.553 342.621C167.526 342.631 167.502 342.646 167.481 342.667C167.461 342.687 167.445 342.711 167.434 342.738C167.424 342.765 167.419 342.793 167.42 342.822C167.422 342.851 167.43 342.879 167.443 342.904C168.414 344.758 169.526 346.522 170.748 348.198C170.773 348.232 170.809 348.258 170.849 348.271C170.89 348.285 170.934 348.286 170.974 348.273C176.787 346.524 182.261 343.805 187.167 340.231C187.191 340.214 187.211 340.192 187.226 340.167C187.241 340.142 187.251 340.114 187.254 340.085C188.603 326.342 184.993 314.401 177.679 303.82C177.661 303.785 177.631 303.759 177.595 303.744ZM144.419 332.844C141.23 332.844 138.599 329.96 138.599 326.423C138.599 322.883 141.179 320.002 144.419 320.002C147.683 320.002 150.29 322.907 150.238 326.423C150.238 329.963 147.659 332.844 144.419 332.844ZM165.935 332.844C162.743 332.844 160.115 329.96 160.115 326.423C160.115 322.883 162.692 320.002 165.935 320.002C169.199 320.002 171.805 322.907 171.754 326.423C171.754 329.963 169.202 332.844 165.935 332.844Z" fill="white"/>
</g>
<rect x="249" y="378" width="148" height="148" rx="12" fill="#252525" fill-opacity="0.06"/>
<g clip-path="url(#clip4_127_124)">
<path d="M346.595 431.744C342.467 429.883 338.043 428.507 333.416 427.724C333.375 427.716 333.332 427.721 333.294 427.739C333.256 427.756 333.224 427.785 333.203 427.821C332.636 428.817 332.005 430.115 331.562 431.14C326.655 430.407 321.666 430.407 316.759 431.14C316.266 430.004 315.71 428.896 315.094 427.821C315.073 427.785 315.042 427.755 315.004 427.737C314.966 427.719 314.923 427.712 314.881 427.719C310.257 428.501 305.832 429.877 301.702 431.741C301.666 431.756 301.636 431.782 301.615 431.814C293.22 444.157 290.918 456.195 292.049 468.082C292.052 468.112 292.061 468.14 292.075 468.165C292.09 468.191 292.109 468.213 292.132 468.231C297.033 471.799 302.499 474.516 308.301 476.271C308.341 476.283 308.385 476.283 308.425 476.27C308.465 476.258 308.501 476.234 308.528 476.2C309.776 474.531 310.883 472.759 311.835 470.904C311.848 470.879 311.856 470.851 311.858 470.823C311.859 470.794 311.854 470.765 311.844 470.739C311.833 470.712 311.817 470.688 311.797 470.668C311.776 470.649 311.752 470.633 311.725 470.624C309.982 469.968 308.293 469.175 306.674 468.255C306.645 468.238 306.62 468.215 306.603 468.186C306.585 468.158 306.575 468.126 306.572 468.092C306.57 468.059 306.577 468.025 306.59 467.995C306.604 467.965 306.626 467.938 306.652 467.918C306.992 467.667 307.332 467.405 307.656 467.144C307.685 467.12 307.72 467.105 307.758 467.1C307.795 467.095 307.832 467.101 307.867 467.117C318.461 471.876 329.936 471.876 340.406 467.117C340.44 467.1 340.478 467.094 340.516 467.098C340.554 467.102 340.59 467.117 340.619 467.141C340.943 467.405 341.28 467.667 341.623 467.918C341.65 467.938 341.672 467.964 341.686 467.994C341.7 468.024 341.707 468.057 341.705 468.091C341.704 468.124 341.694 468.157 341.677 468.185C341.66 468.214 341.635 468.238 341.607 468.255C339.993 469.183 338.315 469.968 336.553 470.621C336.526 470.631 336.502 470.646 336.481 470.667C336.461 470.687 336.445 470.711 336.434 470.738C336.424 470.765 336.419 470.793 336.42 470.822C336.422 470.851 336.43 470.879 336.443 470.904C337.414 472.758 338.526 474.522 339.748 476.198C339.773 476.232 339.809 476.258 339.849 476.271C339.89 476.285 339.934 476.286 339.974 476.273C345.787 474.524 351.261 471.805 356.167 468.231C356.191 468.214 356.211 468.192 356.226 468.167C356.241 468.142 356.251 468.114 356.254 468.085C357.603 454.342 353.993 442.401 346.679 431.82C346.661 431.785 346.631 431.759 346.595 431.744ZM313.419 460.844C310.23 460.844 307.599 457.96 307.599 454.423C307.599 450.883 310.179 448.002 313.419 448.002C316.683 448.002 319.29 450.907 319.238 454.423C319.238 457.963 316.659 460.844 313.419 460.844ZM334.935 460.844C331.743 460.844 329.115 457.96 329.115 454.423C329.115 450.883 331.692 448.002 334.935 448.002C338.199 448.002 340.805 450.907 340.754 454.423C340.754 457.963 338.202 460.844 334.935 460.844Z" fill="white"/>
</g>
<rect x="587" y="-46" width="148" height="148" rx="12" fill="#1ED760"/>
<g clip-path="url(#clip5_127_124)">
<path d="M661 -0.401855C643.12 -0.401855 628.625 14.0933 628.625 31.9731C628.625 49.8543 643.12 64.3481 661 64.3481C678.881 64.3481 693.375 49.8543 693.375 31.9731C693.375 14.0946 678.881 -0.400085 660.999 -0.400085L661 -0.401603L661 -0.401855ZM675.847 46.2925C675.267 47.2435 674.022 47.545 673.071 46.9613C665.47 42.3182 655.901 41.2665 644.631 43.8414C644.11 43.9601 643.562 43.8668 643.109 43.5819C642.656 43.297 642.334 42.8438 642.215 42.322C642.156 42.0637 642.148 41.7962 642.193 41.5349C642.237 41.2736 642.332 41.0235 642.473 40.7991C642.614 40.5747 642.798 40.3802 643.014 40.2269C643.23 40.0737 643.475 39.9645 643.733 39.9058C656.066 37.0881 666.644 38.3012 675.178 43.5166C676.129 44.1004 676.43 45.3415 675.847 46.2925ZM679.809 37.4771C679.078 38.6647 677.524 39.0397 676.338 38.309C667.635 32.9601 654.37 31.4109 644.077 34.5353C642.742 34.9385 641.332 34.1863 640.927 32.8536C640.525 31.5186 641.278 30.1113 642.61 29.7056C654.368 26.1378 668.984 27.8661 678.978 34.0072C680.165 34.7382 680.54 36.2922 679.809 37.4774V37.4771ZM680.15 28.2976C669.715 22.0998 652.5 21.5297 642.538 24.5537C640.938 25.0388 639.246 24.1356 638.762 22.5358C638.277 20.9353 639.179 19.2447 640.78 18.7583C652.216 15.2866 671.227 15.9576 683.24 23.0892C684.682 23.9431 685.154 25.8017 684.299 27.2386C683.449 28.6777 681.585 29.152 680.151 28.2976H680.15Z" fill="white"/>
</g>
<rect x="249" y="882" width="148" height="148" rx="12" fill="#252525" fill-opacity="0.06"/>
<path fill-rule="evenodd" clip-rule="evenodd" d="M322.033 924.509C321.586 924.985 319.645 929.384 317.721 934.285C315.139 940.859 313.991 943.362 313.344 943.828C312.626 944.346 310.864 944.565 303.652 945.035C298.803 945.35 294.384 945.786 293.83 946.003C292.23 946.631 291.327 949.018 292.014 950.806C292.143 951.143 294.276 953.1 296.753 955.155C301.336 958.956 303.227 959.945 305.966 959.972C306.573 959.977 311.551 959.139 317.028 958.108C325.339 956.544 327.08 956.311 327.552 956.703C328.238 957.272 328.287 958.295 327.654 958.819C327.399 959.031 323.125 961.228 318.157 963.701C306.465 969.522 306.63 969.342 304.21 978.943C302.635 985.198 302.614 985.948 303.984 987.317C305.87 989.201 306.552 988.963 315.371 983.333C321.092 979.682 323.555 978.302 324.339 978.309C325.101 978.316 327.758 979.802 333.335 983.34C338.718 986.755 341.579 988.363 342.276 988.365C343.462 988.368 345.747 986.324 345.751 985.257C345.752 984.892 344.751 980.345 343.526 975.155C341.464 966.42 341.337 965.642 341.814 964.688C342.098 964.121 345.326 961.012 348.987 957.778C352.648 954.545 355.84 951.65 356.081 951.345C356.322 951.041 356.525 950.097 356.531 949.247C356.54 948.084 356.328 947.488 355.674 946.835C354.566 945.728 354.495 945.715 345.928 945.042C336.438 944.297 335.677 944.176 334.789 943.279C334.376 942.863 332.533 938.638 330.693 933.892C328.422 928.032 327.061 925.002 326.454 924.453C325.209 923.327 323.119 923.353 322.033 924.509Z" fill="white"/>
<rect x="249" y="714" width="148" height="148" rx="12" fill="#5865F2"/>
<g clip-path="url(#clip6_127_124)">
<path d="M346.595 767.744C342.467 765.883 338.043 764.507 333.416 763.724C333.375 763.716 333.332 763.721 333.294 763.739C333.256 763.756 333.224 763.785 333.203 763.821C332.636 764.817 332.005 766.115 331.562 767.14C326.655 766.407 321.666 766.407 316.759 767.14C316.266 766.004 315.71 764.896 315.094 763.821C315.073 763.785 315.042 763.755 315.004 763.737C314.966 763.719 314.923 763.712 314.881 763.719C310.257 764.501 305.832 765.877 301.702 767.741C301.666 767.756 301.636 767.782 301.615 767.814C293.22 780.157 290.918 792.195 292.049 804.082C292.052 804.112 292.061 804.14 292.075 804.165C292.09 804.191 292.109 804.213 292.132 804.231C297.033 807.799 302.499 810.516 308.301 812.271C308.341 812.283 308.385 812.283 308.425 812.27C308.465 812.258 308.501 812.234 308.528 812.2C309.776 810.531 310.883 808.759 311.835 806.904C311.848 806.879 311.856 806.851 311.858 806.823C311.859 806.794 311.854 806.765 311.844 806.739C311.833 806.712 311.817 806.688 311.797 806.668C311.776 806.649 311.752 806.633 311.725 806.624C309.982 805.968 308.293 805.175 306.674 804.255C306.645 804.238 306.62 804.215 306.603 804.186C306.585 804.158 306.575 804.126 306.572 804.092C306.57 804.059 306.577 804.025 306.59 803.995C306.604 803.965 306.626 803.938 306.652 803.918C306.992 803.667 307.332 803.405 307.656 803.144C307.685 803.12 307.72 803.105 307.758 803.1C307.795 803.095 307.832 803.101 307.867 803.117C318.461 807.876 329.936 807.876 340.406 803.117C340.44 803.1 340.478 803.094 340.516 803.098C340.554 803.102 340.59 803.117 340.619 803.141C340.943 803.405 341.28 803.667 341.623 803.918C341.65 803.938 341.672 803.964 341.686 803.994C341.7 804.024 341.707 804.057 341.705 804.091C341.704 804.124 341.694 804.157 341.677 804.185C341.66 804.214 341.635 804.238 341.607 804.255C339.993 805.183 338.315 805.968 336.553 806.621C336.526 806.631 336.502 806.646 336.481 806.667C336.461 806.687 336.445 806.711 336.434 806.738C336.424 806.765 336.419 806.793 336.42 806.822C336.422 806.851 336.43 806.879 336.443 806.904C337.414 808.758 338.526 810.522 339.748 812.198C339.773 812.232 339.809 812.258 339.849 812.271C339.89 812.285 339.934 812.286 339.974 812.273C345.787 810.524 351.261 807.805 356.167 804.231C356.191 804.214 356.211 804.192 356.226 804.167C356.241 804.142 356.251 804.114 356.254 804.085C357.603 790.342 353.993 778.401 346.679 767.82C346.661 767.785 346.631 767.759 346.595 767.744ZM313.419 796.844C310.23 796.844 307.599 793.96 307.599 790.423C307.599 786.883 310.179 784.002 313.419 784.002C316.683 784.002 319.29 786.907 319.238 790.423C319.238 793.963 316.659 796.844 313.419 796.844ZM334.935 796.844C331.743 796.844 329.115 793.96 329.115 790.423C329.115 786.883 331.692 784.002 334.935 784.002C338.199 784.002 340.805 786.907 340.754 790.423C340.754 793.963 338.202 796.844 334.935 796.844Z" fill="white"/>
</g>
<rect x="80" y="418" width="148" height="148" rx="12" fill="#1ED760"/>
<g clip-path="url(#clip7_127_124)">
<path d="M154 463.598C136.12 463.598 121.625 478.093 121.625 495.973C121.625 513.854 136.12 528.348 154 528.348C171.881 528.348 186.375 513.854 186.375 495.973C186.375 478.095 171.881 463.6 153.999 463.6L154 463.598L154 463.598ZM168.847 510.293C168.267 511.244 167.022 511.545 166.071 510.961C158.47 506.318 148.901 505.267 137.631 507.841C137.11 507.96 136.562 507.867 136.109 507.582C135.656 507.297 135.334 506.844 135.215 506.322C135.156 506.064 135.148 505.796 135.193 505.535C135.237 505.274 135.332 505.024 135.473 504.799C135.614 504.575 135.798 504.38 136.014 504.227C136.23 504.074 136.475 503.965 136.733 503.906C149.066 501.088 159.644 502.301 168.178 507.517C169.129 508.1 169.43 509.341 168.847 510.293ZM172.809 501.477C172.078 502.665 170.524 503.04 169.338 502.309C160.635 496.96 147.37 495.411 137.077 498.535C135.742 498.938 134.332 498.186 133.927 496.854C133.525 495.519 134.278 494.111 135.61 493.706C147.368 490.138 161.984 491.866 171.978 498.007C173.165 498.738 173.54 500.292 172.809 501.477V501.477ZM173.15 492.298C162.715 486.1 145.5 485.53 135.538 488.554C133.938 489.039 132.246 488.136 131.762 486.536C131.277 484.935 132.179 483.245 133.78 482.758C145.216 479.287 164.227 479.958 176.24 487.089C177.682 487.943 178.154 489.802 177.299 491.239C176.449 492.678 174.585 493.152 173.151 492.298H173.15Z" fill="white"/>
</g>
<rect x="80" y="586" width="148" height="148" rx="12" fill="#252525" fill-opacity="0.06"/>
<g clip-path="url(#clip8_127_124)">
<path d="M177.595 639.744C173.467 637.883 169.043 636.507 164.416 635.724C164.375 635.716 164.332 635.721 164.294 635.739C164.256 635.756 164.224 635.785 164.203 635.821C163.636 636.817 163.005 638.115 162.562 639.14C157.655 638.407 152.666 638.407 147.759 639.14C147.266 638.004 146.71 636.896 146.094 635.821C146.073 635.785 146.042 635.755 146.004 635.737C145.966 635.719 145.923 635.712 145.881 635.719C141.257 636.501 136.832 637.877 132.702 639.741C132.666 639.756 132.636 639.782 132.615 639.814C124.22 652.157 121.918 664.195 123.049 676.082C123.052 676.112 123.061 676.14 123.075 676.165C123.09 676.191 123.109 676.213 123.132 676.231C128.033 679.799 133.499 682.516 139.301 684.271C139.341 684.283 139.385 684.283 139.425 684.27C139.465 684.258 139.501 684.234 139.528 684.2C140.776 682.531 141.883 680.759 142.835 678.904C142.848 678.879 142.856 678.851 142.858 678.823C142.859 678.794 142.854 678.765 142.844 678.739C142.833 678.712 142.817 678.688 142.797 678.668C142.776 678.649 142.752 678.633 142.725 678.624C140.982 677.968 139.293 677.175 137.674 676.255C137.645 676.238 137.62 676.215 137.603 676.186C137.585 676.158 137.575 676.126 137.572 676.092C137.57 676.059 137.577 676.025 137.59 675.995C137.604 675.965 137.626 675.938 137.652 675.918C137.992 675.667 138.332 675.405 138.656 675.144C138.685 675.12 138.72 675.105 138.758 675.1C138.795 675.095 138.832 675.101 138.867 675.117C149.461 679.876 160.936 679.876 171.406 675.117C171.44 675.1 171.478 675.094 171.516 675.098C171.554 675.102 171.59 675.117 171.619 675.141C171.943 675.405 172.28 675.667 172.623 675.918C172.65 675.938 172.672 675.964 172.686 675.994C172.7 676.024 172.707 676.057 172.705 676.091C172.704 676.124 172.694 676.157 172.677 676.185C172.66 676.214 172.635 676.238 172.607 676.255C170.993 677.183 169.315 677.968 167.553 678.621C167.526 678.631 167.502 678.646 167.481 678.667C167.461 678.687 167.445 678.711 167.434 678.738C167.424 678.765 167.419 678.793 167.42 678.822C167.422 678.851 167.43 678.879 167.443 678.904C168.414 680.758 169.526 682.522 170.748 684.198C170.773 684.232 170.809 684.258 170.849 684.271C170.89 684.285 170.934 684.286 170.974 684.273C176.787 682.524 182.261 679.805 187.167 676.231C187.191 676.214 187.211 676.192 187.226 676.167C187.241 676.142 187.251 676.114 187.254 676.085C188.603 662.342 184.993 650.401 177.679 639.82C177.661 639.785 177.631 639.759 177.595 639.744ZM144.419 668.844C141.23 668.844 138.599 665.96 138.599 662.423C138.599 658.883 141.179 656.002 144.419 656.002C147.683 656.002 150.29 658.907 150.238 662.423C150.238 665.963 147.659 668.844 144.419 668.844ZM165.935 668.844C162.743 668.844 160.115 665.96 160.115 662.423C160.115 658.883 162.692 656.002 165.935 656.002C169.199 656.002 171.805 658.907 171.754 662.423C171.754 665.963 169.202 668.844 165.935 668.844Z" fill="white"/>
</g>
<rect x="587" y="122" width="148" height="148" rx="12" fill="#5865F2"/>
<g clip-path="url(#clip9_127_124)">
<path d="M684.595 175.744C680.467 173.883 676.043 172.507 671.416 171.724C671.375 171.716 671.332 171.721 671.294 171.739C671.256 171.756 671.224 171.785 671.203 171.821C670.636 172.817 670.005 174.115 669.562 175.14C664.655 174.407 659.666 174.407 654.759 175.14C654.266 174.004 653.71 172.896 653.094 171.821C653.073 171.785 653.042 171.755 653.004 171.737C652.966 171.719 652.923 171.712 652.881 171.719C648.257 172.501 643.832 173.877 639.702 175.741C639.666 175.756 639.636 175.782 639.615 175.814C631.22 188.157 628.918 200.195 630.049 212.082C630.052 212.112 630.061 212.14 630.075 212.165C630.09 212.191 630.109 212.213 630.132 212.231C635.033 215.799 640.499 218.516 646.301 220.271C646.341 220.283 646.385 220.283 646.425 220.27C646.465 220.258 646.501 220.234 646.528 220.2C647.776 218.531 648.883 216.759 649.835 214.904C649.848 214.879 649.856 214.851 649.858 214.823C649.859 214.794 649.854 214.765 649.844 214.739C649.833 214.712 649.817 214.688 649.797 214.668C649.776 214.649 649.752 214.633 649.725 214.624C647.982 213.968 646.293 213.175 644.674 212.255C644.645 212.238 644.62 212.215 644.603 212.186C644.585 212.158 644.575 212.126 644.572 212.092C644.57 212.059 644.577 212.025 644.59 211.995C644.604 211.965 644.626 211.938 644.652 211.918C644.992 211.667 645.332 211.405 645.656 211.144C645.685 211.12 645.72 211.105 645.758 211.1C645.795 211.095 645.832 211.101 645.867 211.117C656.461 215.876 667.936 215.876 678.406 211.117C678.44 211.1 678.478 211.094 678.516 211.098C678.554 211.102 678.59 211.117 678.619 211.141C678.943 211.405 679.28 211.667 679.623 211.918C679.65 211.938 679.672 211.964 679.686 211.994C679.7 212.024 679.707 212.057 679.705 212.091C679.704 212.124 679.694 212.157 679.677 212.185C679.66 212.214 679.635 212.238 679.607 212.255C677.993 213.183 676.315 213.968 674.553 214.621C674.526 214.631 674.502 214.646 674.481 214.667C674.461 214.687 674.445 214.711 674.434 214.738C674.424 214.765 674.419 214.793 674.42 214.822C674.422 214.851 674.43 214.879 674.443 214.904C675.414 216.758 676.526 218.522 677.748 220.198C677.773 220.232 677.809 220.258 677.849 220.271C677.89 220.285 677.934 220.286 677.974 220.273C683.787 218.524 689.261 215.805 694.167 212.231C694.191 212.214 694.211 212.192 694.226 212.167C694.241 212.142 694.251 212.114 694.254 212.085C695.603 198.342 691.993 186.401 684.679 175.82C684.661 175.785 684.631 175.759 684.595 175.744ZM651.419 204.844C648.23 204.844 645.599 201.96 645.599 198.423C645.599 194.883 648.179 192.002 651.419 192.002C654.683 192.002 657.29 194.907 657.238 198.423C657.238 201.963 654.659 204.844 651.419 204.844ZM672.935 204.844C669.743 204.844 667.115 201.96 667.115 198.423C667.115 194.883 669.692 192.002 672.935 192.002C676.199 192.002 678.805 194.907 678.754 198.423C678.754 201.963 676.202 204.844 672.935 204.844Z" fill="white"/>
</g>
<rect x="418" y="754" width="148" height="148" rx="12" fill="#252525" fill-opacity="0.06"/>
<g clip-path="url(#clip10_127_124)">
<path d="M492 799.598C474.12 799.598 459.625 814.093 459.625 831.973C459.625 849.854 474.12 864.348 492 864.348C509.881 864.348 524.375 849.854 524.375 831.973C524.375 814.095 509.881 799.6 491.999 799.6L492 799.598L492 799.598ZM506.847 846.293C506.267 847.244 505.022 847.545 504.071 846.961C496.47 842.318 486.901 841.267 475.631 843.841C475.11 843.96 474.562 843.867 474.109 843.582C473.656 843.297 473.334 842.844 473.215 842.322C473.156 842.064 473.148 841.796 473.193 841.535C473.237 841.274 473.332 841.024 473.473 840.799C473.614 840.575 473.798 840.38 474.014 840.227C474.23 840.074 474.475 839.965 474.733 839.906C487.066 837.088 497.644 838.301 506.178 843.517C507.129 844.1 507.43 845.341 506.847 846.293ZM510.809 837.477C510.078 838.665 508.524 839.04 507.338 838.309C498.635 832.96 485.37 831.411 475.077 834.535C473.742 834.938 472.332 834.186 471.927 832.854C471.525 831.519 472.278 830.111 473.61 829.706C485.368 826.138 499.984 827.866 509.978 834.007C511.165 834.738 511.54 836.292 510.809 837.477V837.477ZM511.15 828.298C500.715 822.1 483.5 821.53 473.538 824.554C471.938 825.039 470.246 824.136 469.762 822.536C469.277 820.935 470.179 819.245 471.78 818.758C483.216 815.287 502.227 815.958 514.24 823.089C515.682 823.943 516.154 825.802 515.299 827.239C514.449 828.678 512.585 829.152 511.151 828.298H511.15Z" fill="white"/>
</g>
<rect x="249" y="210" width="148" height="148" rx="12" fill="#229ED9"/>
<path fill-rule="evenodd" clip-rule="evenodd" d="M322.033 252.509C321.586 252.985 319.645 257.384 317.721 262.285C315.139 268.859 313.991 271.362 313.344 271.828C312.626 272.346 310.864 272.565 303.652 273.035C298.803 273.35 294.384 273.786 293.83 274.003C292.23 274.631 291.327 277.018 292.014 278.806C292.143 279.143 294.276 281.1 296.753 283.155C301.336 286.956 303.227 287.945 305.966 287.972C306.573 287.977 311.551 287.139 317.028 286.108C325.339 284.544 327.08 284.311 327.552 284.703C328.238 285.272 328.287 286.295 327.654 286.819C327.399 287.031 323.125 289.228 318.157 291.701C306.465 297.522 306.63 297.342 304.21 306.943C302.635 313.198 302.614 313.948 303.984 315.317C305.87 317.201 306.552 316.963 315.371 311.333C321.092 307.682 323.555 306.302 324.339 306.309C325.101 306.316 327.758 307.802 333.335 311.34C338.718 314.755 341.579 316.363 342.276 316.365C343.462 316.368 345.747 314.324 345.751 313.257C345.752 312.892 344.751 308.345 343.526 303.155C341.464 294.42 341.337 293.642 341.814 292.688C342.098 292.121 345.326 289.012 348.987 285.778C352.648 282.545 355.84 279.65 356.081 279.345C356.322 279.041 356.525 278.097 356.531 277.247C356.54 276.084 356.328 275.488 355.674 274.835C354.566 273.728 354.495 273.715 345.928 273.042C336.438 272.297 335.677 272.176 334.789 271.279C334.376 270.863 332.533 266.638 330.693 261.892C328.422 256.032 327.061 253.002 326.454 252.453C325.209 251.327 323.119 251.353 322.033 252.509Z" fill="white"/>
<rect x="587" y="794" width="148" height="148" rx="12" fill="#252525" fill-opacity="0.06"/>
<path fill-rule="evenodd" clip-rule="evenodd" d="M660.033 836.509C659.586 836.985 657.645 841.384 655.721 846.285C653.139 852.859 651.991 855.362 651.344 855.828C650.626 856.346 648.864 856.565 641.652 857.035C636.803 857.35 632.384 857.786 631.83 858.003C630.23 858.631 629.327 861.018 630.014 862.806C630.143 863.143 632.276 865.1 634.753 867.155C639.336 870.956 641.227 871.945 643.966 871.972C644.573 871.977 649.551 871.139 655.028 870.108C663.339 868.544 665.08 868.311 665.552 868.703C666.238 869.272 666.287 870.295 665.654 870.819C665.399 871.031 661.125 873.228 656.157 875.701C644.465 881.522 644.63 881.342 642.21 890.943C640.635 897.198 640.614 897.948 641.984 899.317C643.87 901.201 644.552 900.963 653.371 895.333C659.092 891.682 661.555 890.302 662.339 890.309C663.101 890.316 665.758 891.802 671.335 895.34C676.718 898.755 679.579 900.363 680.276 900.365C681.462 900.368 683.747 898.324 683.751 897.257C683.752 896.892 682.751 892.345 681.526 887.155C679.464 878.42 679.337 877.642 679.814 876.688C680.098 876.121 683.326 873.012 686.987 869.778C690.648 866.545 693.84 863.65 694.081 863.345C694.322 863.041 694.525 862.097 694.531 861.247C694.54 860.084 694.328 859.488 693.674 858.835C692.566 857.728 692.495 857.715 683.928 857.042C674.438 856.297 673.677 856.176 672.789 855.279C672.376 854.863 670.533 850.638 668.693 845.892C666.422 840.032 665.061 837.002 664.454 836.453C663.209 835.327 661.119 835.353 660.033 836.509Z" fill="white"/>
<rect x="418" y="-86" width="148" height="148" rx="12" fill="#252525" fill-opacity="0.06"/>
<g clip-path="url(#clip11_127_124)">
<path d="M515.595 -32.2558C511.467 -34.1174 507.043 -35.4933 502.416 -36.2757C502.375 -36.2836 502.332 -36.2785 502.294 -36.2611C502.256 -36.2437 502.224 -36.2149 502.203 -36.1786C501.636 -35.1831 501.005 -33.8854 500.562 -32.8602C495.655 -33.5934 490.666 -33.5934 485.759 -32.8602C485.266 -33.9964 484.71 -35.1042 484.094 -36.1786C484.073 -36.2153 484.042 -36.2448 484.004 -36.2632C483.966 -36.2815 483.923 -36.2877 483.881 -36.2811C479.257 -35.4987 474.832 -34.1228 470.702 -32.2585C470.666 -32.2436 470.636 -32.2182 470.615 -32.1857C462.22 -19.8427 459.918 -7.80462 461.049 4.0824C461.052 4.11152 461.061 4.13968 461.075 4.16519C461.09 4.1907 461.109 4.21302 461.132 4.23079C466.033 7.79858 471.499 10.5164 477.301 12.2706C477.341 12.283 477.385 12.283 477.425 12.2705C477.465 12.258 477.501 12.2336 477.528 12.2004C478.776 10.5306 479.883 8.75907 480.835 6.90442C480.848 6.87906 480.856 6.85116 480.858 6.8226C480.859 6.79404 480.854 6.7655 480.844 6.7389C480.833 6.71229 480.817 6.68824 480.797 6.6684C480.776 6.64854 480.752 6.63335 480.725 6.62384C478.982 5.96751 477.293 5.17549 475.674 4.25507C475.645 4.23846 475.62 4.21489 475.603 4.18648C475.585 4.15806 475.575 4.12569 475.572 4.09226C475.57 4.05883 475.577 4.0254 475.59 3.99495C475.604 3.96451 475.626 3.938 475.652 3.91783C475.992 3.66692 476.332 3.40522 476.656 3.14353C476.685 3.11999 476.72 3.10501 476.758 3.10025C476.795 3.09548 476.832 3.10112 476.867 3.11655C487.461 7.87567 498.936 7.87567 509.406 3.11655C509.44 3.10021 509.478 3.09383 509.516 3.09812C509.554 3.10241 509.59 3.11721 509.619 3.14083C509.943 3.40522 510.28 3.66692 510.623 3.91783C510.65 3.93758 510.672 3.96373 510.686 3.99391C510.7 4.0241 510.707 4.05739 510.705 4.0908C510.704 4.12421 510.694 4.1567 510.677 4.18537C510.66 4.21404 510.635 4.23798 510.607 4.25507C508.993 5.18315 507.315 5.96825 505.553 6.62114C505.526 6.63096 505.502 6.64644 505.481 6.66655C505.461 6.68665 505.445 6.71093 505.434 6.73774C505.424 6.76455 505.419 6.79329 505.42 6.82203C505.422 6.85077 505.43 6.87886 505.443 6.90442C506.414 8.75789 507.526 10.5223 508.748 12.1977C508.773 12.2321 508.809 12.2578 508.849 12.2713C508.89 12.2849 508.934 12.2855 508.974 12.2733C514.787 10.5241 520.261 7.80492 525.167 4.23079C525.191 4.21405 525.211 4.1924 525.226 4.16727C525.241 4.14215 525.251 4.11413 525.254 4.0851C526.603 -9.65809 522.993 -21.5991 515.679 -32.1803C515.661 -32.2147 515.631 -32.2415 515.595 -32.2558ZM482.419 -3.15611C479.23 -3.15611 476.599 -6.04018 476.599 -9.57715C476.599 -13.1168 479.179 -15.9982 482.419 -15.9982C485.683 -15.9982 488.29 -13.0925 488.238 -9.57715C488.238 -6.03749 485.659 -3.15611 482.419 -3.15611ZM503.935 -3.15611C500.743 -3.15611 498.115 -6.04018 498.115 -9.57715C498.115 -13.1168 500.692 -15.9982 503.935 -15.9982C507.199 -15.9982 509.805 -13.0925 509.754 -9.57715C509.754 -6.03749 507.202 -3.15611 503.935 -3.15611Z" fill="white"/>
</g>
<rect x="587" y="290" width="148" height="148" rx="12" fill="#252525" fill-opacity="0.06"/>
<g clip-path="url(#clip12_127_124)">
<path d="M684.595 343.744C680.467 341.883 676.043 340.507 671.416 339.724C671.375 339.716 671.332 339.721 671.294 339.739C671.256 339.756 671.224 339.785 671.203 339.821C670.636 340.817 670.005 342.115 669.562 343.14C664.655 342.407 659.666 342.407 654.759 343.14C654.266 342.004 653.71 340.896 653.094 339.821C653.073 339.785 653.042 339.755 653.004 339.737C652.966 339.719 652.923 339.712 652.881 339.719C648.257 340.501 643.832 341.877 639.702 343.741C639.666 343.756 639.636 343.782 639.615 343.814C631.22 356.157 628.918 368.195 630.049 380.082C630.052 380.112 630.061 380.14 630.075 380.165C630.09 380.191 630.109 380.213 630.132 380.231C635.033 383.799 640.499 386.516 646.301 388.271C646.341 388.283 646.385 388.283 646.425 388.27C646.465 388.258 646.501 388.234 646.528 388.2C647.776 386.531 648.883 384.759 649.835 382.904C649.848 382.879 649.856 382.851 649.858 382.823C649.859 382.794 649.854 382.765 649.844 382.739C649.833 382.712 649.817 382.688 649.797 382.668C649.776 382.649 649.752 382.633 649.725 382.624C647.982 381.968 646.293 381.175 644.674 380.255C644.645 380.238 644.62 380.215 644.603 380.186C644.585 380.158 644.575 380.126 644.572 380.092C644.57 380.059 644.577 380.025 644.59 379.995C644.604 379.965 644.626 379.938 644.652 379.918C644.992 379.667 645.332 379.405 645.656 379.144C645.685 379.12 645.72 379.105 645.758 379.1C645.795 379.095 645.832 379.101 645.867 379.117C656.461 383.876 667.936 383.876 678.406 379.117C678.44 379.1 678.478 379.094 678.516 379.098C678.554 379.102 678.59 379.117 678.619 379.141C678.943 379.405 679.28 379.667 679.623 379.918C679.65 379.938 679.672 379.964 679.686 379.994C679.7 380.024 679.707 380.057 679.705 380.091C679.704 380.124 679.694 380.157 679.677 380.185C679.66 380.214 679.635 380.238 679.607 380.255C677.993 381.183 676.315 381.968 674.553 382.621C674.526 382.631 674.502 382.646 674.481 382.667C674.461 382.687 674.445 382.711 674.434 382.738C674.424 382.765 674.419 382.793 674.42 382.822C674.422 382.851 674.43 382.879 674.443 382.904C675.414 384.758 676.526 386.522 677.748 388.198C677.773 388.232 677.809 388.258 677.849 388.271C677.89 388.285 677.934 388.286 677.974 388.273C683.787 386.524 689.261 383.805 694.167 380.231C694.191 380.214 694.211 380.192 694.226 380.167C694.241 380.142 694.251 380.114 694.254 380.085C695.603 366.342 691.993 354.401 684.679 343.82C684.661 343.785 684.631 343.759 684.595 343.744ZM651.419 372.844C648.23 372.844 645.599 369.96 645.599 366.423C645.599 362.883 648.179 360.002 651.419 360.002C654.683 360.002 657.29 362.907 657.238 366.423C657.238 369.963 654.659 372.844 651.419 372.844ZM672.935 372.844C669.743 372.844 667.115 369.96 667.115 366.423C667.115 362.883 669.692 360.002 672.935 360.002C676.199 360.002 678.805 362.907 678.754 366.423C678.754 369.963 676.202 372.844 672.935 372.844Z" fill="white"/>
</g>
<rect x="249" y="546" width="148" height="148" rx="12" fill="#252525" fill-opacity="0.06"/>
<g clip-path="url(#clip13_127_124)">
<path d="M323 591.598C305.12 591.598 290.625 606.093 290.625 623.973C290.625 641.854 305.12 656.348 323 656.348C340.881 656.348 355.375 641.854 355.375 623.973C355.375 606.095 340.881 591.6 322.999 591.6L323 591.598L323 591.598ZM337.847 638.293C337.267 639.244 336.022 639.545 335.071 638.961C327.47 634.318 317.901 633.267 306.631 635.841C306.11 635.96 305.562 635.867 305.109 635.582C304.656 635.297 304.334 634.844 304.215 634.322C304.156 634.064 304.148 633.796 304.193 633.535C304.237 633.274 304.332 633.024 304.473 632.799C304.614 632.575 304.798 632.38 305.014 632.227C305.23 632.074 305.475 631.965 305.733 631.906C318.066 629.088 328.644 630.301 337.178 635.517C338.129 636.1 338.43 637.341 337.847 638.293ZM341.809 629.477C341.078 630.665 339.524 631.04 338.338 630.309C329.635 624.96 316.37 623.411 306.077 626.535C304.742 626.938 303.332 626.186 302.927 624.854C302.525 623.519 303.278 622.111 304.61 621.706C316.368 618.138 330.984 619.866 340.978 626.007C342.165 626.738 342.54 628.292 341.809 629.477V629.477ZM342.15 620.298C331.715 614.1 314.5 613.53 304.538 616.554C302.938 617.039 301.246 616.136 300.762 614.536C300.277 612.935 301.179 611.245 302.78 610.758C314.216 607.287 333.227 607.958 345.24 615.089C346.682 615.943 347.154 617.802 346.299 619.239C345.449 620.678 343.585 621.152 342.151 620.298H342.15Z" fill="white"/>
</g>
<rect x="80" y="754" width="148" height="148" rx="12" fill="#229ED9"/>
<path fill-rule="evenodd" clip-rule="evenodd" d="M153.033 796.509C152.586 796.985 150.645 801.384 148.721 806.285C146.139 812.859 144.991 815.362 144.344 815.828C143.626 816.346 141.864 816.565 134.652 817.035C129.803 817.35 125.384 817.786 124.83 818.003C123.23 818.631 122.327 821.018 123.014 822.806C123.143 823.143 125.276 825.1 127.753 827.155C132.336 830.956 134.227 831.945 136.966 831.972C137.573 831.977 142.551 831.139 148.028 830.108C156.339 828.544 158.08 828.311 158.552 828.703C159.238 829.272 159.287 830.295 158.654 830.819C158.399 831.031 154.125 833.228 149.157 835.701C137.465 841.522 137.63 841.342 135.21 850.943C133.635 857.198 133.614 857.948 134.984 859.317C136.87 861.201 137.552 860.963 146.371 855.333C152.092 851.682 154.555 850.302 155.339 850.309C156.101 850.316 158.758 851.802 164.335 855.34C169.718 858.755 172.579 860.363 173.276 860.365C174.462 860.368 176.747 858.324 176.751 857.257C176.752 856.892 175.751 852.345 174.526 847.155C172.464 838.42 172.337 837.642 172.814 836.688C173.098 836.121 176.326 833.012 179.987 829.778C183.648 826.545 186.84 823.65 187.081 823.345C187.322 823.041 187.525 822.097 187.531 821.247C187.54 820.084 187.328 819.488 186.674 818.835C185.566 817.728 185.495 817.715 176.928 817.042C167.438 816.297 166.677 816.176 165.789 815.279C165.376 814.863 163.533 810.638 161.693 805.892C159.422 800.032 158.061 797.002 157.454 796.453C156.209 795.327 154.119 795.353 153.033 796.509Z" fill="white"/>
<rect x="80" y="922" width="148" height="148" rx="12" fill="#252525" fill-opacity="0.06"/>
<g clip-path="url(#clip14_127_124)">
<path d="M177.595 975.744C173.467 973.883 169.043 972.507 164.416 971.724C164.375 971.716 164.332 971.721 164.294 971.739C164.256 971.756 164.224 971.785 164.203 971.821C163.636 972.817 163.005 974.115 162.562 975.14C157.655 974.407 152.666 974.407 147.759 975.14C147.266 974.004 146.71 972.896 146.094 971.821C146.073 971.785 146.042 971.755 146.004 971.737C145.966 971.719 145.923 971.712 145.881 971.719C141.257 972.501 136.832 973.877 132.702 975.741C132.666 975.756 132.636 975.782 132.615 975.814C124.22 988.157 121.918 1000.2 123.049 1012.08C123.052 1012.11 123.061 1012.14 123.075 1012.17C123.09 1012.19 123.109 1012.21 123.132 1012.23C128.033 1015.8 133.499 1018.52 139.301 1020.27C139.341 1020.28 139.385 1020.28 139.425 1020.27C139.465 1020.26 139.501 1020.23 139.528 1020.2C140.776 1018.53 141.883 1016.76 142.835 1014.9C142.848 1014.88 142.856 1014.85 142.858 1014.82C142.859 1014.79 142.854 1014.77 142.844 1014.74C142.833 1014.71 142.817 1014.69 142.797 1014.67C142.776 1014.65 142.752 1014.63 142.725 1014.62C140.982 1013.97 139.293 1013.18 137.674 1012.26C137.645 1012.24 137.62 1012.21 137.603 1012.19C137.585 1012.16 137.575 1012.13 137.572 1012.09C137.57 1012.06 137.577 1012.03 137.59 1011.99C137.604 1011.96 137.626 1011.94 137.652 1011.92C137.992 1011.67 138.332 1011.41 138.656 1011.14C138.685 1011.12 138.72 1011.11 138.758 1011.1C138.795 1011.1 138.832 1011.1 138.867 1011.12C149.461 1015.88 160.936 1015.88 171.406 1011.12C171.44 1011.1 171.478 1011.09 171.516 1011.1C171.554 1011.1 171.59 1011.12 171.619 1011.14C171.943 1011.41 172.28 1011.67 172.623 1011.92C172.65 1011.94 172.672 1011.96 172.686 1011.99C172.7 1012.02 172.707 1012.06 172.705 1012.09C172.704 1012.12 172.694 1012.16 172.677 1012.19C172.66 1012.21 172.635 1012.24 172.607 1012.26C170.993 1013.18 169.315 1013.97 167.553 1014.62C167.526 1014.63 167.502 1014.65 167.481 1014.67C167.461 1014.69 167.445 1014.71 167.434 1014.74C167.424 1014.76 167.419 1014.79 167.42 1014.82C167.422 1014.85 167.43 1014.88 167.443 1014.9C168.414 1016.76 169.526 1018.52 170.748 1020.2C170.773 1020.23 170.809 1020.26 170.849 1020.27C170.89 1020.28 170.934 1020.29 170.974 1020.27C176.787 1018.52 182.261 1015.8 187.167 1012.23C187.191 1012.21 187.211 1012.19 187.226 1012.17C187.241 1012.14 187.251 1012.11 187.254 1012.09C188.603 998.342 184.993 986.401 177.679 975.82C177.661 975.785 177.631 975.759 177.595 975.744ZM144.419 1004.84C141.23 1004.84 138.599 1001.96 138.599 998.423C138.599 994.883 141.179 992.002 144.419 992.002C147.683 992.002 150.29 994.907 150.238 998.423C150.238 1001.96 147.659 1004.84 144.419 1004.84ZM165.935 1004.84C162.743 1004.84 160.115 1001.96 160.115 998.423C160.115 994.883 162.692 992.002 165.935 992.002C169.199 992.002 171.805 994.907 171.754 998.423C171.754 1001.96 169.202 1004.84 165.935 1004.84Z" fill="white"/>
</g>
<rect x="587" y="626" width="148" height="148" rx="12" fill="#5865F2"/>
<g clip-path="url(#clip15_127_124)">
<path d="M684.595 679.744C680.467 677.883 676.043 676.507 671.416 675.724C671.375 675.716 671.332 675.721 671.294 675.739C671.256 675.756 671.224 675.785 671.203 675.821C670.636 676.817 670.005 678.115 669.562 679.14C664.655 678.407 659.666 678.407 654.759 679.14C654.266 678.004 653.71 676.896 653.094 675.821C653.073 675.785 653.042 675.755 653.004 675.737C652.966 675.719 652.923 675.712 652.881 675.719C648.257 676.501 643.832 677.877 639.702 679.741C639.666 679.756 639.636 679.782 639.615 679.814C631.22 692.157 628.918 704.195 630.049 716.082C630.052 716.112 630.061 716.14 630.075 716.165C630.09 716.191 630.109 716.213 630.132 716.231C635.033 719.799 640.499 722.516 646.301 724.271C646.341 724.283 646.385 724.283 646.425 724.27C646.465 724.258 646.501 724.234 646.528 724.2C647.776 722.531 648.883 720.759 649.835 718.904C649.848 718.879 649.856 718.851 649.858 718.823C649.859 718.794 649.854 718.765 649.844 718.739C649.833 718.712 649.817 718.688 649.797 718.668C649.776 718.649 649.752 718.633 649.725 718.624C647.982 717.968 646.293 717.175 644.674 716.255C644.645 716.238 644.62 716.215 644.603 716.186C644.585 716.158 644.575 716.126 644.572 716.092C644.57 716.059 644.577 716.025 644.59 715.995C644.604 715.965 644.626 715.938 644.652 715.918C644.992 715.667 645.332 715.405 645.656 715.144C645.685 715.12 645.72 715.105 645.758 715.1C645.795 715.095 645.832 715.101 645.867 715.117C656.461 719.876 667.936 719.876 678.406 715.117C678.44 715.1 678.478 715.094 678.516 715.098C678.554 715.102 678.59 715.117 678.619 715.141C678.943 715.405 679.28 715.667 679.623 715.918C679.65 715.938 679.672 715.964 679.686 715.994C679.7 716.024 679.707 716.057 679.705 716.091C679.704 716.124 679.694 716.157 679.677 716.185C679.66 716.214 679.635 716.238 679.607 716.255C677.993 717.183 676.315 717.968 674.553 718.621C674.526 718.631 674.502 718.646 674.481 718.667C674.461 718.687 674.445 718.711 674.434 718.738C674.424 718.765 674.419 718.793 674.42 718.822C674.422 718.851 674.43 718.879 674.443 718.904C675.414 720.758 676.526 722.522 677.748 724.198C677.773 724.232 677.809 724.258 677.849 724.271C677.89 724.285 677.934 724.286 677.974 724.273C683.787 722.524 689.261 719.805 694.167 716.231C694.191 716.214 694.211 716.192 694.226 716.167C694.241 716.142 694.251 716.114 694.254 716.085C695.603 702.342 691.993 690.401 684.679 679.82C684.661 679.785 684.631 679.759 684.595 679.744ZM651.419 708.844C648.23 708.844 645.599 705.96 645.599 702.423C645.599 698.883 648.179 696.002 651.419 696.002C654.683 696.002 657.29 698.907 657.238 702.423C657.238 705.963 654.659 708.844 651.419 708.844ZM672.935 708.844C669.743 708.844 667.115 705.96 667.115 702.423C667.115 698.883 669.692 696.002 672.935 696.002C676.199 696.002 678.805 698.907 678.754 702.423C678.754 705.963 676.202 708.844 672.935 708.844Z" fill="white"/>
</g>
<rect x="587" y="458" width="148" height="148" rx="12" fill="#252525" fill-opacity="0.06"/>
<path fill-rule="evenodd" clip-rule="evenodd" d="M660.033 500.509C659.586 500.985 657.645 505.384 655.721 510.285C653.139 516.859 651.991 519.362 651.344 519.828C650.626 520.346 648.864 520.565 641.652 521.035C636.803 521.35 632.384 521.786 631.83 522.003C630.23 522.631 629.327 525.018 630.014 526.806C630.143 527.143 632.276 529.1 634.753 531.155C639.336 534.956 641.227 535.945 643.966 535.972C644.573 535.977 649.551 535.139 655.028 534.108C663.339 532.544 665.08 532.311 665.552 532.703C666.238 533.272 666.287 534.295 665.654 534.819C665.399 535.031 661.125 537.228 656.157 539.701C644.465 545.522 644.63 545.342 642.21 554.943C640.635 561.198 640.614 561.948 641.984 563.317C643.87 565.201 644.552 564.963 653.371 559.333C659.092 555.682 661.555 554.302 662.339 554.309C663.101 554.316 665.758 555.802 671.335 559.34C676.718 562.755 679.579 564.363 680.276 564.365C681.462 564.368 683.747 562.324 683.751 561.257C683.752 560.892 682.751 556.345 681.526 551.155C679.464 542.42 679.337 541.642 679.814 540.688C680.098 540.121 683.326 537.012 686.987 533.778C690.648 530.545 693.84 527.65 694.081 527.345C694.322 527.041 694.525 526.097 694.531 525.247C694.54 524.084 694.328 523.488 693.674 522.835C692.566 521.728 692.495 521.715 683.928 521.042C674.438 520.297 673.677 520.176 672.789 519.279C672.376 518.863 670.533 514.638 668.693 509.892C666.422 504.032 665.061 501.002 664.454 500.453C663.209 499.327 661.119 499.353 660.033 500.509Z" fill="white"/>
<rect x="418" y="586" width="148" height="148" rx="12" fill="#252525" fill-opacity="0.06"/>
<g clip-path="url(#clip16_127_124)">
<path d="M515.595 639.744C511.467 637.883 507.043 636.507 502.416 635.724C502.375 635.716 502.332 635.721 502.294 635.739C502.256 635.756 502.224 635.785 502.203 635.821C501.636 636.817 501.005 638.115 500.562 639.14C495.655 638.407 490.666 638.407 485.759 639.14C485.266 638.004 484.71 636.896 484.094 635.821C484.073 635.785 484.042 635.755 484.004 635.737C483.966 635.719 483.923 635.712 483.881 635.719C479.257 636.501 474.832 637.877 470.702 639.741C470.666 639.756 470.636 639.782 470.615 639.814C462.22 652.157 459.918 664.195 461.049 676.082C461.052 676.112 461.061 676.14 461.075 676.165C461.09 676.191 461.109 676.213 461.132 676.231C466.033 679.799 471.499 682.516 477.301 684.271C477.341 684.283 477.385 684.283 477.425 684.27C477.465 684.258 477.501 684.234 477.528 684.2C478.776 682.531 479.883 680.759 480.835 678.904C480.848 678.879 480.856 678.851 480.858 678.823C480.859 678.794 480.854 678.765 480.844 678.739C480.833 678.712 480.817 678.688 480.797 678.668C480.776 678.649 480.752 678.633 480.725 678.624C478.982 677.968 477.293 677.175 475.674 676.255C475.645 676.238 475.62 676.215 475.603 676.186C475.585 676.158 475.575 676.126 475.572 676.092C475.57 676.059 475.577 676.025 475.59 675.995C475.604 675.965 475.626 675.938 475.652 675.918C475.992 675.667 476.332 675.405 476.656 675.144C476.685 675.12 476.72 675.105 476.758 675.1C476.795 675.095 476.832 675.101 476.867 675.117C487.461 679.876 498.936 679.876 509.406 675.117C509.44 675.1 509.478 675.094 509.516 675.098C509.554 675.102 509.59 675.117 509.619 675.141C509.943 675.405 510.28 675.667 510.623 675.918C510.65 675.938 510.672 675.964 510.686 675.994C510.7 676.024 510.707 676.057 510.705 676.091C510.704 676.124 510.694 676.157 510.677 676.185C510.66 676.214 510.635 676.238 510.607 676.255C508.993 677.183 507.315 677.968 505.553 678.621C505.526 678.631 505.502 678.646 505.481 678.667C505.461 678.687 505.445 678.711 505.434 678.738C505.424 678.765 505.419 678.793 505.42 678.822C505.422 678.851 505.43 678.879 505.443 678.904C506.414 680.758 507.526 682.522 508.748 684.198C508.773 684.232 508.809 684.258 508.849 684.271C508.89 684.285 508.934 684.286 508.974 684.273C514.787 682.524 520.261 679.805 525.167 676.231C525.191 676.214 525.211 676.192 525.226 676.167C525.241 676.142 525.251 676.114 525.254 676.085C526.603 662.342 522.993 650.401 515.679 639.82C515.661 639.785 515.631 639.759 515.595 639.744ZM482.419 668.844C479.23 668.844 476.599 665.96 476.599 662.423C476.599 658.883 479.179 656.002 482.419 656.002C485.683 656.002 488.29 658.907 488.238 662.423C488.238 665.963 485.659 668.844 482.419 668.844ZM503.935 668.844C500.743 668.844 498.115 665.96 498.115 662.423C498.115 658.883 500.692 656.002 503.935 656.002C507.199 656.002 509.805 658.907 509.754 662.423C509.754 665.963 507.202 668.844 503.935 668.844Z" fill="white"/>
</g>
<rect x="418" y="82" width="148" height="148" rx="12" fill="#252525" fill-opacity="0.06"/>
<g clip-path="url(#clip17_127_124)">
<path d="M492 127.598C474.12 127.598 459.625 142.093 459.625 159.973C459.625 177.854 474.12 192.348 492 192.348C509.881 192.348 524.375 177.854 524.375 159.973C524.375 142.095 509.881 127.6 491.999 127.6L492 127.598L492 127.598ZM506.847 174.293C506.267 175.244 505.022 175.545 504.071 174.961C496.47 170.318 486.901 169.267 475.631 171.841C475.11 171.96 474.562 171.867 474.109 171.582C473.656 171.297 473.334 170.844 473.215 170.322C473.156 170.064 473.148 169.796 473.193 169.535C473.237 169.274 473.332 169.024 473.473 168.799C473.614 168.575 473.798 168.38 474.014 168.227C474.23 168.074 474.475 167.965 474.733 167.906C487.066 165.088 497.644 166.301 506.178 171.517C507.129 172.1 507.43 173.341 506.847 174.293ZM510.809 165.477C510.078 166.665 508.524 167.04 507.338 166.309C498.635 160.96 485.37 159.411 475.077 162.535C473.742 162.938 472.332 162.186 471.927 160.854C471.525 159.519 472.278 158.111 473.61 157.706C485.368 154.138 499.984 155.866 509.978 162.007C511.165 162.738 511.54 164.292 510.809 165.477V165.477ZM511.15 156.298C500.715 150.1 483.5 149.53 473.538 152.554C471.938 153.039 470.246 152.136 469.762 150.536C469.277 148.935 470.179 147.245 471.78 146.758C483.216 143.287 502.227 143.958 514.24 151.089C515.682 151.943 516.154 153.802 515.299 155.239C514.449 156.678 512.585 157.152 511.151 156.298H511.15Z" fill="white"/>
</g>
<rect x="418" y="250" width="148" height="148" rx="12" fill="#252525" fill-opacity="0.06"/>
<g clip-path="url(#clip18_127_124)">
<path d="M515.595 303.744C511.467 301.883 507.043 300.507 502.416 299.724C502.375 299.716 502.332 299.721 502.294 299.739C502.256 299.756 502.224 299.785 502.203 299.821C501.636 300.817 501.005 302.115 500.562 303.14C495.655 302.407 490.666 302.407 485.759 303.14C485.266 302.004 484.71 300.896 484.094 299.821C484.073 299.785 484.042 299.755 484.004 299.737C483.966 299.719 483.923 299.712 483.881 299.719C479.257 300.501 474.832 301.877 470.702 303.741C470.666 303.756 470.636 303.782 470.615 303.814C462.22 316.157 459.918 328.195 461.049 340.082C461.052 340.112 461.061 340.14 461.075 340.165C461.09 340.191 461.109 340.213 461.132 340.231C466.033 343.799 471.499 346.516 477.301 348.271C477.341 348.283 477.385 348.283 477.425 348.27C477.465 348.258 477.501 348.234 477.528 348.2C478.776 346.531 479.883 344.759 480.835 342.904C480.848 342.879 480.856 342.851 480.858 342.823C480.859 342.794 480.854 342.765 480.844 342.739C480.833 342.712 480.817 342.688 480.797 342.668C480.776 342.649 480.752 342.633 480.725 342.624C478.982 341.968 477.293 341.175 475.674 340.255C475.645 340.238 475.62 340.215 475.603 340.186C475.585 340.158 475.575 340.126 475.572 340.092C475.57 340.059 475.577 340.025 475.59 339.995C475.604 339.965 475.626 339.938 475.652 339.918C475.992 339.667 476.332 339.405 476.656 339.144C476.685 339.12 476.72 339.105 476.758 339.1C476.795 339.095 476.832 339.101 476.867 339.117C487.461 343.876 498.936 343.876 509.406 339.117C509.44 339.1 509.478 339.094 509.516 339.098C509.554 339.102 509.59 339.117 509.619 339.141C509.943 339.405 510.28 339.667 510.623 339.918C510.65 339.938 510.672 339.964 510.686 339.994C510.7 340.024 510.707 340.057 510.705 340.091C510.704 340.124 510.694 340.157 510.677 340.185C510.66 340.214 510.635 340.238 510.607 340.255C508.993 341.183 507.315 341.968 505.553 342.621C505.526 342.631 505.502 342.646 505.481 342.667C505.461 342.687 505.445 342.711 505.434 342.738C505.424 342.765 505.419 342.793 505.42 342.822C505.422 342.851 505.43 342.879 505.443 342.904C506.414 344.758 507.526 346.522 508.748 348.198C508.773 348.232 508.809 348.258 508.849 348.271C508.89 348.285 508.934 348.286 508.974 348.273C514.787 346.524 520.261 343.805 525.167 340.231C525.191 340.214 525.211 340.192 525.226 340.167C525.241 340.142 525.251 340.114 525.254 340.085C526.603 326.342 522.993 314.401 515.679 303.82C515.661 303.785 515.631 303.759 515.595 303.744ZM482.419 332.844C479.23 332.844 476.599 329.96 476.599 326.423C476.599 322.883 479.179 320.002 482.419 320.002C485.683 320.002 488.29 322.907 488.238 326.423C488.238 329.963 485.659 332.844 482.419 332.844ZM503.935 332.844C500.743 332.844 498.115 329.96 498.115 326.423C498.115 322.883 500.692 320.002 503.935 320.002C507.199 320.002 509.805 322.907 509.754 326.423C509.754 329.963 507.202 332.844 503.935 332.844Z" fill="white"/>
</g>
<rect x="418" y="922" width="148" height="148" rx="12" fill="#5865F2"/>
<g clip-path="url(#clip19_127_124)">
<path d="M515.595 975.744C511.467 973.883 507.043 972.507 502.416 971.724C502.375 971.716 502.332 971.721 502.294 971.739C502.256 971.756 502.224 971.785 502.203 971.821C501.636 972.817 501.005 974.115 500.562 975.14C495.655 974.407 490.666 974.407 485.759 975.14C485.266 974.004 484.71 972.896 484.094 971.821C484.073 971.785 484.042 971.755 484.004 971.737C483.966 971.719 483.923 971.712 483.881 971.719C479.257 972.501 474.832 973.877 470.702 975.741C470.666 975.756 470.636 975.782 470.615 975.814C462.22 988.157 459.918 1000.2 461.049 1012.08C461.052 1012.11 461.061 1012.14 461.075 1012.17C461.09 1012.19 461.109 1012.21 461.132 1012.23C466.033 1015.8 471.499 1018.52 477.301 1020.27C477.341 1020.28 477.385 1020.28 477.425 1020.27C477.465 1020.26 477.501 1020.23 477.528 1020.2C478.776 1018.53 479.883 1016.76 480.835 1014.9C480.848 1014.88 480.856 1014.85 480.858 1014.82C480.859 1014.79 480.854 1014.77 480.844 1014.74C480.833 1014.71 480.817 1014.69 480.797 1014.67C480.776 1014.65 480.752 1014.63 480.725 1014.62C478.982 1013.97 477.293 1013.18 475.674 1012.26C475.645 1012.24 475.62 1012.21 475.603 1012.19C475.585 1012.16 475.575 1012.13 475.572 1012.09C475.57 1012.06 475.577 1012.03 475.59 1011.99C475.604 1011.96 475.626 1011.94 475.652 1011.92C475.992 1011.67 476.332 1011.41 476.656 1011.14C476.685 1011.12 476.72 1011.11 476.758 1011.1C476.795 1011.1 476.832 1011.1 476.867 1011.12C487.461 1015.88 498.936 1015.88 509.406 1011.12C509.44 1011.1 509.478 1011.09 509.516 1011.1C509.554 1011.1 509.59 1011.12 509.619 1011.14C509.943 1011.41 510.28 1011.67 510.623 1011.92C510.65 1011.94 510.672 1011.96 510.686 1011.99C510.7 1012.02 510.707 1012.06 510.705 1012.09C510.704 1012.12 510.694 1012.16 510.677 1012.19C510.66 1012.21 510.635 1012.24 510.607 1012.26C508.993 1013.18 507.315 1013.97 505.553 1014.62C505.526 1014.63 505.502 1014.65 505.481 1014.67C505.461 1014.69 505.445 1014.71 505.434 1014.74C505.424 1014.76 505.419 1014.79 505.42 1014.82C505.422 1014.85 505.43 1014.88 505.443 1014.9C506.414 1016.76 507.526 1018.52 508.748 1020.2C508.773 1020.23 508.809 1020.26 508.849 1020.27C508.89 1020.28 508.934 1020.29 508.974 1020.27C514.787 1018.52 520.261 1015.8 525.167 1012.23C525.191 1012.21 525.211 1012.19 525.226 1012.17C525.241 1012.14 525.251 1012.11 525.254 1012.09C526.603 998.342 522.993 986.401 515.679 975.82C515.661 975.785 515.631 975.759 515.595 975.744ZM482.419 1004.84C479.23 1004.84 476.599 1001.96 476.599 998.423C476.599 994.883 479.179 992.002 482.419 992.002C485.683 992.002 488.29 994.907 488.238 998.423C488.238 1001.96 485.659 1004.84 482.419 1004.84ZM503.935 1004.84C500.743 1004.84 498.115 1001.96 498.115 998.423C498.115 994.883 500.692 992.002 503.935 992.002C507.199 992.002 509.805 994.907 509.754 998.423C509.754 1001.96 507.202 1004.84 503.935 1004.84Z" fill="white"/>
</g>
<rect x="418" y="418" width="148" height="148" rx="12" fill="#1ED760"/>
<g clip-path="url(#clip20_127_124)">
<path d="M492 463.598C474.12 463.598 459.625 478.093 459.625 495.973C459.625 513.854 474.12 528.348 492 528.348C509.881 528.348 524.375 513.854 524.375 495.973C524.375 478.095 509.881 463.6 491.999 463.6L492 463.598L492 463.598ZM506.847 510.293C506.267 511.244 505.022 511.545 504.071 510.961C496.47 506.318 486.901 505.267 475.631 507.841C475.11 507.96 474.562 507.867 474.109 507.582C473.656 507.297 473.334 506.844 473.215 506.322C473.156 506.064 473.148 505.796 473.193 505.535C473.237 505.274 473.332 505.024 473.473 504.799C473.614 504.575 473.798 504.38 474.014 504.227C474.23 504.074 474.475 503.965 474.733 503.906C487.066 501.088 497.644 502.301 506.178 507.517C507.129 508.1 507.43 509.341 506.847 510.293ZM510.809 501.477C510.078 502.665 508.524 503.04 507.338 502.309C498.635 496.96 485.37 495.411 475.077 498.535C473.742 498.938 472.332 498.186 471.927 496.854C471.525 495.519 472.278 494.111 473.61 493.706C485.368 490.138 499.984 491.866 509.978 498.007C511.165 498.738 511.54 500.292 510.809 501.477V501.477ZM511.15 492.298C500.715 486.1 483.5 485.53 473.538 488.554C471.938 489.039 470.246 488.136 469.762 486.536C469.277 484.935 470.179 483.245 471.78 482.758C483.216 479.287 502.227 479.958 514.24 487.089C515.682 487.943 516.154 489.802 515.299 491.239C514.449 492.678 512.585 493.152 511.151 492.298H511.15Z" fill="white"/>
</g>
<rect x="587" y="962" width="148" height="148" rx="12" fill="#1ED760"/>
<g clip-path="url(#clip21_127_124)">
<path d="M661 1007.6C643.12 1007.6 628.625 1022.09 628.625 1039.97C628.625 1057.85 643.12 1072.35 661 1072.35C678.881 1072.35 693.375 1057.85 693.375 1039.97C693.375 1022.09 678.881 1007.6 660.999 1007.6L661 1007.6L661 1007.6ZM675.847 1054.29C675.267 1055.24 674.022 1055.55 673.071 1054.96C665.47 1050.32 655.901 1049.27 644.631 1051.84C644.11 1051.96 643.562 1051.87 643.109 1051.58C642.656 1051.3 642.334 1050.84 642.215 1050.32C642.156 1050.06 642.148 1049.8 642.193 1049.53C642.237 1049.27 642.332 1049.02 642.473 1048.8C642.614 1048.57 642.798 1048.38 643.014 1048.23C643.23 1048.07 643.475 1047.96 643.733 1047.91C656.066 1045.09 666.644 1046.3 675.178 1051.52C676.129 1052.1 676.43 1053.34 675.847 1054.29ZM679.809 1045.48C679.078 1046.66 677.524 1047.04 676.338 1046.31C667.635 1040.96 654.37 1039.41 644.077 1042.54C642.742 1042.94 641.332 1042.19 640.927 1040.85C640.525 1039.52 641.278 1038.11 642.61 1037.71C654.368 1034.14 668.984 1035.87 678.978 1042.01C680.165 1042.74 680.54 1044.29 679.809 1045.48V1045.48ZM680.15 1036.3C669.715 1030.1 652.5 1029.53 642.538 1032.55C640.938 1033.04 639.246 1032.14 638.762 1030.54C638.277 1028.94 639.179 1027.24 640.78 1026.76C652.216 1023.29 671.227 1023.96 683.24 1031.09C684.682 1031.94 685.154 1033.8 684.299 1035.24C683.449 1036.68 681.585 1037.15 680.151 1036.3H680.15Z" fill="white"/>
</g>
<rect width="813" height="300" fill="url(#paint0_linear_127_124)" fill-opacity="0.86"/>
<rect x="812" y="1025" width="813" height="300" transform="rotate(-180 812 1025)" fill="url(#paint1_linear_127_124)" fill-opacity="0.86"/>
<defs>
<linearGradient id="paint0_linear_127_124" x1="406.5" y1="0" x2="406.5" y2="300" gradientUnits="userSpaceOnUse">
<stop stop-color="#F3F5F9" stop-opacity="0.9"/>
<stop offset="1" stop-color="#F3F5F9" stop-opacity="0"/>
</linearGradient>
<linearGradient id="paint1_linear_127_124" x1="1218.5" y1="1025" x2="1218.5" y2="1325" gradientUnits="userSpaceOnUse">
<stop stop-color="#F3F5F9" stop-opacity="0.9"/>
<stop offset="1" stop-color="#F3F5F9" stop-opacity="0"/>
</linearGradient>
<clipPath id="clip0_127_124">
<rect width="64.75" height="64.75" fill="white" transform="translate(122.781 -44.375)"/>
</clipPath>
<clipPath id="clip1_127_124">
<rect width="64.75" height="64.75" fill="white" transform="translate(291.781 83.625)"/>
</clipPath>
<clipPath id="clip2_127_124">
<rect width="64.75" height="64.75" fill="white" transform="translate(121.625 127.598)"/>
</clipPath>
<clipPath id="clip3_127_124">
<rect width="64.75" height="64.75" fill="white" transform="translate(122.781 291.625)"/>
</clipPath>
<clipPath id="clip4_127_124">
<rect width="64.75" height="64.75" fill="white" transform="translate(291.781 419.625)"/>
</clipPath>
<clipPath id="clip5_127_124">
<rect width="64.75" height="64.75" fill="white" transform="translate(628.625 -0.401855)"/>
</clipPath>
<clipPath id="clip6_127_124">
<rect width="64.75" height="64.75" fill="white" transform="translate(291.781 755.625)"/>
</clipPath>
<clipPath id="clip7_127_124">
<rect width="64.75" height="64.75" fill="white" transform="translate(121.625 463.598)"/>
</clipPath>
<clipPath id="clip8_127_124">
<rect width="64.75" height="64.75" fill="white" transform="translate(122.781 627.625)"/>
</clipPath>
<clipPath id="clip9_127_124">
<rect width="64.75" height="64.75" fill="white" transform="translate(629.781 163.625)"/>
</clipPath>
<clipPath id="clip10_127_124">
<rect width="64.75" height="64.75" fill="white" transform="translate(459.625 799.598)"/>
</clipPath>
<clipPath id="clip11_127_124">
<rect width="64.75" height="64.75" fill="white" transform="translate(460.781 -44.375)"/>
</clipPath>
<clipPath id="clip12_127_124">
<rect width="64.75" height="64.75" fill="white" transform="translate(629.781 331.625)"/>
</clipPath>
<clipPath id="clip13_127_124">
<rect width="64.75" height="64.75" fill="white" transform="translate(290.625 591.598)"/>
</clipPath>
<clipPath id="clip14_127_124">
<rect width="64.75" height="64.75" fill="white" transform="translate(122.781 963.625)"/>
</clipPath>
<clipPath id="clip15_127_124">
<rect width="64.75" height="64.75" fill="white" transform="translate(629.781 667.625)"/>
</clipPath>
<clipPath id="clip16_127_124">
<rect width="64.75" height="64.75" fill="white" transform="translate(460.781 627.625)"/>
</clipPath>
<clipPath id="clip17_127_124">
<rect width="64.75" height="64.75" fill="white" transform="translate(459.625 127.598)"/>
</clipPath>
<clipPath id="clip18_127_124">
<rect width="64.75" height="64.75" fill="white" transform="translate(460.781 291.625)"/>
</clipPath>
<clipPath id="clip19_127_124">
<rect width="64.75" height="64.75" fill="white" transform="translate(460.781 963.625)"/>
</clipPath>
<clipPath id="clip20_127_124">
<rect width="64.75" height="64.75" fill="white" transform="translate(459.625 463.598)"/>
</clipPath>
<clipPath id="clip21_127_124">
<rect width="64.75" height="64.75" fill="white" transform="translate(628.625 1007.6)"/>
</clipPath>
</defs>
</svg>
