<svg width="64" height="64" viewBox="0 0 64 64" fill="none" xmlns="http://www.w3.org/2000/svg">
<rect width="64" height="64" rx="12" fill="#F8F8F8"/>
<path fill-rule="evenodd" clip-rule="evenodd" d="M32 32C29.5147 32 27.5 34.0147 27.5 36.5V38.2143V42.5C27.5 43.3284 26.8284 44 26 44C25.1716 44 24.5 43.3284 24.5 42.5V38.2143V36.5L24.5002 36.4468C24.2552 36.4819 24.0047 36.5 23.75 36.5C23.5849 36.5 23.4216 36.4924 23.2604 36.4775C23.1758 36.4923 23.0888 36.5 23 36.5H22.3571C21.0553 36.5 20 37.5553 20 38.8571V41C20 41.8284 19.3284 42.5 18.5 42.5C17.6716 42.5 17 41.8284 17 41V38.8571C17 36.9506 17.9959 35.2767 19.4959 34.3273C18.8694 33.4626 18.5 32.3994 18.5 31.25C18.5 28.3505 20.8505 26 23.75 26C24.5638 26 25.3344 26.1852 26.0218 26.5157C26.0074 26.3457 26 26.1737 26 26C26 22.6863 28.6863 20 32 20C35.3137 20 38 22.6863 38 26C38 26.1737 37.9926 26.3457 37.9782 26.5157C38.6656 26.1852 39.4362 26 40.25 26C43.1495 26 45.5 28.3505 45.5 31.25C45.5 32.3994 45.1306 33.4626 44.5041 34.3273C46.0041 35.2767 47 36.9506 47 38.8571V41C47 41.8284 46.3284 42.5 45.5 42.5C44.6716 42.5 44 41.8284 44 41V38.8571C44 37.5553 42.9447 36.5 41.6429 36.5H41C40.9112 36.5 40.8242 36.4923 40.7396 36.4775C40.5784 36.4924 40.4151 36.5 40.25 36.5C39.9953 36.5 39.7448 36.4819 39.4998 36.4468L39.5 36.5V38.2143V42.5C39.5 43.3284 38.8284 44 38 44C37.1716 44 36.5 43.3284 36.5 42.5V38.2143V36.5C36.5 34.0147 34.4853 32 32 32ZM32 29C30.3431 29 29 27.6569 29 26C29 24.3431 30.3431 23 32 23C33.6569 23 35 24.3431 35 26C35 27.6569 33.6569 29 32 29ZM23.75 29C22.5074 29 21.5 30.0074 21.5 31.25C21.5 32.4926 22.5074 33.5 23.75 33.5C24.9926 33.5 26 32.4926 26 31.25C26 30.0074 24.9926 29 23.75 29ZM40.25 29C39.0074 29 38 30.0074 38 31.25C38 32.4926 39.0074 33.5 40.25 33.5C41.4926 33.5 42.5 32.4926 42.5 31.25C42.5 30.0074 41.4926 29 40.25 29Z" fill="#252525"/>
</svg>
