<svg width="393" height="162" viewBox="0 0 393 162" fill="none" xmlns="http://www.w3.org/2000/svg">
<path d="M0 8C0 3.58172 3.58172 0 8 0H385C389.418 0 393 3.58172 393 8V154C393 158.418 389.418 162 385 162H8C3.58172 162 0 158.418 0 154V8Z" fill="#19212E"/>
<path d="M19.7813 162V161.5H8C3.85787 161.5 0.5 158.142 0.5 154V141.833H0V117.5H0.5V93.1667H0V68.8333H0.5V44.5H0V20.1667H0.5V8C0.5 3.85786 3.85786 0.5 8 0.5H19.7812V0H43.3438V0.5H66.9062V0H90.4688V0.5H114.031V0H137.594V0.5H161.156V0H184.719V0.5H208.281V0H231.844V0.5H255.406V0H278.969V0.5H302.531V0H326.094V0.5H349.656V0H373.219V0.5H385C389.142 0.5 392.5 3.85786 392.5 8V20.1667H393V44.5H392.5V68.8333H393V93.1667H392.5V117.5H393V141.833H392.5V154C392.5 158.142 389.142 161.5 385 161.5H373.219V162H349.656V161.5H326.094V162H302.531V161.5H278.969V162H255.406V161.5H231.844V162H208.281V161.5H184.719V162H161.156V161.5H137.594V162H114.031V161.5H90.4688V162H66.9062V161.5H43.3438V162H19.7813Z" stroke="white" stroke-opacity="0.2" stroke-dasharray="24 24"/>
</svg>
