<svg width="16" height="16" viewBox="0 0 16 16" fill="none" xmlns="http://www.w3.org/2000/svg">
<path fill-rule="evenodd" clip-rule="evenodd" d="M3.42924 4.31216C3.11965 4.62738 3.12421 5.1339 3.43943 5.44349C3.75465 5.75308 4.26117 5.74852 4.57076 5.4333L7.2 2.75625V10.4C7.2 10.8418 7.55817 11.2 8 11.2C8.44183 11.2 8.8 10.8418 8.8 10.4V2.75625L11.4292 5.43329C11.7388 5.74852 12.2453 5.75308 12.5606 5.44349C12.8758 5.13389 12.8804 4.62738 12.5708 4.31216L8.57076 0.239434C8.42034 0.0862761 8.21467 0 8 0C7.78533 0 7.57966 0.0862761 7.42924 0.239434L3.42924 4.31216ZM1.6 8C1.6 7.55817 1.24183 7.2 0.8 7.2C0.358172 7.2 0 7.55817 0 8V15.2C0 15.6418 0.358172 16 0.8 16H15.2C15.6418 16 16 15.6418 16 15.2V8C16 7.55817 15.6418 7.2 15.2 7.2C14.7582 7.2 14.4 7.55817 14.4 8V14.4H1.6V8Z" fill="#252525"/>
</svg>
