<svg width="36" height="36" viewBox="0 0 36 36" fill="none" xmlns="http://www.w3.org/2000/svg">
<rect width="36" height="36" rx="18" fill="white" fill-opacity="0.2"/>
<path fill-rule="evenodd" clip-rule="evenodd" d="M21.9909 16.0369C22.2667 16.3078 22.2707 16.751 21.9998 17.0269L18.4998 20.5905C18.3682 20.7245 18.1883 20.8 18.0004 20.8C17.8126 20.8 17.6326 20.7245 17.501 20.5905L14.001 17.0269C13.7301 16.751 13.7341 16.3078 14.0099 16.0369C14.2857 15.7661 14.7289 15.77 14.9998 16.0459L17.3004 18.3883L17.3004 11.7C17.3004 11.3134 17.6138 11 18.0004 11C18.387 11 18.7004 11.3134 18.7004 11.7L18.7004 18.3883L21.001 16.0459C21.2719 15.77 21.7151 15.7661 21.9909 16.0369ZM11.7 17.3C12.0866 17.3 12.4 17.6134 12.4 18V23.6H23.6V18C23.6 17.6134 23.9134 17.3 24.3 17.3C24.6866 17.3 25 17.6134 25 18V24.3C25 24.6866 24.6866 25 24.3 25H11.7C11.3134 25 11 24.6866 11 24.3V18C11 17.6134 11.3134 17.3 11.7 17.3Z" fill="white"/>
</svg>
