<svg width="12" height="12" viewBox="0 0 12 12" fill="none" xmlns="http://www.w3.org/2000/svg">
<path fill-rule="evenodd" clip-rule="evenodd" d="M5.33599 0.163786C5.2571 0.252018 4.91478 1.06729 4.57531 1.97559C4.11997 3.19397 3.91752 3.65778 3.80335 3.74428C3.67674 3.84017 3.36596 3.88082 2.09377 3.96779C1.2386 4.02623 0.459013 4.107 0.361406 4.14732C0.0791206 4.26374 -0.0801099 4.70609 0.0409784 5.03742C0.0637618 5.09993 0.439973 5.46259 0.876919 5.84343C1.68525 6.54788 2.01888 6.73114 2.50197 6.73607C2.60903 6.73714 3.48711 6.58174 4.45315 6.39068C5.91915 6.10073 6.22619 6.05768 6.30945 6.13032C6.43035 6.23568 6.43905 6.42527 6.32741 6.52249C6.28242 6.56175 5.5286 6.96891 4.6523 7.42726C2.58999 8.50603 2.61906 8.47264 2.19233 10.2521C1.91436 11.4111 1.91074 11.5501 2.15234 11.8038C2.48496 12.1531 2.60528 12.1089 4.16084 11.0657C5.17003 10.3889 5.60438 10.1332 5.74266 10.1345C5.87702 10.1358 6.34569 10.4112 7.3295 11.0669C8.27892 11.6997 8.78358 11.9977 8.90657 11.9981C9.11568 11.9987 9.51874 11.62 9.51944 11.4222C9.51969 11.3544 9.34307 10.5119 9.12698 9.55001C8.76327 7.93113 8.7408 7.78692 8.82508 7.61006C8.87516 7.50503 9.44442 6.9288 10.0902 6.3295C10.7359 5.73028 11.299 5.19376 11.3415 5.13738C11.3841 5.08094 11.4198 4.90594 11.4209 4.74854C11.4224 4.53296 11.3851 4.42254 11.2697 4.30139C11.0744 4.09627 11.0617 4.09387 9.55072 3.96919C7.87669 3.83104 7.74252 3.80872 7.58583 3.64252C7.51298 3.56528 7.18792 2.78233 6.86343 1.90269C6.46285 0.816657 6.22289 0.255216 6.11576 0.15339C5.89618 -0.0552592 5.52759 -0.0503274 5.33599 0.163786Z" fill="#252525" fill-opacity="0.56"/>
</svg>
