<svg width="33" height="32" viewBox="0 0 33 32" fill="none" xmlns="http://www.w3.org/2000/svg">
<path fill-rule="evenodd" clip-rule="evenodd" d="M16.5 26C10.9772 26 6.5 21.5228 6.5 16C6.5 10.4772 10.9772 6 16.5 6C22.0228 6 26.5 10.4772 26.5 16C26.5 21.5228 22.0228 26 16.5 26ZM16.5 8C12.0817 8 8.5 11.5817 8.5 16C8.5 20.4183 12.0817 24 16.5 24C20.9183 24 24.5 20.4183 24.5 16C24.5 11.5817 20.9183 8 16.5 8ZM20.2071 12.2929C20.5976 12.6834 20.5976 13.3166 20.2071 13.7071L17.9142 16L20.2071 18.2929C20.5976 18.6834 20.5976 19.3166 20.2071 19.7071C19.8166 20.0976 19.1834 20.0976 18.7929 19.7071L16.5 17.4142L14.2071 19.7071C13.8166 20.0976 13.1834 20.0976 12.7929 19.7071C12.4024 19.3166 12.4024 18.6834 12.7929 18.2929L15.0858 16L12.7929 13.7071C12.4024 13.3166 12.4024 12.6834 12.7929 12.2929C13.1834 11.9024 13.8166 11.9024 14.2071 12.2929L16.5 14.5858L18.7929 12.2929C19.1834 11.9024 19.8166 11.9024 20.2071 12.2929Z" fill="#F53535"/>
</svg>
