<svg width="38" height="38" viewBox="0 0 38 38" fill="none" xmlns="http://www.w3.org/2000/svg">
<rect width="38" height="38" rx="8" fill="white"/>
<path fill-rule="evenodd" clip-rule="evenodd" d="M24.8047 14.1381C25.0651 13.8777 25.0651 13.4556 24.8047 13.1953C24.5444 12.9349 24.1223 12.9349 23.8619 13.1953L19 18.0572L14.1381 13.1953C13.8777 12.9349 13.4556 12.9349 13.1953 13.1953C12.9349 13.4556 12.9349 13.8777 13.1953 14.1381L18.0572 19L13.1953 23.8619C12.9349 24.1223 12.9349 24.5444 13.1953 24.8047C13.4556 25.0651 13.8777 25.0651 14.1381 24.8047L19 19.9428L23.8619 24.8047C24.1223 25.0651 24.5444 25.0651 24.8047 24.8047C25.0651 24.5444 25.0651 24.1223 24.8047 23.8619L19.9428 19L24.8047 14.1381Z" fill="#252525" fill-opacity="0.56"/>
</svg>
