<svg width="16" height="16" viewBox="0 0 16 16" fill="none" xmlns="http://www.w3.org/2000/svg">
<path fill-rule="evenodd" clip-rule="evenodd" d="M9.6 0H3.2C1.43269 0 0 1.43269 0 3.2V9.6C0 11.3673 1.43269 12.8 3.2 12.8C3.2 14.5673 4.63269 16 6.4 16H9.2H12.8C14.5673 16 16 14.5673 16 12.8V6.4C16 4.63269 14.5673 3.2 12.8 3.2C12.8 1.43269 11.3673 0 9.6 0ZM12.8 4.8V9.6C12.8 11.3673 11.3673 12.8 9.6 12.8H4.8C4.8 13.6837 5.51634 14.4 6.4 14.4H9.2H12.8C13.6837 14.4 14.4 13.6837 14.4 12.8V6.4C14.4 5.51634 13.6837 4.8 12.8 4.8ZM1.6 3.2C1.6 2.31634 2.31634 1.6 3.2 1.6H9.6C10.4837 1.6 11.2 2.31634 11.2 3.2V9.6C11.2 10.4837 10.4837 11.2 9.6 11.2H3.2C2.31634 11.2 1.6 10.4837 1.6 9.6V3.2Z" fill="white"/>
</svg>
