<svg width="42" height="42" viewBox="0 0 42 42" fill="none" xmlns="http://www.w3.org/2000/svg">
<rect width="42" height="42" rx="7" fill="white"/>
<path fill-rule="evenodd" clip-rule="evenodd" d="M11 19L11 27C11 29.2091 12.7909 31 15 31L23 31C25.2091 31 27 29.2091 27 27C29.2091 27 31 25.2091 31 23L31 19.5L31 15C31 12.7909 29.2091 11 27 11L19 11C16.7909 11 15 12.7909 15 15C12.7909 15 11 16.7909 11 19ZM17 15L23 15C25.2091 15 27 16.7909 27 19L27 25C28.1046 25 29 24.1046 29 23L29 19.5L29 15C29 13.8954 28.1046 13 27 13L19 13C17.8954 13 17 13.8954 17 15ZM15 29C13.8954 29 13 28.1046 13 27L13 19C13 17.8954 13.8954 17 15 17L23 17C24.1046 17 25 17.8954 25 19L25 27C25 28.1046 24.1046 29 23 29L15 29Z" fill="#0077FF"/>
<path d="M13 27C13 28.1046 13.8954 29 15 29L23 29C24.1046 29 25 28.1046 25 27L25 19C25 17.8954 24.1046 17 23 17L15 17C13.8954 17 13 17.8954 13 19L13 27Z" fill="#0077FF"/>
</svg>
