<svg width="13" height="14" viewBox="0 0 13 14" fill="none" xmlns="http://www.w3.org/2000/svg">
<path fill-rule="evenodd" clip-rule="evenodd" d="M7.36258 1.30535C7.36258 0.860566 7.00202 0.5 6.55723 0.5C6.11245 0.5 5.75189 0.860565 5.75189 1.30535L5.75189 6.13742L0.805347 6.13742C0.360566 6.13742 0 6.49798 0 6.94276C0 7.38755 0.360566 7.74811 0.805346 7.74811H5.75189L5.75189 12.6947C5.75189 13.1394 6.11245 13.5 6.55723 13.5C7.00201 13.5 7.36258 13.1394 7.36258 12.6947L7.36258 7.74811H12.1947C12.6394 7.74811 13 7.38755 13 6.94277C13 6.49799 12.6394 6.13742 12.1947 6.13742L7.36258 6.13742L7.36258 1.30535Z" fill="white"/>
</svg>
