<svg width="17" height="16" viewBox="0 0 17 16" fill="none" xmlns="http://www.w3.org/2000/svg">
<path d="M7.36416 0.70476C7.65453 -0.234918 8.98463 -0.234921 9.275 0.704757L10.4625 4.54751C10.592 4.96651 10.9793 5.25226 11.4179 5.25226H15.3633C16.3198 5.25226 16.7305 6.46624 15.9704 7.04692L12.6935 9.55017C12.3605 9.80459 12.2215 10.2397 12.3452 10.6401L13.5762 14.6238C13.8637 15.554 12.7874 16.3047 12.0137 15.7137L8.92664 13.3553C8.56824 13.0815 8.07092 13.0815 7.71252 13.3553L4.62543 15.7137C3.85175 16.3047 2.7755 15.554 3.06295 14.6238L4.29398 10.6401C4.41771 10.2397 4.27865 9.80459 3.94562 9.55017L0.668815 7.04692C-0.0912982 6.46624 0.319343 5.25226 1.27588 5.25226H5.22126C5.65982 5.25226 6.0472 4.96652 6.17668 4.54751L7.36416 0.70476Z" fill="white" fill-opacity="0.56"/>
</svg>
