<svg width="18" height="20" viewBox="0 0 18 20" fill="none" xmlns="http://www.w3.org/2000/svg">
<path fill-rule="evenodd" clip-rule="evenodd" d="M2.90609 14.0195C0.654427 10.0601 1.99066 4.99711 5.89066 2.71111C6.14791 2.56032 6.4097 2.42545 6.67495 2.30616C6.26514 5.00239 6.72351 7.85491 8.17192 10.4019C9.81189 13.2857 12.4199 15.2489 15.3367 16.1131C14.9445 16.4605 14.5133 16.7749 14.0446 17.0496C10.1447 19.3356 5.15775 17.979 2.90609 14.0195ZM4.98466 1.11795C0.217999 3.91195 -1.41518 10.1 1.33685 14.9393C4.08888 19.7787 10.184 21.4368 14.9506 18.6428C16.0841 17.9784 17.042 17.1206 17.8056 16.1335C18.2347 15.5788 17.9144 14.7603 17.2273 14.6557C14.194 14.1942 11.3924 12.3858 9.74115 9.48206C8.25231 6.86399 7.9907 3.87 8.77622 1.18229C8.97399 0.505612 8.37836 -0.135718 7.70138 0.0249814C6.76937 0.246221 5.85416 0.608286 4.98466 1.11795Z" fill="white"/>
</svg>
