<svg width="64" height="64" viewBox="0 0 64 64" fill="none" xmlns="http://www.w3.org/2000/svg">
<rect width="64" height="64" rx="12" fill="#5865F2"/>
<g clip-path="url(#clip0_1_698)">
<path d="M42.2032 23.2408C40.4182 22.4358 38.5049 21.8408 36.5041 21.5025C36.4863 21.499 36.4678 21.5012 36.4513 21.5088C36.4348 21.5163 36.421 21.5288 36.4119 21.5445C36.1669 21.975 35.8939 22.5361 35.7026 22.9795C33.5805 22.6624 31.4231 22.6624 29.3011 22.9795C29.088 22.4881 28.8476 22.0091 28.5812 21.5445C28.5722 21.5286 28.5585 21.5158 28.5421 21.5079C28.5256 21.5 28.5071 21.4973 28.4891 21.5001C26.4894 21.8385 24.5761 22.4335 22.7899 23.2396C22.7745 23.2461 22.7615 23.2571 22.7526 23.2711C19.1219 28.6086 18.1267 33.8143 18.6156 38.9546C18.6169 38.9672 18.6208 38.9794 18.6271 38.9904C18.6333 39.0015 18.6417 39.0111 18.6517 39.0188C20.7709 40.5616 23.1345 41.7369 25.6436 42.4955C25.6611 42.5008 25.6798 42.5008 25.6973 42.4954C25.7147 42.49 25.7302 42.4795 25.7416 42.4651C26.2815 41.743 26.76 40.977 27.1719 40.175C27.1776 40.164 27.1809 40.1519 27.1816 40.1396C27.1822 40.1272 27.1802 40.1149 27.1757 40.1034C27.1711 40.0919 27.1642 40.0815 27.1553 40.0729C27.1464 40.0643 27.1357 40.0577 27.1241 40.0536C26.3704 39.7698 25.6402 39.4273 24.9401 39.0293C24.9275 39.0221 24.9169 39.0119 24.9092 38.9996C24.9016 38.9873 24.8971 38.9734 24.8961 38.9589C24.8952 38.9444 24.8979 38.93 24.9039 38.9168C24.91 38.9037 24.9192 38.8922 24.9307 38.8835C25.0777 38.775 25.2247 38.6618 25.3647 38.5486C25.3773 38.5385 25.3925 38.532 25.4086 38.5299C25.4247 38.5279 25.441 38.5303 25.4557 38.537C30.0372 40.595 34.9991 40.595 39.5269 38.537C39.5417 38.5299 39.5582 38.5271 39.5745 38.529C39.5908 38.5309 39.6062 38.5373 39.6191 38.5475C39.7591 38.6618 39.9049 38.775 40.0531 38.8835C40.0647 38.892 40.0741 38.9033 40.0803 38.9164C40.0866 38.9294 40.0895 38.9438 40.0888 38.9583C40.0881 38.9727 40.0838 38.9868 40.0764 38.9992C40.0689 39.0116 40.0585 39.0219 40.0461 39.0293C39.3484 39.4306 38.6227 39.7701 37.8609 40.0525C37.8492 40.0567 37.8385 40.0634 37.8296 40.0721C37.8207 40.0808 37.8138 40.0913 37.8093 40.1029C37.8047 40.1145 37.8027 40.1269 37.8034 40.1393C37.804 40.1518 37.8073 40.1639 37.8131 40.175C38.2331 40.9765 38.7137 41.7395 39.2422 42.464C39.2532 42.4788 39.2685 42.4899 39.2861 42.4958C39.3036 42.5016 39.3225 42.5019 39.3402 42.4966C41.8537 41.7402 44.2211 40.5644 46.3426 39.0188C46.3529 39.0116 46.3616 39.0022 46.368 38.9913C46.3745 38.9805 46.3785 38.9684 46.3799 38.9558C46.9632 33.0128 45.4022 27.8491 42.2394 23.2735C42.2317 23.2586 42.2188 23.247 42.2032 23.2408ZM27.8567 35.8245C26.4777 35.8245 25.3402 34.5773 25.3402 33.0478C25.3402 31.5171 26.4556 30.2711 27.8567 30.2711C29.2684 30.2711 30.3954 31.5276 30.3732 33.0478C30.3732 34.5785 29.2579 35.8245 27.8567 35.8245ZM37.1609 35.8245C35.7807 35.8245 34.6444 34.5773 34.6444 33.0478C34.6444 31.5171 35.7586 30.2711 37.1609 30.2711C38.5726 30.2711 39.6996 31.5276 39.6774 33.0478C39.6774 34.5785 38.5737 35.8245 37.1609 35.8245Z" fill="white"/>
</g>
<defs>
<clipPath id="clip0_1_698">
<rect width="28" height="28" fill="white" transform="translate(18.5 18)"/>
</clipPath>
</defs>
</svg>
