<svg width="45" height="42" viewBox="0 0 45 42" fill="none" xmlns="http://www.w3.org/2000/svg">
<rect x="0.267578" width="42" height="42" rx="7" fill="#0077FF"/>
<path d="M30.3161 13.4929C28.7862 12.8029 27.1464 12.2929 25.4315 12.0029C25.4162 12 25.4004 12.0019 25.3862 12.0084C25.3721 12.0148 25.3603 12.0255 25.3525 12.0389C25.1425 12.4079 24.9085 12.8889 24.7445 13.2689C22.9257 12.9971 21.0767 12.9971 19.2579 13.2689C19.0752 12.8478 18.8692 12.4371 18.6409 12.0389C18.6332 12.0253 18.6215 12.0144 18.6074 12.0076C18.5932 12.0008 18.5774 11.9985 18.5619 12.001C16.848 12.2909 15.2081 12.8009 13.6772 13.4919C13.6641 13.4974 13.6529 13.5068 13.6452 13.5189C10.5334 18.0935 9.6805 22.5553 10.0995 26.961C10.1006 26.9718 10.104 26.9822 10.1093 26.9917C10.1146 27.0011 10.1218 27.0094 10.1305 27.016C11.9467 28.3383 13.9726 29.3456 16.1231 29.9958C16.1381 30.0004 16.1541 30.0004 16.1691 29.9957C16.1841 29.9911 16.1973 29.982 16.2071 29.9698C16.6698 29.3509 17.0799 28.6943 17.433 28.0069C17.4379 27.9975 17.4407 27.9872 17.4413 27.9766C17.4418 27.966 17.4401 27.9554 17.4362 27.9455C17.4323 27.9357 17.4264 27.9268 17.4187 27.9194C17.4111 27.9121 17.402 27.9064 17.392 27.9029C16.746 27.6596 16.1202 27.3661 15.5201 27.025C15.5093 27.0188 15.5003 27.0101 15.4937 26.9995C15.4871 26.989 15.4832 26.977 15.4825 26.9646C15.4817 26.9522 15.484 26.9398 15.4891 26.9286C15.4943 26.9173 15.5022 26.9074 15.5121 26.9C15.6381 26.807 15.7641 26.71 15.8841 26.613C15.8949 26.6043 15.9079 26.5987 15.9217 26.5969C15.9354 26.5952 15.9494 26.5973 15.9621 26.603C19.8888 28.3669 24.1416 28.3669 28.0223 26.603C28.035 26.5969 28.0491 26.5946 28.0631 26.5962C28.0771 26.5978 28.0903 26.6032 28.1013 26.612C28.2213 26.71 28.3463 26.807 28.4733 26.9C28.4833 26.9073 28.4913 26.917 28.4966 26.9282C28.502 26.9394 28.5045 26.9517 28.5039 26.9641C28.5033 26.9765 28.4996 26.9885 28.4932 26.9991C28.4868 27.0098 28.4779 27.0186 28.4673 27.025C27.8693 27.3689 27.2473 27.6599 26.5944 27.9019C26.5844 27.9055 26.5752 27.9113 26.5676 27.9187C26.56 27.9262 26.554 27.9352 26.5501 27.9451C26.5462 27.9551 26.5445 27.9657 26.5451 27.9764C26.5457 27.987 26.5485 27.9974 26.5534 28.0069C26.9134 28.6939 27.3253 29.3478 27.7783 29.9688C27.7877 29.9815 27.8008 29.991 27.8159 29.996C27.8309 30.0011 27.8471 30.0013 27.8623 29.9968C30.0165 29.3484 32.0456 28.3407 33.8639 27.016C33.8728 27.0098 33.8802 27.0017 33.8857 26.9924C33.8913 26.9831 33.8947 26.9727 33.8959 26.962C34.3959 21.8683 33.058 17.4426 30.3471 13.5209C30.3405 13.5081 30.3295 13.4982 30.3161 13.4929ZM18.02 24.2781C16.838 24.2781 15.8631 23.2092 15.8631 21.8983C15.8631 20.5864 16.819 19.5185 18.02 19.5185C19.2299 19.5185 20.1958 20.5954 20.1768 21.8983C20.1768 23.2102 19.2209 24.2781 18.02 24.2781ZM25.9944 24.2781C24.8115 24.2781 23.8376 23.2092 23.8376 21.8983C23.8376 20.5864 24.7925 19.5185 25.9944 19.5185C27.2044 19.5185 28.1703 20.5954 28.1513 21.8983C28.1513 23.2102 27.2054 24.2781 25.9944 24.2781Z" fill="white"/>
</svg>
