<svg width="16" height="12" viewBox="0 0 16 12" fill="none" xmlns="http://www.w3.org/2000/svg">
<path d="M13.5441 0.995235C12.5242 0.535265 11.4309 0.195287 10.2876 0.00196665C10.2775 1.20538e-05 10.2669 0.00127167 10.2575 0.0055713C10.2481 0.00987094 10.2402 0.0169979 10.235 0.0259651C10.095 0.271949 9.939 0.592595 9.82967 0.845911C8.61715 0.664748 7.38444 0.664748 6.17192 0.845911C6.05015 0.56517 5.91283 0.29143 5.76061 0.0259651C5.75545 0.0168875 5.74764 0.00959932 5.73823 0.0050732C5.72882 0.000547074 5.71826 -0.00100181 5.70795 0.00063334C4.56535 0.193954 3.47209 0.533932 2.45149 0.994568C2.44271 0.998251 2.43527 1.00453 2.43016 1.01257C0.35563 4.06237 -0.212999 7.03684 0.0663161 9.97398C0.0670933 9.98117 0.0693262 9.98813 0.0728789 9.99444C0.0764316 10.0007 0.0812298 10.0063 0.0869814 10.0106C1.29783 10.8922 2.64837 11.5638 4.08205 11.9972C4.09205 12.0003 4.10274 12.0002 4.11273 11.9972C4.12271 11.9941 4.13154 11.988 4.13805 11.9798C4.44656 11.5673 4.71994 11.1295 4.95533 10.6713C4.9586 10.665 4.96048 10.6581 4.96085 10.651C4.96122 10.644 4.96007 10.6369 4.95748 10.6304C4.95489 10.6238 4.95091 10.6179 4.94583 10.6129C4.94074 10.608 4.93466 10.6043 4.928 10.6019C4.49736 10.4398 4.08011 10.2441 3.68008 10.0166C3.67289 10.0125 3.66683 10.0067 3.66245 9.99969C3.65807 9.99267 3.6555 9.98467 3.65497 9.97641C3.65444 9.96815 3.65597 9.95989 3.65942 9.95237C3.66287 9.94485 3.66814 9.9383 3.67475 9.93331C3.75874 9.87132 3.84273 9.80666 3.92273 9.74199C3.92993 9.73618 3.9386 9.73248 3.94778 9.7313C3.95696 9.73012 3.96629 9.73152 3.97473 9.73533C6.59255 10.9113 9.4277 10.9113 12.0149 9.73533C12.0233 9.73129 12.0327 9.72971 12.0421 9.73077C12.0514 9.73183 12.0602 9.73549 12.0675 9.74133C12.1475 9.80665 12.2309 9.87132 12.3155 9.93331C12.3222 9.9382 12.3275 9.94466 12.3311 9.95211C12.3347 9.95957 12.3363 9.9678 12.3359 9.97605C12.3355 9.98431 12.3331 9.99234 12.3288 9.99942C12.3246 10.0065 12.3186 10.0124 12.3115 10.0166C11.9129 10.246 11.4982 10.4399 11.0629 10.6013C11.0562 10.6037 11.0502 10.6075 11.0451 10.6125C11.04 10.6175 11.036 10.6235 11.0334 10.6301C11.0308 10.6367 11.0297 10.6438 11.0301 10.6509C11.0304 10.658 11.0323 10.665 11.0356 10.6713C11.2756 11.1292 11.5502 11.5652 11.8522 11.9792C11.8585 11.9877 11.8672 11.994 11.8773 11.9974C11.8873 12.0007 11.8981 12.0009 11.9082 11.9978C13.3443 11.5656 14.6971 10.8938 15.9093 10.0106C15.9152 10.0065 15.9202 10.0012 15.9238 9.99495C15.9275 9.98874 15.9298 9.98182 15.9306 9.97464C16.2639 6.57887 15.372 3.62839 13.5648 1.0139C13.5603 1.0054 13.553 0.99878 13.5441 0.995235ZM5.34664 8.18543C4.55869 8.18543 3.90873 7.47281 3.90873 6.59887C3.90873 5.72426 4.54602 5.0123 5.34664 5.0123C6.15325 5.0123 6.79721 5.73026 6.78454 6.59887C6.78454 7.47348 6.14725 8.18543 5.34664 8.18543ZM10.663 8.18543C9.87434 8.18543 9.22505 7.47281 9.22505 6.59887C9.22505 5.72426 9.86167 5.0123 10.663 5.0123C11.4696 5.0123 12.1135 5.73026 12.1009 6.59887C12.1009 7.47348 11.4702 8.18543 10.663 8.18543Z" fill="#252525" fill-opacity="0.56"/>
</svg>
