<svg width="65" height="64" viewBox="0 0 65 64" fill="none" xmlns="http://www.w3.org/2000/svg">
<rect x="0.5" width="64" height="64" rx="12" fill="#5865F2"/>
<g clip-path="url(#clip0_1_423)">
<path d="M42.7032 23.2408C40.9182 22.4358 39.0049 21.8408 37.0041 21.5025C36.9863 21.499 36.9678 21.5012 36.9513 21.5088C36.9348 21.5163 36.921 21.5288 36.9119 21.5445C36.6669 21.975 36.3939 22.5361 36.2026 22.9795C34.0805 22.6624 31.9231 22.6624 29.8011 22.9795C29.588 22.4881 29.3476 22.0091 29.0812 21.5445C29.0722 21.5286 29.0585 21.5158 29.0421 21.5079C29.0256 21.5 29.0071 21.4973 28.9891 21.5001C26.9894 21.8385 25.0761 22.4335 23.2899 23.2396C23.2745 23.2461 23.2615 23.2571 23.2526 23.2711C19.6219 28.6086 18.6267 33.8143 19.1156 38.9546C19.1169 38.9672 19.1208 38.9794 19.1271 38.9904C19.1333 39.0015 19.1417 39.0111 19.1517 39.0188C21.2709 40.5616 23.6345 41.7369 26.1436 42.4955C26.1611 42.5008 26.1798 42.5008 26.1973 42.4954C26.2147 42.49 26.2302 42.4795 26.2416 42.4651C26.7815 41.743 27.26 40.977 27.6719 40.175C27.6776 40.164 27.6809 40.1519 27.6816 40.1396C27.6822 40.1272 27.6802 40.1149 27.6757 40.1034C27.6711 40.0919 27.6642 40.0815 27.6553 40.0729C27.6464 40.0643 27.6357 40.0577 27.6241 40.0536C26.8704 39.7698 26.1402 39.4273 25.4401 39.0293C25.4275 39.0221 25.4169 39.0119 25.4092 38.9996C25.4016 38.9873 25.3971 38.9734 25.3961 38.9589C25.3952 38.9444 25.3979 38.93 25.4039 38.9168C25.41 38.9037 25.4192 38.8922 25.4307 38.8835C25.5777 38.775 25.7247 38.6618 25.8647 38.5486C25.8773 38.5385 25.8925 38.532 25.9086 38.5299C25.9247 38.5279 25.941 38.5303 25.9557 38.537C30.5372 40.595 35.4991 40.595 40.0269 38.537C40.0417 38.5299 40.0582 38.5271 40.0745 38.529C40.0908 38.5309 40.1062 38.5373 40.1191 38.5475C40.2591 38.6618 40.4049 38.775 40.5531 38.8835C40.5647 38.892 40.5741 38.9033 40.5803 38.9164C40.5866 38.9294 40.5895 38.9438 40.5888 38.9583C40.5881 38.9727 40.5838 38.9868 40.5764 38.9992C40.5689 39.0116 40.5585 39.0219 40.5461 39.0293C39.8484 39.4306 39.1227 39.7701 38.3609 40.0525C38.3492 40.0567 38.3385 40.0634 38.3296 40.0721C38.3207 40.0808 38.3138 40.0913 38.3093 40.1029C38.3047 40.1145 38.3027 40.1269 38.3034 40.1393C38.304 40.1518 38.3073 40.1639 38.3131 40.175C38.7331 40.9765 39.2137 41.7395 39.7422 42.464C39.7532 42.4788 39.7685 42.4899 39.7861 42.4958C39.8036 42.5016 39.8225 42.5019 39.8402 42.4966C42.3537 41.7402 44.7211 40.5644 46.8426 39.0188C46.8529 39.0116 46.8616 39.0022 46.868 38.9913C46.8745 38.9805 46.8785 38.9684 46.8799 38.9558C47.4632 33.0128 45.9022 27.8491 42.7394 23.2735C42.7317 23.2586 42.7188 23.247 42.7032 23.2408ZM28.3567 35.8245C26.9777 35.8245 25.8402 34.5773 25.8402 33.0478C25.8402 31.5171 26.9556 30.2711 28.3567 30.2711C29.7684 30.2711 30.8954 31.5276 30.8732 33.0478C30.8732 34.5785 29.7579 35.8245 28.3567 35.8245ZM37.6609 35.8245C36.2807 35.8245 35.1444 34.5773 35.1444 33.0478C35.1444 31.5171 36.2586 30.2711 37.6609 30.2711C39.0726 30.2711 40.1996 31.5276 40.1774 33.0478C40.1774 34.5785 39.0737 35.8245 37.6609 35.8245Z" fill="white"/>
</g>
<defs>
<clipPath id="clip0_1_423">
<rect width="28" height="28" fill="white" transform="translate(19 18)"/>
</clipPath>
</defs>
</svg>
