<svg width="17" height="16" viewBox="0 0 17 16" fill="none" xmlns="http://www.w3.org/2000/svg">
<path d="M7.09023 0.70476C7.38061 -0.234918 8.7107 -0.234921 9.00108 0.704757L10.1886 4.54751C10.318 4.96651 10.7054 5.25226 11.144 5.25226H15.0894C16.0459 5.25226 16.4565 6.46624 15.6964 7.04692L12.4196 9.55017C12.0866 9.80459 11.9475 10.2397 12.0713 10.6401L13.3023 14.6238C13.5897 15.554 12.5135 16.3047 11.7398 15.7137L8.65272 13.3553C8.29432 13.0815 7.79699 13.0815 7.43859 13.3553L4.35151 15.7137C3.57782 16.3047 2.50157 15.554 2.78902 14.6238L4.02005 10.6401C4.14378 10.2397 4.00472 9.80459 3.67169 9.55017L0.394889 7.04692C-0.365224 6.46624 0.0454172 5.25226 1.00195 5.25226H4.94733C5.38589 5.25226 5.77328 4.96652 5.90276 4.54751L7.09023 0.70476Z" fill="#0077FF"/>
</svg>
