<svg width="24" height="24" viewBox="0 0 24 24" fill="none" xmlns="http://www.w3.org/2000/svg">
<path fill-rule="evenodd" clip-rule="evenodd" d="M11.6249 4.29053C9.00009 4.36119 6.37596 5.2264 4.28677 6.7099C2.49763 7.9803 1.02171 9.74632 0.165096 11.6417L0 12.0069L0.165096 12.3722C1.80508 16.0007 5.3119 18.6863 9.46317 19.4929C10.9894 19.7894 13.0113 19.7879 14.5603 19.489C18.686 18.6929 22.1952 16.0002 23.8349 12.3722L24 12.0069L23.8349 11.6417C22.9797 9.74928 21.5589 8.03928 19.7777 6.75811C17.4597 5.09092 14.5546 4.21163 11.6249 4.29053ZM12.9409 6.9407C14.0963 7.14764 15.0419 7.61416 15.847 8.37439C16.8858 9.35529 17.4391 10.6176 17.4391 12.0069C17.4391 13.3962 16.8858 14.6586 15.847 15.6394C14.8082 16.6203 13.4713 17.1427 12 17.1427C10.5287 17.1427 9.19177 16.6203 8.15295 15.6394C7.11417 14.6586 6.56088 13.3962 6.56088 12.0069C6.56088 10.6176 7.11417 9.35529 8.15295 8.37439C9.18826 7.39681 10.4949 6.8819 11.9597 6.8742C12.3166 6.87234 12.7069 6.89877 12.9409 6.9407ZM11.4139 8.97107C10.6963 9.10496 10.1994 9.35816 9.67825 9.85528C9.04239 10.4618 8.74656 11.145 8.74656 12.0069C8.74656 12.8838 9.04173 13.5551 9.70104 14.1777C10.3604 14.8002 11.0713 15.0789 12 15.0789C12.9287 15.0789 13.6396 14.8002 14.299 14.1777C14.9583 13.5551 15.2534 12.8838 15.2534 12.0069C15.2534 11.13 14.9583 10.4587 14.299 9.83615C13.6829 9.25447 13.0158 8.9744 12.1407 8.93003C11.9011 8.9179 11.6111 8.93424 11.4139 8.97107Z" fill="#252525"/>
</svg>
