<svg width="42" height="42" viewBox="0 0 42 42" fill="none" xmlns="http://www.w3.org/2000/svg">
<rect width="42" height="42" rx="7" fill="#0077FF"/>
<path fill-rule="evenodd" clip-rule="evenodd" d="M20.6522 10.2912C20.512 10.448 19.9034 11.8974 19.2999 13.5122C18.4904 15.6782 18.1305 16.5027 17.9275 16.6565C17.7024 16.827 17.1499 16.8992 14.8883 17.0538C13.368 17.1577 11.982 17.3013 11.8085 17.373C11.3067 17.58 11.0236 18.3664 11.2389 18.9554C11.2794 19.0665 11.9482 19.7113 12.725 20.3883C14.162 21.6407 14.7551 21.9665 15.614 21.9752C15.8043 21.9771 17.3653 21.7009 19.0827 21.3612C21.689 20.8457 22.2348 20.7692 22.3828 20.8983C22.5978 21.0856 22.6132 21.4227 22.4148 21.5955C22.3348 21.6653 20.9946 22.3892 19.4368 23.204C15.7704 25.1218 15.8221 25.0625 15.0635 28.2259C14.5693 30.2864 14.5629 30.5336 14.9924 30.9846C15.5837 31.6055 15.7976 31.527 18.5631 29.6723C20.3572 28.4691 21.1294 28.0145 21.3752 28.0169C21.614 28.0192 22.4472 28.5088 24.1962 29.6745C25.8841 30.7995 26.7813 31.3292 26.9999 31.3299C27.3717 31.331 28.0882 30.6577 28.0895 30.3061C28.0899 30.1856 27.7759 28.6878 27.3918 26.9778C26.7452 24.0998 26.7052 23.8434 26.8551 23.529C26.9441 23.3423 27.9561 22.3179 29.1041 21.2525C30.2521 20.1872 31.2532 19.2334 31.3287 19.1331C31.4043 19.0328 31.4679 18.7217 31.4698 18.4419C31.4725 18.0586 31.4061 17.8623 31.201 17.6469C30.8538 17.2823 30.8313 17.278 28.1451 17.0563C25.169 16.8107 24.9305 16.7711 24.6519 16.4756C24.5224 16.3383 23.9445 14.9464 23.3677 13.3826C22.6555 11.4518 22.2289 10.4537 22.0385 10.2727C21.6481 9.90176 20.9928 9.91053 20.6522 10.2912Z" fill="white"/>
</svg>
