<svg width="45" height="42" viewBox="0 0 45 42" fill="none" xmlns="http://www.w3.org/2000/svg">
<rect x="0.901367" y="0.950684" width="44.0985" height="40.0985" rx="8" fill="#F8F8F8"/>
<path fill-rule="evenodd" clip-rule="evenodd" d="M26.9754 11.5954L14.0155 24.5553C12.53 26.0409 12.53 28.4495 14.0155 29.935C15.5011 31.4206 17.9097 31.4206 19.3953 29.935L32.3551 16.9752C33.2148 16.1155 33.2148 14.7217 32.3551 13.862L30.0886 11.5954C29.2289 10.7358 27.8351 10.7358 26.9754 11.5954ZM24.6814 16.7179L28.3896 13.0096C28.4683 12.931 28.5957 12.931 28.6743 13.0096L30.9409 15.2762C31.0195 15.3548 31.0195 15.4823 30.9409 15.5609L27.2327 19.2692L24.6814 16.7179ZM23.2672 18.1321L15.4298 25.9695C14.7252 26.674 14.7252 27.8163 15.4298 28.5208C16.1343 29.2253 17.2765 29.2253 17.981 28.5208L25.8185 20.6834L23.2672 18.1321Z" fill="#252525" fill-opacity="0.56"/>
</svg>
