<svg width="25" height="24" viewBox="0 0 25 24" fill="none" xmlns="http://www.w3.org/2000/svg">
<g clip-path="url(#clip0_1_7182)">
<path fill-rule="evenodd" clip-rule="evenodd" d="M23.95 5.948C24.116 5.402 23.95 5 23.155 5H20.53C19.862 5 19.554 5.347 19.387 5.73C19.387 5.73 18.052 8.926 16.161 11.002C15.549 11.604 15.271 11.795 14.937 11.795C14.77 11.795 14.519 11.604 14.519 11.057V5.948C14.519 5.292 14.335 5 13.779 5H9.651C9.234 5 8.983 5.304 8.983 5.593C8.983 6.214 9.929 6.358 10.026 8.106V11.904C10.026 12.737 9.873 12.888 9.539 12.888C8.649 12.888 6.484 9.677 5.199 6.003C4.95 5.288 4.698 5 4.027 5H1.4C0.65 5 0.5 5.347 0.5 5.73C0.5 6.412 1.39 9.8 4.645 14.281C6.815 17.341 9.87 19 12.653 19C14.322 19 14.528 18.632 14.528 17.997V15.684C14.528 14.947 14.686 14.8 15.215 14.8C15.605 14.8 16.272 14.992 17.83 16.467C19.61 18.216 19.903 19 20.905 19H23.53C24.28 19 24.656 18.632 24.44 17.904C24.202 17.18 23.352 16.129 22.225 14.882C21.613 14.172 20.695 13.407 20.416 13.024C20.027 12.533 20.138 12.314 20.416 11.877C20.416 11.877 23.616 7.451 23.949 5.948H23.95Z" fill="white"/>
</g>
<defs>
<clipPath id="clip0_1_7182">
<rect width="24" height="24" fill="white" transform="translate(0.5)"/>
</clipPath>
</defs>
</svg>
