<svg width="24" height="24" viewBox="0 0 24 24" fill="none" xmlns="http://www.w3.org/2000/svg">
<path fill-rule="evenodd" clip-rule="evenodd" d="M0.755809 2.27629C0.484256 2.34373 0.248254 2.53526 0.117356 2.79455C-0.0875046 3.2002 -0.0222663 3.60719 0.29825 3.9235C0.583779 4.20529 0.697231 4.22339 2.18064 4.22371C2.9355 4.22385 3.56213 4.24417 3.66283 4.27175C3.8531 4.32392 4.09403 4.50272 4.17488 4.65181C4.20302 4.70374 4.93045 7.10198 5.7914 9.98122C6.72828 13.1144 7.41649 15.3371 7.50551 15.5171C7.72064 15.9524 8.29995 16.5131 8.76468 16.7358C9.44225 17.0604 9.14434 17.0446 14.5784 17.0438C20.0236 17.0431 19.7715 17.0565 20.4428 16.7315C20.9301 16.4954 21.4427 15.9905 21.6763 15.5161C21.822 15.2203 23.7972 9.13502 23.9641 8.46759C24.037 8.17594 23.9965 7.73947 23.8644 7.39399C23.7174 7.00954 23.2104 6.50605 22.8113 6.34817C22.6254 6.27463 22.4271 6.2367 22.2269 6.23639L6.75163 6.21265L6.65122 5.87763C6.22499 4.45542 6.06754 3.98335 5.93824 3.73966C5.73071 3.34859 5.16997 2.80571 4.75471 2.5939C4.15059 2.28569 4.03137 2.26852 2.38625 2.25259C1.5737 2.24472 0.839995 2.25537 0.755809 2.27629Z" fill="#252525"/>
<path d="M12.0656 20.5609C12.0656 21.565 11.2436 22.379 10.2296 22.379C9.21553 22.379 8.3935 21.565 8.3935 20.5609C8.3935 19.5568 9.21553 18.7428 10.2296 18.7428C11.2436 18.7428 12.0656 19.5568 12.0656 20.5609Z" fill="#252525"/>
<path d="M20.0656 20.5609C20.0656 21.565 19.2435 22.379 18.2295 22.379C17.2155 22.379 16.3934 21.565 16.3934 20.5609C16.3934 19.5568 17.2155 18.7428 18.2295 18.7428C19.2435 18.7428 20.0656 19.5568 20.0656 20.5609Z" fill="#252525"/>
</svg>
