<svg width="129" height="26" viewBox="0 0 129 26" fill="none" xmlns="http://www.w3.org/2000/svg">
<g clip-path="url(#clip0_1_3051)">
<path d="M120.12 4.05859H84.9276C80.0232 4.05859 76.0474 8.01051 76.0474 12.8854V12.8855C76.0474 17.7604 80.0232 21.7123 84.9276 21.7123H120.12C125.024 21.7123 129 17.7604 129 12.8855V12.8854C129 8.01051 125.024 4.05859 120.12 4.05859Z" fill="#FFEC00"/>
<path d="M36.1689 17.183L41.5637 17.1945C41.7653 17.1945 41.9514 17.2331 42.122 17.3102C42.3004 17.3796 42.4516 17.4798 42.5758 17.6108C42.7076 17.7418 42.8085 17.896 42.8783 18.0733C42.9558 18.243 42.9945 18.4279 42.9945 18.6284C42.9945 18.8288 42.9558 19.0177 42.8783 19.195C42.8085 19.3647 42.7076 19.515 42.5758 19.646C42.4516 19.7694 42.3004 19.8696 42.122 19.9467C41.9514 20.0161 41.7653 20.0469 41.5637 20.0392H34.6681C34.6138 20.0392 34.5711 20.0354 34.5401 20.0276H34.4936L34.3772 20.0045C34.0514 19.9274 33.7878 19.7656 33.5861 19.5188C33.3845 19.2721 33.2837 18.9753 33.2837 18.6284V6.6481C33.2837 6.44766 33.3185 6.26264 33.3883 6.09303C33.4659 5.92343 33.5707 5.77695 33.7025 5.65361C33.8343 5.52254 33.9856 5.42232 34.1562 5.35294C34.3346 5.27585 34.5246 5.2373 34.7263 5.2373C34.9201 5.2373 35.1063 5.27585 35.2847 5.35294C35.463 5.42232 35.6144 5.52254 35.7384 5.65361C35.8702 5.77695 35.975 5.92343 36.0525 6.09303C36.1301 6.26264 36.1689 6.44766 36.1689 6.6481V17.183Z" fill="white"/>
<path d="M47.8432 6.6481C47.8432 6.44766 47.8046 6.26264 47.727 6.09303C47.6494 5.92343 47.5446 5.77695 47.4128 5.65361C47.2887 5.52254 47.1375 5.42232 46.9591 5.35294C46.7807 5.27585 46.5946 5.2373 46.4006 5.2373C46.199 5.2373 46.009 5.27585 45.8306 5.35294C45.6599 5.42232 45.5087 5.52254 45.3769 5.65361C45.245 5.77695 45.1403 5.92343 45.0628 6.09303C44.993 6.26264 44.958 6.44766 44.958 6.6481V18.6284C44.958 18.8288 44.993 19.0139 45.0628 19.1835C45.1403 19.3531 45.245 19.5034 45.3769 19.6345C45.5087 19.7579 45.6599 19.8581 45.8306 19.9352C46.009 20.0045 46.199 20.0392 46.4006 20.0392C46.5946 20.0392 46.7807 20.0045 46.9591 19.9352C47.1375 19.8581 47.2887 19.7579 47.4128 19.6345C47.5446 19.5034 47.6494 19.3531 47.727 19.1835C47.8046 19.0139 47.8432 18.8288 47.8432 18.6284V6.6481Z" fill="white"/>
<path d="M59.6714 8.09361C59.8654 8.09361 60.0476 8.05891 60.2183 7.98954C60.3967 7.91244 60.5517 7.81222 60.6837 7.68886C60.8155 7.55781 60.9163 7.40748 60.9861 7.23787C61.0636 7.06826 61.1024 6.88324 61.1024 6.6828C61.1024 6.48236 61.0636 6.29733 60.9861 6.12774C60.9163 5.95042 60.8155 5.79623 60.6837 5.66518C60.5517 5.53411 60.3967 5.43003 60.2183 5.35294C60.0476 5.27585 59.8654 5.2373 59.6714 5.2373H51.3997C51.198 5.2373 51.012 5.27585 50.8413 5.35294C50.6707 5.42232 50.5195 5.52254 50.3875 5.65361C50.2557 5.77695 50.151 5.92728 50.0735 6.1046C50.0037 6.27421 49.9688 6.45923 49.9688 6.65967C49.9688 6.86011 50.0037 7.049 50.0735 7.2263C50.151 7.39591 50.2557 7.54624 50.3875 7.67731C50.5195 7.80836 50.6707 7.91244 50.8413 7.98954C51.012 8.05891 51.198 8.09361 51.3997 8.09361H54.1454V18.6284C54.1454 18.8288 54.1802 19.0139 54.25 19.1835C54.3199 19.3531 54.4129 19.5034 54.5293 19.6345C54.6533 19.7579 54.7969 19.8581 54.9597 19.9352C55.1304 20.0045 55.3164 20.0392 55.5182 20.0392C55.7198 20.0392 55.9059 20.0045 56.0765 19.9352C56.2549 19.8581 56.4101 19.7579 56.5419 19.6345C56.6738 19.5034 56.7784 19.3531 56.856 19.1835C56.9336 19.0139 56.9724 18.8288 56.9724 18.6284V8.09361H59.6714Z" fill="white"/>
<path d="M71.7639 20.0392C71.9656 20.0469 72.1517 20.0161 72.3224 19.9467C72.493 19.8696 72.6403 19.7694 72.7645 19.646C72.8963 19.515 72.9971 19.3647 73.0669 19.195C73.1445 19.0177 73.1833 18.8288 73.1833 18.6284C73.1833 18.4279 73.1445 18.243 73.0669 18.0733C72.9971 17.896 72.8963 17.7418 72.7645 17.6108C72.6403 17.4798 72.493 17.3756 72.3224 17.2985C72.1517 17.2214 71.9656 17.183 71.7639 17.183H65.8813V14.0607H70.4493C70.651 14.0607 70.837 14.0259 71.0077 13.9566C71.1861 13.8872 71.3412 13.7908 71.4731 13.6675C71.6049 13.5441 71.7057 13.4014 71.7755 13.2396C71.8531 13.07 71.8919 12.885 71.8919 12.6845C71.8919 12.4841 71.8531 12.2991 71.7755 12.1294C71.7057 11.9521 71.6049 11.8018 71.4731 11.6785C71.3412 11.5474 71.1861 11.4472 71.0077 11.3778C70.837 11.3007 70.651 11.266 70.4493 11.2737H65.8813V8.10517H71.7639C71.9656 8.10517 72.1517 8.07048 72.3224 8.0011C72.493 7.92401 72.6403 7.81993 72.7645 7.68886C72.8963 7.55781 72.9971 7.40748 73.0669 7.23787C73.1445 7.06056 73.1833 6.87168 73.1833 6.67124C73.1833 6.4708 73.1445 6.28578 73.0669 6.11617C72.9971 5.93885 72.8963 5.78466 72.7645 5.65361C72.6403 5.52254 72.493 5.42232 72.3224 5.35294C72.1517 5.27585 71.9656 5.2373 71.7639 5.2373H64.4387C64.237 5.2373 64.047 5.27585 63.8686 5.35294C63.6902 5.42232 63.5351 5.52254 63.4033 5.65361C63.2791 5.78466 63.1783 5.93885 63.1007 6.11617C63.0309 6.28578 62.9961 6.4708 62.9961 6.67124V18.6284C62.9961 19.0216 63.1201 19.3454 63.3683 19.5998C63.6243 19.8542 63.9424 20.0007 64.3223 20.0392H71.7639Z" fill="white"/>
<path d="M84.7141 14.2898C84.9341 14.3295 85.1574 14.3725 85.3839 14.4189C85.6171 14.4654 85.827 14.5349 86.0137 14.6276C86.2002 14.7203 86.3535 14.8462 86.4735 15.0051C86.5935 15.1575 86.6534 15.3661 86.6534 15.6312C86.6534 15.8497 86.5935 16.0451 86.4735 16.2174C86.3602 16.3829 86.2069 16.5253 86.0137 16.6445C85.8204 16.7572 85.6005 16.8466 85.3539 16.9129C85.114 16.9725 84.8675 17.0023 84.6142 17.0023C84.0811 17.0023 83.6246 16.9062 83.2447 16.7142C82.8649 16.522 82.535 16.2372 82.2552 15.8596C81.9686 15.5085 81.6887 15.2867 81.4155 15.194C81.1489 15.0946 80.859 15.1277 80.5458 15.2933C80.4126 15.3661 80.296 15.4589 80.1959 15.5716C80.096 15.6775 80.0193 15.8033 79.966 15.9491C79.9194 16.0949 79.8994 16.2538 79.906 16.426C79.9194 16.5982 79.9728 16.7837 80.066 16.9824C80.2259 17.3203 80.4525 17.6415 80.7457 17.9462C81.039 18.2442 81.3789 18.5059 81.7654 18.7311C82.1519 18.9564 82.5784 19.1352 83.0449 19.2676C83.518 19.4002 84.0111 19.4664 84.5243 19.4664C85.1841 19.4664 85.7937 19.3638 86.3535 19.1584C86.9134 18.9464 87.3964 18.6616 87.803 18.3038C88.2161 17.9462 88.5393 17.5256 88.7726 17.042C89.0058 16.5584 89.1224 16.0418 89.1224 15.492C89.1224 14.9289 89.0158 14.4454 88.8026 14.0414C88.596 13.6373 88.3228 13.2961 87.9829 13.018C87.643 12.7397 87.2565 12.5145 86.8233 12.3423C86.3902 12.1635 85.9471 12.0244 85.4939 11.925C85.054 11.8389 84.6576 11.7594 84.3044 11.6865C83.9578 11.6071 83.6613 11.5143 83.4147 11.4083C83.1748 11.2957 82.9882 11.1633 82.8549 11.0109C82.7283 10.8519 82.665 10.6466 82.665 10.3949C82.665 10.1895 82.7083 10.0041 82.7949 9.83846C82.8882 9.66623 83.0182 9.5172 83.1847 9.39135C83.358 9.26548 83.5613 9.16943 83.7945 9.1032C84.0344 9.03034 84.301 8.9939 84.5942 8.9939C84.8607 8.9939 85.0873 9.01046 85.274 9.04358C85.4672 9.07671 85.6405 9.12639 85.7937 9.19262C85.9471 9.25886 86.0937 9.34167 86.2335 9.44102C86.3735 9.54038 86.5335 9.65298 86.7134 9.77885C86.8533 9.87158 86.9966 9.9345 87.1432 9.96763C87.2898 10.0007 87.4297 10.0107 87.5631 9.99744C87.7029 9.97756 87.833 9.94112 87.9529 9.88814C88.0728 9.83515 88.1762 9.76559 88.2628 9.67949C88.3361 9.61325 88.3994 9.53044 88.4527 9.43108C88.5127 9.33172 88.556 9.22574 88.5826 9.11313C88.6092 8.9939 88.616 8.87467 88.6026 8.75544C88.5893 8.6362 88.5493 8.52029 88.4827 8.40768C88.2961 8.09636 88.0596 7.82478 87.773 7.59293C87.493 7.35447 87.1799 7.15906 86.8334 7.00671C86.4934 6.84773 86.127 6.7285 85.7337 6.64902C85.3473 6.56953 84.9541 6.52979 84.5542 6.52979C83.9612 6.52979 83.3981 6.62583 82.8649 6.81793C82.3384 7.01002 81.8753 7.27829 81.4755 7.62274C81.0756 7.96719 80.7591 8.37788 80.5259 8.85479C80.2926 9.33172 80.176 9.85171 80.176 10.4147C80.176 10.9712 80.2826 11.4646 80.4959 11.8952C80.7091 12.3258 81.0123 12.7 81.4055 13.018C81.7987 13.3293 82.2751 13.591 82.8349 13.8029C83.3946 14.0083 84.0211 14.1705 84.7141 14.2898ZM93.3575 7.8314C93.3575 7.65917 93.3242 7.50019 93.2575 7.35447C93.1909 7.20874 93.1009 7.08289 92.9876 6.97691C92.8811 6.8643 92.751 6.77819 92.5978 6.71857C92.4445 6.65233 92.2845 6.61921 92.118 6.61921C91.9447 6.61921 91.7814 6.65233 91.6282 6.71857C91.4816 6.77819 91.3516 6.8643 91.2384 6.97691C91.1251 7.08289 91.0351 7.20874 90.9684 7.35447C90.9084 7.50019 90.8784 7.65917 90.8784 7.8314V18.125C90.8784 18.2972 90.9084 18.4563 90.9684 18.602C91.0351 18.7477 91.1251 18.8769 91.2384 18.9895C91.3516 19.0955 91.4816 19.1815 91.6282 19.2478C91.7814 19.3074 91.9447 19.3372 92.118 19.3372C92.2845 19.3372 92.4445 19.3074 92.5978 19.2478C92.751 19.1815 92.8811 19.0955 92.9876 18.9895C93.1009 18.8769 93.1909 18.7477 93.2575 18.602C93.3242 18.4563 93.3575 18.2972 93.3575 18.125V14.2301H98.1156V18.125C98.1156 18.2972 98.1455 18.4563 98.2055 18.602C98.2723 18.7477 98.3622 18.8769 98.4754 18.9895C98.5887 19.0955 98.7187 19.1815 98.8653 19.2478C99.0186 19.3074 99.1819 19.3372 99.3552 19.3372C99.5283 19.3372 99.6883 19.3074 99.8349 19.2478C99.9882 19.1815 100.122 19.0955 100.235 18.9895C100.348 18.8769 100.435 18.7477 100.495 18.602C100.561 18.4563 100.595 18.2972 100.595 18.125V7.8314C100.595 7.65917 100.561 7.50019 100.495 7.35447C100.435 7.20874 100.348 7.08289 100.235 6.97691C100.128 6.8643 100.002 6.77819 99.855 6.71857C99.7084 6.65233 99.5483 6.61921 99.3751 6.61921C99.2018 6.61921 99.0386 6.65233 98.8852 6.71857C98.732 6.77819 98.5988 6.8643 98.4855 6.97691C98.3722 7.08289 98.2822 7.20874 98.2156 7.35447C98.1489 7.50019 98.1156 7.65917 98.1156 7.8314V11.766H93.3575V7.8314ZM108.806 6.52979C108.206 6.52979 107.629 6.60928 107.076 6.76825C106.523 6.9206 106.007 7.13588 105.527 7.41409C105.047 7.69229 104.611 8.03011 104.217 8.42756C103.824 8.81837 103.488 9.25555 103.208 9.7391C102.928 10.216 102.711 10.7294 102.558 11.2792C102.405 11.829 102.328 12.4019 102.328 12.9981C102.328 13.8923 102.495 14.7303 102.828 15.5118C103.168 16.2935 103.628 16.9791 104.207 17.5686C104.794 18.1515 105.48 18.6119 106.267 18.9498C107.06 19.2875 107.906 19.4565 108.806 19.4565C109.705 19.4565 110.548 19.2875 111.335 18.9498C112.128 18.6119 112.817 18.1515 113.404 17.5686C113.997 16.9791 114.463 16.2935 114.803 15.5118C115.15 14.7303 115.323 13.8923 115.323 12.9981C115.323 12.4019 115.243 11.829 115.083 11.2792C114.93 10.7294 114.71 10.216 114.423 9.7391C114.143 9.25555 113.804 8.81837 113.404 8.42756C113.011 8.03011 112.571 7.69229 112.084 7.41409C111.604 7.13588 111.088 6.9206 110.535 6.76825C109.982 6.60928 109.405 6.52979 108.806 6.52979ZM108.816 9.0237C109.375 9.0237 109.898 9.1297 110.385 9.34167C110.871 9.547 111.295 9.82853 111.654 10.1862C112.021 10.5439 112.307 10.9645 112.514 11.4481C112.721 11.9316 112.824 12.4483 112.824 12.9981C112.824 13.5612 112.721 14.0844 112.514 14.568C112.307 15.0516 112.021 15.4721 111.654 15.8298C111.295 16.1876 110.871 16.469 110.385 16.6743C109.898 16.8797 109.375 16.9824 108.816 16.9824C108.256 16.9824 107.733 16.8797 107.246 16.6743C106.76 16.469 106.337 16.1876 105.977 15.8298C105.617 15.4721 105.334 15.0516 105.127 14.568C104.92 14.0844 104.817 13.5612 104.817 12.9981C104.817 12.4483 104.92 11.9316 105.127 11.4481C105.334 10.9645 105.617 10.5439 105.977 10.1862C106.337 9.82853 106.76 9.547 107.246 9.34167C107.733 9.1297 108.256 9.0237 108.816 9.0237ZM121.628 14.2997C122.167 14.2997 122.674 14.2003 123.147 14.0017C123.627 13.8029 124.043 13.5313 124.397 13.1869C124.756 12.8424 125.036 12.4384 125.236 11.9747C125.443 11.511 125.546 11.0109 125.546 10.4744C125.546 9.93781 125.443 9.43771 125.236 8.97403C125.036 8.50373 124.756 8.09635 124.397 7.75191C124.043 7.40084 123.627 7.12595 123.147 6.92723C122.674 6.72188 122.167 6.61921 121.628 6.61921H118.299C118.126 6.61921 117.962 6.65233 117.809 6.71857C117.663 6.77819 117.533 6.8643 117.419 6.97691C117.306 7.08289 117.216 7.20874 117.15 7.35447C117.09 7.50019 117.06 7.65917 117.06 7.8314V18.125C117.06 18.2972 117.09 18.4563 117.15 18.602C117.216 18.7477 117.306 18.8769 117.419 18.9895C117.533 19.0955 117.663 19.1815 117.809 19.2478C117.962 19.3074 118.126 19.3372 118.299 19.3372C118.466 19.3372 118.626 19.3074 118.779 19.2478C118.932 19.1815 119.062 19.0955 119.169 18.9895C119.282 18.8769 119.372 18.7477 119.439 18.602C119.505 18.4563 119.539 18.2972 119.539 18.125V14.2997H121.628ZM121.638 9.05352C121.824 9.05352 122.004 9.08995 122.177 9.16281C122.351 9.22905 122.501 9.3251 122.627 9.45096C122.761 9.57019 122.867 9.7126 122.947 9.8782C123.027 10.0438 123.067 10.2193 123.067 10.4048C123.067 10.5903 123.027 10.7691 122.947 10.9414C122.867 11.1136 122.761 11.2659 122.627 11.3984C122.501 11.5309 122.351 11.6369 122.177 11.7164C122.004 11.7958 121.824 11.8356 121.638 11.8356H119.539V9.05352H121.638Z" fill="#001C1E"/>
<path d="M22.7122 0H4.84866C2.17082 0 0 2.15777 0 4.81951V21.1805C0 23.8422 2.17082 26 4.84866 26H22.7122C25.39 26 27.5608 23.8422 27.5608 21.1805V4.81951C27.5608 2.15777 25.39 0 22.7122 0Z" fill="#8EE800"/>
<path d="M16.077 3.17386V10.4198C16.077 10.6139 15.9663 10.7905 15.7885 10.8709C15.21 11.1327 13.8609 11.71 12.6683 11.9735C12.2297 12.0704 11.7075 12.1394 11.1666 12.1882C9.27308 12.3592 7.98288 10.6079 8.91537 8.96094C9.35612 8.18246 9.92816 7.31144 10.6663 6.39712C12.5278 4.09125 14.5004 3.10756 15.4686 2.73531C15.7746 2.61765 16.077 2.84774 16.077 3.17386Z" fill="#FF440A" stroke="#840010"/>
<path d="M16.077 14.3365V21.689C16.077 21.8821 15.9674 22.058 15.791 22.1389C15.2137 22.4036 13.8626 22.9896 12.6683 23.2569C12.2269 23.3557 11.7008 23.4259 11.1562 23.4753C9.26626 23.6473 7.97367 21.9014 8.89059 20.2497C9.33463 19.4499 9.91426 18.5518 10.6663 17.6081C12.5272 15.273 14.4992 14.2765 15.4678 13.8991C15.7737 13.7799 16.077 14.0099 16.077 14.3365Z" fill="#FF440A" stroke="#840010"/>
<path d="M4.78492 7.48297C5.45438 7.48297 5.99709 6.48926 5.99709 5.26346C5.99709 4.03765 5.45438 3.04395 4.78492 3.04395C4.11546 3.04395 3.57275 4.03765 3.57275 5.26346C3.57275 6.48926 4.11546 7.48297 4.78492 7.48297Z" fill="#64BE06"/>
<path d="M22.9675 24.7315C23.5313 24.7315 23.9883 23.9649 23.9883 23.0193C23.9883 22.0737 23.5313 21.3071 22.9675 21.3071C22.4038 21.3071 21.9468 22.0737 21.9468 23.0193C21.9468 23.9649 22.4038 24.7315 22.9675 24.7315Z" fill="#64BE06"/>
<path d="M5.61421 10.7805C6.03703 10.7805 6.37979 10.383 6.37979 9.89269C6.37979 9.40237 6.03703 9.00488 5.61421 9.00488C5.19139 9.00488 4.84863 9.40237 4.84863 9.89269C4.84863 10.383 5.19139 10.7805 5.61421 10.7805Z" fill="#64BE06"/>
</g>
<defs>
<clipPath id="clip0_1_3051">
<rect width="129" height="26" fill="white"/>
</clipPath>
</defs>
</svg>
