<svg width="64" height="64" viewBox="0 0 64 64" fill="none" xmlns="http://www.w3.org/2000/svg">
<path opacity="0.11" d="M32 0C14.327 0 0 14.3272 0 32C0 49.674 14.3272 64 32 64C49.6742 64 64 49.674 64 32C64 14.3285 49.6742 0.00175 31.9995 0.00175L31.9998 0.00025L32 0ZM46.6748 46.1535C46.1015 47.0935 44.871 47.3915 43.931 46.8145C36.4178 42.2253 26.9598 41.1858 15.821 43.7308C15.3052 43.8481 14.7639 43.7559 14.3161 43.4743C13.8683 43.1926 13.5507 42.7447 13.433 42.229C13.3744 41.9737 13.3667 41.7093 13.4104 41.451C13.4541 41.1927 13.5483 40.9456 13.6876 40.7237C13.8269 40.5019 14.0087 40.3097 14.2224 40.1582C14.4361 40.0067 14.6775 39.8988 14.933 39.8408C27.123 37.0558 37.5787 38.2548 46.0137 43.4098C46.9537 43.9868 47.2518 45.2135 46.6748 46.1535ZM50.5915 37.4403C49.869 38.614 48.333 38.9847 47.16 38.2625C38.5585 32.9755 25.4468 31.4443 15.273 34.5325C13.9535 34.931 12.56 34.1875 12.1595 32.8703C11.762 31.5508 12.506 30.1597 13.8232 29.7588C25.4445 26.2323 39.892 27.9405 49.77 34.0105C50.943 34.733 51.3138 36.269 50.5915 37.4405V37.4403ZM50.9277 28.367C40.6143 22.241 23.5985 21.6775 13.7517 24.6665C12.1705 25.146 10.4983 24.2533 10.0192 22.672C9.54 21.09 10.4317 19.419 12.0142 18.9382C23.3175 15.5068 42.1085 16.17 53.9823 23.219C55.4077 24.063 55.8738 25.9 55.0293 27.3202C54.1888 28.7428 52.3467 29.2115 50.9292 28.367H50.9277Z" fill="#252525"/>
</svg>
