<svg width="177" height="22" viewBox="0 0 177 22" fill="none" xmlns="http://www.w3.org/2000/svg">
<g opacity="0.11">
<path d="M6.04535 1.34908L3.9054 10.7006C3.59154 12.0488 3.24915 12.9939 2.87823 13.5361C2.51444 14.0711 1.99015 14.3385 1.30537 14.3385C1.1627 14.3385 1.03074 14.3278 0.909477 14.3064C0.78108 14.285 0.64555 14.2494 0.502887 14.1995L0 17.0349C0.213995 17.1062 0.438689 17.1526 0.674083 17.174C0.902344 17.2025 1.1413 17.2168 1.39096 17.2168C2.93173 17.2168 4.09086 16.6961 4.86838 15.6546C5.65302 14.6132 6.27361 13.1152 6.73013 11.1607L8.38859 3.93841H13.043L10.7532 16.9279H14.1236L16.8735 1.34908H6.04535Z" fill="#252525"/>
<path d="M17.093 11.578C16.7863 13.3042 17.0752 14.6809 17.9597 15.7081C18.8514 16.7282 20.1567 17.2382 21.8758 17.2382C23.5949 17.2382 25.075 16.7282 26.3162 15.7081C27.5645 14.6809 28.342 13.3042 28.6487 11.578L28.7022 11.2356C29.009 9.5094 28.7201 8.13627 27.8356 7.11623C26.951 6.09619 25.6492 5.58617 23.9302 5.58617C22.2111 5.58617 20.7274 6.09619 19.4791 7.11623C18.2308 8.13627 17.4568 9.5094 17.1572 11.2356L17.093 11.578ZM20.5169 11.0751C20.6881 10.0908 21.0341 9.33821 21.5548 8.81749C22.0755 8.28964 22.7211 8.02571 23.4915 8.02571C24.2618 8.02571 24.8147 8.28964 25.1499 8.81749C25.4852 9.33821 25.5672 10.0908 25.396 11.0751L25.2783 11.7385C25.1 12.73 24.754 13.4897 24.2404 14.0176C23.7269 14.5383 23.0813 14.7986 22.3038 14.7986C21.5191 14.7986 20.9592 14.5383 20.6239 14.0176C20.2958 13.4897 20.2209 12.73 20.3992 11.7385L20.5169 11.0751Z" fill="#252525"/>
<path d="M31.4469 5.90716L29.4996 16.9279H32.763L34.2824 8.3467H38.9153L39.3433 5.90716H31.4469Z" fill="#252525"/>
<path d="M39.1884 11.578C38.8817 13.3042 39.1706 14.6809 40.0551 15.7081C40.9467 16.7282 42.2521 17.2382 43.9712 17.2382C45.6903 17.2382 47.1704 16.7282 48.4116 15.7081C49.6599 14.6809 50.4374 13.3042 50.7441 11.578L50.7976 11.2356C51.1043 9.5094 50.8154 8.13627 49.9309 7.11623C49.0464 6.09619 47.7446 5.58617 46.0255 5.58617C44.3064 5.58617 42.8227 6.09619 41.5744 7.11623C40.3261 8.13627 39.5522 9.5094 39.2526 11.2356L39.1884 11.578ZM42.6123 11.0751C42.7835 10.0908 43.1295 9.33821 43.6502 8.81749C44.1709 8.28964 44.8165 8.02571 45.5868 8.02571C46.3572 8.02571 46.91 8.28964 47.2453 8.81749C47.5805 9.33821 47.6626 10.0908 47.4914 11.0751L47.3737 11.7385C47.1954 12.73 46.8494 13.4897 46.3358 14.0176C45.8222 14.5383 45.1767 14.7986 44.3992 14.7986C43.6145 14.7986 43.0546 14.5383 42.7193 14.0176C42.3912 13.4897 42.3163 12.73 42.4946 11.7385L42.6123 11.0751Z" fill="#252525"/>
<path d="M52.1406 8.3467H55.4575L53.9382 16.9279H57.2016L58.721 8.3467H62.0486L62.4659 5.90716H52.5686L52.1406 8.3467Z" fill="#252525"/>
<path d="M61.9257 16.9279H65.3604L69.3514 11.3747C69.5654 11.068 69.7437 10.8183 69.8863 10.6257C70.029 10.426 70.1645 10.2227 70.2929 10.0159H70.3999C70.35 10.2441 70.2965 10.5009 70.2394 10.7862C70.1824 11.0644 70.1289 11.3141 70.0789 11.5352L69.1374 16.9279H72.3901L74.3267 5.90716H70.9028L66.9118 11.4175C66.6907 11.7242 66.5052 11.9846 66.3554 12.1986C66.2056 12.4055 66.063 12.6088 65.9274 12.8085L65.8311 12.7978C65.8953 12.5838 65.9595 12.3306 66.0237 12.0381C66.0879 11.7385 66.1414 11.4782 66.1842 11.257L67.1258 5.90716H63.8731L61.9257 16.9279Z" fill="#252525"/>
<path d="M76.7076 5.90716L74.7603 16.9279H78.0237L79.5431 8.3467H83.1489L81.6295 16.9279H84.8929L86.8403 5.90716H76.7076Z" fill="#252525"/>
<path d="M96.1602 11.4389C96.3242 10.5045 96.6595 9.78403 97.1659 9.27758C97.6724 8.76399 98.3322 8.5072 99.1454 8.5072C99.9443 8.5072 100.501 8.76399 100.815 9.27758C101.128 9.78403 101.203 10.5045 101.039 11.4389L100.975 11.7813C100.804 12.7728 100.465 13.5254 99.9586 14.039C99.4592 14.5454 98.8066 14.7986 98.0005 14.7986C97.1945 14.7986 96.631 14.5454 96.31 14.039C95.9961 13.5254 95.9212 12.7728 96.0853 11.7813L96.1602 11.4389ZM100.429 6.07836C99.5092 6.07836 98.6782 6.26382 97.9363 6.63474C97.1945 6.99854 96.5917 7.49786 96.1281 8.13271H96.0104C96.31 6.93434 96.8235 6.02486 97.5511 5.40428C98.2787 4.77656 99.4592 4.35214 101.093 4.13101C102.726 3.91701 103.878 3.55322 104.549 3.03964C105.226 2.51892 105.686 1.70574 105.929 0.600098H103.029C102.958 0.799826 102.819 0.963888 102.612 1.09229C102.405 1.22068 101.692 1.37761 100.472 1.56307C98.3251 1.88406 96.6738 2.70081 95.5182 4.01331C94.3626 5.31868 93.5708 7.20896 93.1428 9.68417L92.9288 10.9895C92.5294 13.1509 92.7612 14.7344 93.6243 15.7402C94.4946 16.7389 95.8142 17.2382 97.5832 17.2382C99.2952 17.2382 100.772 16.7424 102.013 15.7509C103.261 14.7523 104.028 13.4291 104.313 11.7813L104.378 11.4389C104.663 9.83396 104.456 8.5393 103.757 7.55492C103.058 6.57055 101.949 6.07836 100.429 6.07836Z" fill="#252525"/>
<path d="M110.717 8.3467H113.713L112.194 16.9279H115.457L117.405 5.90716H108.353L107.133 11.3533C106.89 12.5374 106.644 13.3613 106.395 13.825C106.152 14.2815 105.781 14.5097 105.282 14.5097C105.146 14.5097 105.025 14.499 104.918 14.4776C104.804 14.4562 104.693 14.4241 104.586 14.3813L104.126 16.9707C104.269 17.0349 104.462 17.0812 104.704 17.1098C104.94 17.1454 105.193 17.1633 105.464 17.1633C106.755 17.1633 107.718 16.7496 108.353 15.9221C108.995 15.0875 109.523 13.6716 109.936 11.6743L110.717 8.3467Z" fill="#252525"/>
<path d="M118.223 11.578C117.917 13.3042 118.206 14.6809 119.09 15.7081C119.982 16.7282 121.287 17.2382 123.006 17.2382C124.725 17.2382 126.205 16.7282 127.447 15.7081C128.695 14.6809 129.472 13.3042 129.779 11.578L129.833 11.2356C130.139 9.5094 129.85 8.13627 128.966 7.11623C128.081 6.09619 126.78 5.58617 125.061 5.58617C123.341 5.58617 121.858 6.09619 120.609 7.11623C119.361 8.13627 118.587 9.5094 118.288 11.2356L118.223 11.578ZM121.647 11.0751C121.819 10.0908 122.164 9.33821 122.685 8.81749C123.206 8.28964 123.851 8.02571 124.622 8.02571C125.392 8.02571 125.945 8.28964 126.28 8.81749C126.616 9.33821 126.698 10.0908 126.526 11.0751L126.409 11.7385C126.23 12.73 125.884 13.4897 125.371 14.0176C124.857 14.5383 124.212 14.7986 123.434 14.7986C122.65 14.7986 122.09 14.5383 121.754 14.0176C121.426 13.4897 121.351 12.73 121.53 11.7385L121.647 11.0751Z" fill="#252525"/>
<path d="M132.577 5.90716L130.63 16.9279H133.893L135.413 8.3467H140.046L140.474 5.90716H132.577Z" fill="#252525"/>
<path d="M140.319 11.578C140.019 13.29 140.294 14.6631 141.143 15.6974C141.992 16.7246 143.325 17.2382 145.144 17.2382C146.336 17.2382 147.391 17.0135 148.312 16.5641C149.232 16.1076 149.931 15.5191 150.409 14.7986L148.258 13.4505C147.93 13.8285 147.534 14.1567 147.07 14.4348C146.607 14.713 146.086 14.8521 145.508 14.8521C144.681 14.8521 144.103 14.5739 143.775 14.0176C143.447 13.454 143.368 12.6872 143.539 11.7171L143.657 11.0216C143.828 10.0729 144.16 9.32038 144.652 8.76399C145.152 8.20047 145.779 7.91871 146.535 7.91871C147.199 7.91871 147.67 8.12201 147.948 8.5286C148.226 8.92805 148.311 9.42381 148.204 10.0159L148.162 10.2299H142.662L142.352 12.1665H151.051L151.243 11.0644C151.543 9.35248 151.315 8.01144 150.558 7.04133C149.802 6.07123 148.604 5.58617 146.963 5.58617C145.316 5.58617 143.882 6.10332 142.662 7.13763C141.442 8.16481 140.683 9.5308 140.383 11.2356L140.319 11.578Z" fill="#252525"/>
<path d="M151.088 21.4004H154.352L155.336 15.8151C155.543 16.2288 155.9 16.5534 156.406 16.7888C156.92 17.0242 157.53 17.1419 158.236 17.1419C159.62 17.1419 160.829 16.6354 161.863 15.6225C162.904 14.6096 163.575 13.2614 163.874 11.578L163.939 11.2356C164.231 9.5308 164.031 8.17907 163.339 7.18043C162.655 6.17466 161.603 5.67177 160.183 5.67177C159.477 5.67177 158.813 5.81443 158.193 6.09976C157.572 6.38508 157.105 6.74174 156.791 7.16973H156.738L156.898 5.90716H153.817L151.088 21.4004ZM155.785 13.2258L156.438 9.56647C156.674 9.17415 157.002 8.83175 157.423 8.5393C157.851 8.24684 158.343 8.10061 158.899 8.10061C159.662 8.10061 160.183 8.36097 160.461 8.88169C160.747 9.40241 160.804 10.1336 160.632 11.0751L160.515 11.7385C160.351 12.673 160.037 13.4041 159.573 13.932C159.11 14.4598 158.5 14.7237 157.744 14.7237C157.209 14.7237 156.77 14.5739 156.427 14.2743C156.092 13.9748 155.878 13.6252 155.785 13.2258Z" fill="#252525"/>
<path d="M164.757 13.6966C164.551 14.8379 164.757 15.6938 165.378 16.2645C166.006 16.8352 166.869 17.1205 167.967 17.1205C168.88 17.1205 169.672 16.9564 170.343 16.6283C171.02 16.3002 171.505 15.9292 171.798 15.5155C171.776 15.7652 171.776 16.022 171.798 16.2859C171.819 16.5498 171.858 16.7638 171.916 16.9279H175.125L175.158 16.7567C175.065 16.4714 175.015 16.129 175.008 15.7295C175.001 15.3229 175.036 14.8949 175.115 14.4455L176.003 9.41667C176.231 8.10417 175.978 7.1412 175.243 6.52775C174.516 5.90716 173.389 5.59687 171.862 5.59687C170.35 5.59687 169.069 5.92143 168.021 6.57055C166.972 7.21253 166.359 8.03284 166.18 9.03148L166.148 9.21338L169.326 9.22408L169.348 9.04218C169.412 8.67126 169.601 8.36097 169.915 8.11131C170.236 7.86165 170.71 7.73682 171.338 7.73682C171.965 7.73682 172.376 7.88661 172.568 8.1862C172.768 8.4858 172.825 8.88169 172.739 9.37387L172.622 10.0052H170.385C168.937 10.0123 167.689 10.3261 166.641 10.9467C165.599 11.5673 164.971 12.4839 164.757 13.6966ZM168.064 13.4184C168.156 12.9262 168.413 12.5517 168.834 12.2949C169.255 12.0381 169.854 11.9097 170.632 11.9097H172.301L172.108 12.9262C172.015 13.4897 171.716 13.9783 171.209 14.392C170.71 14.7986 170.143 15.0019 169.508 15.0019C168.916 15.0019 168.506 14.8593 168.278 14.5739C168.056 14.2815 167.985 13.8963 168.064 13.4184Z" fill="#252525"/>
</g>
</svg>
