<svg width="32" height="32" viewBox="0 0 32 32" fill="none" xmlns="http://www.w3.org/2000/svg">
<path fill-rule="evenodd" clip-rule="evenodd" d="M6 16C6 21.5228 10.4772 26 16 26C21.5228 26 26 21.5228 26 16C26 10.4772 21.5228 6 16 6C10.4772 6 6 10.4772 6 16ZM8 16C8 11.5817 11.5817 8 16 8C20.4183 8 24 11.5817 24 16C24 20.4183 20.4183 24 16 24C11.5817 24 8 20.4183 8 16ZM11.7574 17C11.2051 17 10.7574 16.5523 10.7574 16C10.7574 15.4477 11.2051 15 11.7574 15H20.2426C20.7949 15 21.2426 15.4477 21.2426 16C21.2426 16.5523 20.7949 17 20.2426 17H11.7574Z" fill="#252525" fill-opacity="0.36"/>
</svg>
