<svg width="64" height="64" viewBox="0 0 64 64" fill="none" xmlns="http://www.w3.org/2000/svg">
<rect width="64" height="64" rx="12" fill="#F8F8F8"/>
<path fill-rule="evenodd" clip-rule="evenodd" d="M32 29C30.3431 29 29 27.6569 29 26C29 24.3431 30.3431 23 32 23C33.6569 23 35 24.3431 35 26C35 27.6569 33.6569 29 32 29ZM36.1997 30.2852C37.3107 29.1962 38 27.6786 38 26C38 22.6863 35.3137 20 32 20C28.6863 20 26 22.6863 26 26C26 27.6786 26.6893 29.1962 27.8003 30.2852C25.8089 31.6335 24.5 33.9139 24.5 36.5V42.5C24.5 43.3284 25.1716 44 26 44C26.8284 44 27.5 43.3284 27.5 42.5V36.5C27.5 34.0147 29.5147 32 32 32C34.4853 32 36.5 34.0147 36.5 36.5V42.5C36.5 43.3284 37.1716 44 38 44C38.8284 44 39.5 43.3284 39.5 42.5V36.5C39.5 33.9139 38.1911 31.6335 36.1997 30.2852Z" fill="#252525"/>
</svg>
