<svg width="33" height="32" viewBox="0 0 33 32" fill="none" xmlns="http://www.w3.org/2000/svg">
<rect x="0.399902" width="32" height="32" rx="8" fill="#1ED760" fill-opacity="0.2"/>
<path fill-rule="evenodd" clip-rule="evenodd" d="M16.3999 26C10.8771 26 6.3999 21.5228 6.3999 16C6.3999 10.4772 10.8771 6 16.3999 6C21.9227 6 26.3999 10.4772 26.3999 16C26.3999 21.5228 21.9227 26 16.3999 26ZM16.3999 8C11.9816 8 8.3999 11.5817 8.3999 16C8.3999 20.4183 11.9816 24 16.3999 24C20.8182 24 24.3999 20.4183 24.3999 16C24.3999 11.5817 20.8182 8 16.3999 8ZM16.4004 10.7574C16.9526 10.7574 17.4004 11.2051 17.4004 11.7574V15H20.6425C21.1948 15 21.6425 15.4477 21.6425 16C21.6425 16.5523 21.1948 17 20.6425 17H17.4004V20.2426C17.4004 20.7949 16.9526 21.2426 16.4004 21.2426C15.8481 21.2426 15.4004 20.7949 15.4004 20.2426V17H12.1573C11.605 17 11.1573 16.5523 11.1573 16C11.1573 15.4477 11.605 15 12.1573 15H15.4004V11.7574C15.4004 11.2051 15.8481 10.7574 16.4004 10.7574Z" fill="#1ED760"/>
</svg>
