<svg width="45" height="41" viewBox="0 0 45 41" fill="none" xmlns="http://www.w3.org/2000/svg">
<rect x="0.901367" y="0.950684" width="44" height="40" rx="8" fill="#F8F8F8"/>
<path fill-rule="evenodd" clip-rule="evenodd" d="M31.1943 11.2436C31.5848 10.8531 32.218 10.8531 32.6085 11.2436C32.999 11.6341 32.999 12.2673 32.6085 12.6578L29.1984 16.0679C29.7 16.4493 30.1438 16.854 30.5319 17.2565C31.3178 18.0715 31.8836 18.8842 32.2539 19.4942C32.4396 19.8001 32.5777 20.0574 32.6709 20.242C32.7176 20.3344 32.7531 20.4088 32.7779 20.4622C32.7903 20.4889 32.8 20.5104 32.8071 20.5263L32.8158 20.5458L32.8186 20.5524L32.8197 20.5549L32.8201 20.5559C32.8203 20.5563 32.8205 20.5568 31.9014 20.9507C32.8205 21.3446 32.8203 21.345 32.8201 21.3455L32.8197 21.3465L32.8186 21.349L32.8158 21.3555L32.8071 21.3751C32.8 21.391 32.7903 21.4125 32.7779 21.4392C32.7531 21.4926 32.7176 21.567 32.6709 21.6593C32.5777 21.844 32.4396 22.1013 32.2539 22.4072C31.8836 23.0172 31.3178 23.8298 30.5319 24.6448C28.9557 26.2795 26.4614 27.9507 22.9014 27.9507C21.1255 27.9507 19.6149 27.5348 18.3511 26.9151L14.6085 30.6578C14.218 31.0483 13.5848 31.0483 13.1943 30.6578C12.8037 30.2673 12.8037 29.6341 13.1943 29.2436L31.1943 11.2436ZM19.8683 25.398C20.7493 25.7391 21.7566 25.9507 22.9014 25.9507C25.7699 25.9507 27.7756 24.6219 29.0922 23.2565C29.7528 22.5715 30.2317 21.8842 30.5443 21.3692C30.6406 21.2106 30.7206 21.0694 30.7847 20.9507C30.7206 20.832 30.6406 20.6907 30.5443 20.5322C30.2317 20.0172 29.7528 19.3298 29.0922 18.6448C28.7104 18.2488 28.2706 17.8559 27.7686 17.4976L26.3475 18.9187C26.6994 19.5142 26.9014 20.2089 26.9014 20.9507C26.9014 23.1598 25.1105 24.9507 22.9014 24.9507C22.1596 24.9507 21.4649 24.7488 20.8694 24.3969L19.8683 25.398ZM22.3833 22.8829C22.5486 22.9271 22.7222 22.9507 22.9014 22.9507C24.0059 22.9507 24.9014 22.0553 24.9014 20.9507C24.9014 20.7715 24.8778 20.5979 24.8336 20.4326L22.3833 22.8829ZM31.9014 20.9507L32.8205 21.3446C32.9283 21.0931 32.9283 20.8083 32.8205 20.5568L31.9014 20.9507ZM22.9014 13.9507C23.7995 13.9507 24.6298 14.0571 25.3947 14.2424L23.655 15.982C23.4107 15.9614 23.1595 15.9507 22.9014 15.9507C20.0329 15.9507 18.0271 17.2794 16.7105 18.6448C16.0499 19.3298 15.5711 20.0172 15.2584 20.5322C15.1621 20.6907 15.0822 20.832 15.018 20.9507C15.0822 21.0694 15.1621 21.2106 15.2584 21.3692C15.5452 21.8416 15.9719 22.4591 16.5504 23.0867L15.1352 24.5019C14.4194 23.7355 13.8975 22.9815 13.5488 22.4072C13.3631 22.1013 13.2251 21.844 13.1318 21.6593C13.0852 21.567 13.0496 21.4926 13.0248 21.4392C13.0124 21.4125 13.0027 21.391 12.9956 21.3751L12.987 21.3555L12.9841 21.349L12.983 21.3465L12.9826 21.3455C12.9824 21.345 12.9822 21.3446 13.9012 20.9508L12.9822 21.3446C12.8744 21.0931 12.8744 20.8083 12.9822 20.5568L13.9012 20.9506C12.9822 20.5568 12.9824 20.5563 12.9826 20.5559L12.983 20.5549L12.9841 20.5524L12.987 20.5458L12.9956 20.5263C13.0027 20.5104 13.0124 20.4889 13.0248 20.4622C13.0496 20.4088 13.0852 20.3344 13.1318 20.242C13.2251 20.0574 13.3631 19.8001 13.5488 19.4942C13.9192 18.8842 14.4849 18.0715 15.2708 17.2565C16.8471 15.6219 19.3413 13.9507 22.9014 13.9507ZM18.9074 20.7297C19.0181 18.6965 20.6472 17.0674 22.6804 16.9567L18.9074 20.7297Z" fill="#252525" fill-opacity="0.56"/>
</svg>
