<svg width="64" height="64" viewBox="0 0 64 64" fill="none" xmlns="http://www.w3.org/2000/svg">
<rect width="64" height="64" rx="12" fill="#1ED760"/>
<g clip-path="url(#clip0_1_681)">
<path d="M32 18C24.2681 18 18 24.2682 18 32C18 39.7324 24.2682 46 32 46C39.7325 46 46 39.7324 46 32C46 24.2687 39.7325 18.0008 31.9998 18.0008L31.9999 18.0001L32 18ZM38.4202 38.1922C38.1694 38.6034 37.6311 38.7338 37.2198 38.4813C33.9328 36.4735 29.7949 36.0188 24.9217 37.1322C24.696 37.1836 24.4592 37.1432 24.2633 37.02C24.0674 36.8968 23.9284 36.7008 23.8769 36.4752C23.8513 36.3635 23.8479 36.2478 23.867 36.1348C23.8862 36.0218 23.9274 35.9137 23.9883 35.8166C24.0493 35.7196 24.1288 35.6355 24.2223 35.5692C24.3158 35.5029 24.4214 35.4557 24.5332 35.4303C29.8663 34.2119 34.4407 34.7365 38.131 36.9918C38.5423 37.2442 38.6726 37.7809 38.4202 38.1922ZM40.1338 34.3801C39.8177 34.8936 39.1457 35.0558 38.6325 34.7398C34.8693 32.4268 29.133 31.7569 24.6819 33.108C24.1047 33.2823 23.495 32.957 23.3198 32.3807C23.1459 31.8035 23.4714 31.1949 24.0477 31.0195C29.132 29.4766 35.4528 30.224 39.7744 32.8796C40.2876 33.1957 40.4498 33.8677 40.1338 34.3802V34.3801ZM40.2809 30.4106C35.7687 27.7304 28.3243 27.4839 24.0164 28.7916C23.3246 29.0014 22.593 28.6108 22.3834 27.919C22.1737 27.2269 22.5639 26.4958 23.2562 26.2855C28.2014 24.7842 36.4225 25.0744 41.6172 28.1583C42.2409 28.5276 42.4448 29.3312 42.0753 29.9526C41.7076 30.575 40.9017 30.78 40.2815 30.4106H40.2809V30.4106Z" fill="white"/>
</g>
<defs>
<clipPath id="clip0_1_681">
<rect width="28" height="28" fill="white" transform="translate(18 18)"/>
</clipPath>
</defs>
</svg>
