<svg width="64" height="64" viewBox="0 0 64 64" fill="none" xmlns="http://www.w3.org/2000/svg">
<rect width="64" height="64" rx="12" fill="#229ED9"/>
<path fill-rule="evenodd" clip-rule="evenodd" d="M31.5819 18.3822C31.3885 18.588 30.5493 20.4903 29.717 22.6097C28.6007 25.4526 28.1044 26.5348 27.8244 26.7366C27.514 26.9604 26.7521 27.0553 23.6332 27.2582C21.5366 27.3945 19.6253 27.583 19.386 27.6771C18.694 27.9487 18.3036 28.9809 18.6005 29.754C18.6563 29.8998 19.5787 30.746 20.6499 31.6347C22.6316 33.2784 23.4496 33.706 24.6339 33.7175C24.8964 33.72 27.0491 33.3574 29.4175 32.9116C33.0117 32.235 33.7644 32.1346 33.9685 32.3041C34.2649 32.5499 34.2862 32.9923 34.0126 33.2192C33.9023 33.3107 32.0542 34.2608 29.9058 35.3303C24.8497 37.8474 24.921 37.7695 23.8748 41.9215C23.1933 44.626 23.1845 44.9503 23.7768 45.5423C24.5922 46.3572 24.8872 46.2541 28.7009 43.8199C31.1751 42.2407 32.2399 41.6441 32.579 41.6472C32.9083 41.6501 34.0574 42.2928 36.4693 43.8228C38.7969 45.2994 40.0342 45.9946 40.3357 45.9955C40.8484 45.9969 41.8366 45.1133 41.8383 44.6518C41.8389 44.4936 41.4059 42.5277 40.8761 40.2834C39.9844 36.506 39.9293 36.1695 40.136 35.7568C40.2587 35.5117 41.6544 34.1672 43.2375 32.7688C44.8206 31.3706 46.2012 30.1188 46.3054 29.9872C46.4096 29.8555 46.4972 29.4472 46.4999 29.0799C46.5036 28.5769 46.4121 28.3193 46.1293 28.0366C45.6504 27.558 45.6194 27.5524 41.915 27.2614C37.8108 26.9391 37.4819 26.887 37.0978 26.4992C36.9191 26.319 36.1222 24.4921 35.3267 22.4396C34.3446 19.9055 33.7563 18.5955 33.4937 18.3579C32.9553 17.8711 32.0517 17.8826 31.5819 18.3822Z" fill="white"/>
</svg>
