<svg width="18" height="16" viewBox="0 0 18 16" fill="none" xmlns="http://www.w3.org/2000/svg">
<path fill-rule="evenodd" clip-rule="evenodd" d="M0 10.7245V2.68112C0 1.20038 1.19391 0 2.66667 0H15.1111C16.5839 0 17.7778 1.20038 17.7778 2.68112V10.7245C17.7778 12.2052 16.5839 13.4056 15.1111 13.4056H11.3346L9.0189 15.4428C7.58205 16.7069 5.33333 15.681 5.33333 13.7614V13.4056H2.66667C1.19391 13.4056 0 12.2052 0 10.7245ZM6.89883 12.5578C6.59847 11.9983 6.01006 11.6182 5.33333 11.6182H2.66667C2.17575 11.6182 1.77778 11.2181 1.77778 10.7245V2.68112C1.77778 2.18754 2.17575 1.78741 2.66667 1.78741H15.1111C15.602 1.78741 16 2.18754 16 2.68112V10.7245C16 11.2181 15.602 11.6182 15.1111 11.6182H11.3346C10.904 11.6182 10.488 11.7753 10.164 12.0604L7.84822 14.0977C7.56085 14.3505 7.11111 14.1453 7.11111 13.7614V13.4056C7.11111 13.3505 7.10864 13.2961 7.10379 13.2423C7.0826 13.007 7.01606 12.7849 6.91303 12.5849C6.90837 12.5758 6.90364 12.5668 6.89883 12.5578Z" fill="white"/>
</svg>
