<svg width="20" height="20" viewBox="0 0 20 20" fill="none" xmlns="http://www.w3.org/2000/svg">
<path fill-rule="evenodd" clip-rule="evenodd" d="M6.42827 2.73462C5.63923 3.5236 5.63923 4.8028 6.42827 5.59179L8.57131 7.73467C9.36035 8.52365 10.6396 8.52365 11.4287 7.73467L13.5717 5.59179C14.3608 4.8028 14.3608 3.5236 13.5717 2.73462L11.4287 0.59174C10.6396 -0.197247 9.36035 -0.197247 8.57131 0.59174L6.42827 2.73462ZM7.85696 4.1632L8.57131 3.44891L9.28565 2.73462L10 2.02033L10.7143 2.73462L11.4287 3.44891L12.143 4.1632L11.4287 4.8775L10.7143 5.59179L10 6.30608L9.28565 5.59179L8.57131 4.8775L7.85696 4.1632ZM0.591783 8.57141C-0.197261 9.3604 -0.197261 10.6396 0.591783 11.4286L2.73482 13.5715C3.52386 14.3605 4.80316 14.3605 5.5922 13.5715L7.73524 11.4286C8.52428 10.6396 8.52428 9.3604 7.73524 8.57141L5.5922 6.42854C4.80316 5.63955 3.52386 5.63955 2.73482 6.42854L0.591783 8.57141ZM2.02047 10L2.73482 9.28571L3.44917 8.57141L4.16351 7.85712L4.87786 8.57141L5.5922 9.28571L6.30655 10L5.5922 10.7143L4.87786 11.4286L4.16351 12.1429L3.44917 11.4286L2.73482 10.7143L2.02047 10ZM6.42827 17.2654C5.63923 16.4764 5.63923 15.1972 6.42827 14.4082L8.57131 12.2653C9.36035 11.4763 10.6396 11.4763 11.4287 12.2653L13.5717 14.4082C14.3608 15.1972 14.3608 16.4764 13.5717 17.2654L11.4287 19.4083C10.6396 20.1972 9.36035 20.1972 8.57131 19.4083L6.42827 17.2654ZM8.57131 15.1225L7.85696 15.8368L8.57131 16.5511L9.28565 17.2654L10 17.9797L10.7143 17.2654L11.4287 16.5511L12.143 15.8368L11.4287 15.1225L10.7143 14.4082L10 13.6939L9.28565 14.4082L8.57131 15.1225ZM14.4078 6.42854L12.2648 8.57141C11.4757 9.3604 11.4757 10.6396 12.2648 11.4286L14.4078 13.5715C15.1968 14.3605 16.4761 14.3605 17.2652 13.5715L19.4082 11.4286C20.1973 10.6396 20.1973 9.3604 19.4082 8.57141L17.2652 6.42854C16.4761 5.63955 15.1968 5.63955 14.4078 6.42854ZM13.6935 10L14.4078 9.28571L15.1221 8.57141L15.8365 7.85712L16.5508 8.57141L17.2652 9.28571L17.9795 10L17.2652 10.7143L16.5508 11.4286L15.8365 12.1429L15.1221 11.4286L14.4078 10.7143L13.6935 10Z" fill="white"/>
</svg>
