<svg width="65" height="64" viewBox="0 0 65 64" fill="none" xmlns="http://www.w3.org/2000/svg">
<rect x="0.5" width="64" height="64" rx="12" fill="#1ED760"/>
<g clip-path="url(#clip0_1_23)">
<path d="M32.5 18C24.7681 18 18.5 24.2682 18.5 32C18.5 39.7324 24.7682 46 32.5 46C40.2325 46 46.5 39.7324 46.5 32C46.5 24.2687 40.2325 18.0008 32.4998 18.0008L32.4999 18.0001L32.5 18ZM38.9202 38.1922C38.6694 38.6034 38.1311 38.7338 37.7198 38.4813C34.4328 36.4735 30.2949 36.0188 25.4217 37.1322C25.196 37.1836 24.9592 37.1432 24.7633 37.02C24.5674 36.8968 24.4284 36.7008 24.3769 36.4752C24.3513 36.3635 24.3479 36.2478 24.367 36.1348C24.3862 36.0218 24.4274 35.9137 24.4883 35.8166C24.5493 35.7196 24.6288 35.6355 24.7223 35.5692C24.8158 35.5029 24.9214 35.4557 25.0332 35.4303C30.3663 34.2119 34.9407 34.7365 38.631 36.9918C39.0423 37.2442 39.1726 37.7809 38.9202 38.1922ZM40.6338 34.3801C40.3177 34.8936 39.6457 35.0558 39.1325 34.7398C35.3693 32.4268 29.633 31.7569 25.1819 33.108C24.6047 33.2823 23.995 32.957 23.8198 32.3807C23.6459 31.8035 23.9714 31.1949 24.5477 31.0195C29.632 29.4766 35.9527 30.224 40.2744 32.8796C40.7876 33.1957 40.9498 33.8677 40.6338 34.3802V34.3801ZM40.7809 30.4106C36.2687 27.7304 28.8243 27.4839 24.5164 28.7916C23.8246 29.0014 23.093 28.6108 22.8834 27.919C22.6737 27.2269 23.0639 26.4958 23.7562 26.2855C28.7014 24.7842 36.9225 25.0744 42.1172 28.1583C42.7409 28.5276 42.9448 29.3313 42.5753 29.9526C42.2076 30.575 41.4017 30.78 40.7815 30.4106H40.7809Z" fill="white"/>
</g>
<defs>
<clipPath id="clip0_1_23">
<rect width="28" height="28" fill="white" transform="translate(18.5 18)"/>
</clipPath>
</defs>
</svg>
