<svg width="17" height="16" viewBox="0 0 17 16" fill="none" xmlns="http://www.w3.org/2000/svg">
<path d="M7.27285 0.70476C7.56323 -0.234918 8.89332 -0.234921 9.1837 0.704757L10.3712 4.54751C10.5007 4.96651 10.888 5.25226 11.3266 5.25226H15.272C16.2285 5.25226 16.6392 6.46624 15.879 7.04692L12.6022 9.55017C12.2692 9.80459 12.1301 10.2397 12.2539 10.6401L13.4849 14.6238C13.7724 15.554 12.6961 16.3047 11.9224 15.7137L8.83533 13.3553C8.47693 13.0815 7.97961 13.0815 7.62121 13.3553L4.53412 15.7137C3.76044 16.3047 2.68419 15.554 2.97164 14.6238L4.20267 10.6401C4.3264 10.2397 4.18734 9.80459 3.85431 9.55017L0.577507 7.04692C-0.182607 6.46624 0.228034 5.25226 1.18457 5.25226H5.12995C5.56851 5.25226 5.95589 4.96652 6.08538 4.54751L7.27285 0.70476Z" fill="#0077FF"/>
</svg>
