<svg width="17" height="16" viewBox="0 0 17 16" fill="none" xmlns="http://www.w3.org/2000/svg">
<path d="M7.18154 0.70476C7.47192 -0.234918 8.80201 -0.234921 9.09239 0.704757L10.2799 4.54751C10.4093 4.96651 10.7967 5.25226 11.2353 5.25226H15.1807C16.1372 5.25226 16.5478 6.46624 15.7877 7.04692L12.5109 9.55017C12.1779 9.80459 12.0388 10.2397 12.1626 10.6401L13.3936 14.6238C13.681 15.554 12.6048 16.3047 11.8311 15.7137L8.74403 13.3553C8.38562 13.0815 7.8883 13.0815 7.5299 13.3553L4.44282 15.7137C3.66913 16.3047 2.59288 15.554 2.88033 14.6238L4.11136 10.6401C4.23509 10.2397 4.09603 9.80459 3.763 9.55017L0.486198 7.04692C-0.273915 6.46624 0.136726 5.25226 1.09326 5.25226H5.03864C5.4772 5.25226 5.86459 4.96652 5.99407 4.54751L7.18154 0.70476Z" fill="#0077FF"/>
</svg>
