<svg width="64" height="64" viewBox="0 0 64 64" fill="none" xmlns="http://www.w3.org/2000/svg">
<rect width="64" height="64" rx="12" fill="#F8F8F8"/>
<path fill-rule="evenodd" clip-rule="evenodd" d="M20.0003 20C19.2639 20 18.667 20.597 18.667 21.3333C18.667 22.0697 19.2639 22.6667 20.0003 22.6667V21.3333L20.0003 22.6667H20.0004H20.0006H20.0008H20.001H20.0012H20.0015H20.0029H20.0048H20.006H20.0066H20.0073H20.0104H20.014H20.0149H20.0159H20.0181H20.0693H20.2607H20.917H21.6027L24.7001 36.2955C24.8599 36.9982 25.5474 37.444 26.2497 37.3098C26.3309 37.3253 26.4147 37.3333 26.5003 37.3333H40.0003C40.5561 37.3333 41.0536 36.9886 41.2488 36.4682L45.2488 25.8015C45.4023 25.392 45.3453 24.9333 45.0962 24.5739C44.8471 24.2144 44.4376 24 44.0003 24H24.6404L23.9672 21.0378C23.8292 20.4308 23.2895 20 22.667 20H20.917H20.2607H20.0693H20.0612H20.0535H20.0517H20.0499H20.0464H20.0397H20.0279H20.0265H20.0252H20.0239H20.0227H20.0215H20.0203H20.0181H20.0104H20.0073H20.0066H20.006H20.0048H20.0015H20.001H20.0008H20.0006H20.0004H20.0003L20.0003 21.3333V20ZM25.2464 26.6667L27.0646 34.6667H39.0763L42.0763 26.6667H25.2464ZM29.3337 38.6667C27.8609 38.6667 26.667 39.8606 26.667 41.3333C26.667 42.8061 27.8609 44 29.3337 44C30.8064 44 32.0003 42.8061 32.0003 41.3333C32.0003 39.8606 30.8064 38.6667 29.3337 38.6667ZM34.667 41.3333C34.667 39.8606 35.8609 38.6667 37.3337 38.6667C38.8064 38.6667 40.0003 39.8606 40.0003 41.3333C40.0003 42.8061 38.8064 44 37.3337 44C35.8609 44 34.667 42.8061 34.667 41.3333Z" fill="#252525"/>
</svg>
