<svg width="65" height="64" viewBox="0 0 65 64" fill="none" xmlns="http://www.w3.org/2000/svg">
<rect x="0.5" width="64" height="64" rx="12" fill="#229ED9"/>
<path fill-rule="evenodd" clip-rule="evenodd" d="M32.0819 18.3822C31.8885 18.588 31.0493 20.4903 30.217 22.6097C29.1007 25.4526 28.6044 26.5348 28.3244 26.7366C28.014 26.9604 27.2521 27.0553 24.1332 27.2582C22.0366 27.3945 20.1253 27.583 19.886 27.6771C19.194 27.9487 18.8036 28.9809 19.1005 29.754C19.1563 29.8998 20.0787 30.746 21.1499 31.6347C23.1316 33.2784 23.9496 33.706 25.1339 33.7175C25.3964 33.72 27.5491 33.3574 29.9175 32.9116C33.5117 32.235 34.2644 32.1346 34.4685 32.3041C34.7649 32.5499 34.7862 32.9923 34.5126 33.2192C34.4023 33.3107 32.5542 34.2608 30.4058 35.3303C25.3497 37.8474 25.421 37.7695 24.3748 41.9215C23.6933 44.626 23.6845 44.9503 24.2768 45.5423C25.0922 46.3572 25.3872 46.2541 29.2009 43.8199C31.6751 42.2407 32.7399 41.6441 33.079 41.6472C33.4083 41.6501 34.5574 42.2928 36.9693 43.8228C39.2969 45.2994 40.5342 45.9946 40.8357 45.9955C41.3484 45.9969 42.3366 45.1133 42.3383 44.6518C42.3389 44.4936 41.9059 42.5277 41.3761 40.2834C40.4844 36.506 40.4293 36.1695 40.636 35.7568C40.7587 35.5117 42.1544 34.1672 43.7375 32.7688C45.3206 31.3706 46.7012 30.1188 46.8054 29.9872C46.9096 29.8555 46.9972 29.4472 46.9999 29.0799C47.0036 28.5769 46.9121 28.3193 46.6293 28.0366C46.1504 27.558 46.1194 27.5524 42.415 27.2614C38.3108 26.9391 37.9819 26.887 37.5978 26.4992C37.4191 26.319 36.6222 24.4921 35.8267 22.4396C34.8446 19.9055 34.2563 18.5955 33.9937 18.3579C33.4553 17.8711 32.5517 17.8826 32.0819 18.3822Z" fill="white"/>
</svg>
