<svg width="64" height="65" viewBox="0 0 64 65" fill="none" xmlns="http://www.w3.org/2000/svg">
<rect y="0.5" width="64" height="64" rx="12" fill="#229ED9"/>
<path fill-rule="evenodd" clip-rule="evenodd" d="M31.5819 18.8822C31.3885 19.088 30.5493 20.9903 29.717 23.1097C28.6007 25.9526 28.1044 27.0348 27.8244 27.2366C27.514 27.4604 26.7521 27.5553 23.6332 27.7582C21.5366 27.8945 19.6253 28.083 19.386 28.1771C18.694 28.4487 18.3036 29.4809 18.6005 30.254C18.6563 30.3998 19.5787 31.246 20.6499 32.1347C22.6316 33.7784 23.4496 34.206 24.6339 34.2175C24.8964 34.22 27.0491 33.8574 29.4175 33.4116C33.0117 32.735 33.7644 32.6346 33.9685 32.8041C34.2649 33.0499 34.2862 33.4923 34.0126 33.7192C33.9023 33.8107 32.0542 34.7608 29.9058 35.8303C24.8497 38.3474 24.921 38.2695 23.8748 42.4215C23.1933 45.126 23.1845 45.4503 23.7768 46.0423C24.5922 46.8572 24.8872 46.7541 28.7009 44.3199C31.1751 42.7407 32.2399 42.1441 32.579 42.1472C32.9083 42.1501 34.0574 42.7928 36.4693 44.3228C38.7969 45.7994 40.0342 46.4946 40.3357 46.4955C40.8484 46.4969 41.8366 45.6133 41.8383 45.1518C41.8389 44.9936 41.4059 43.0277 40.8761 40.7834C39.9844 37.006 39.9293 36.6695 40.136 36.2568C40.2587 36.0117 41.6544 34.6672 43.2375 33.2688C44.8206 31.8706 46.2012 30.6188 46.3054 30.4872C46.4096 30.3555 46.4972 29.9472 46.4999 29.5799C46.5036 29.0769 46.4121 28.8193 46.1293 28.5366C45.6504 28.058 45.6194 28.0524 41.915 27.7614C37.8108 27.4391 37.4819 27.387 37.0978 26.9992C36.9191 26.819 36.1222 24.9921 35.3267 22.9396C34.3446 20.4055 33.7563 19.0955 33.4937 18.8579C32.9553 18.3711 32.0517 18.3826 31.5819 18.8822Z" fill="white"/>
</svg>
