<svg width="32" height="32" viewBox="0 0 32 32" fill="none" xmlns="http://www.w3.org/2000/svg">
<rect width="32" height="32" rx="7" fill="#229ED9"/>
<path fill-rule="evenodd" clip-rule="evenodd" d="M15.3007 5.62467C15.1533 5.78153 14.5139 7.2309 13.8798 8.84566C13.0293 11.0117 12.6511 11.8362 12.4378 11.99C12.2013 12.1605 11.6208 12.2327 9.24448 12.3873C7.6471 12.4912 6.19089 12.6348 6.00857 12.7065C5.48129 12.9135 5.18386 13.6999 5.41004 14.2889C5.4526 14.4 6.15533 15.0448 6.97151 15.7218C8.48141 16.9742 9.1046 17.3 10.007 17.3087C10.2069 17.3106 11.8471 17.0344 13.6516 16.6947C16.39 16.1792 16.9635 16.1027 17.119 16.2318C17.3449 16.4191 17.3611 16.7562 17.1526 16.929C17.0685 16.9988 15.6605 17.7227 14.0236 18.5375C10.1714 20.4553 10.2257 20.396 9.42859 23.5594C8.90936 25.6199 8.9026 25.8671 9.3539 26.3181C9.97519 26.939 10.2 26.8605 13.1056 25.0058C14.9907 23.8026 15.802 23.348 16.0603 23.3504C16.3113 23.3526 17.1867 23.8423 19.0244 25.008C20.7978 26.133 21.7405 26.6627 21.9702 26.6634C22.3609 26.6645 23.1137 25.9912 23.115 25.6396C23.1155 25.5191 22.7856 24.0213 22.382 22.3113C21.7026 19.4333 21.6606 19.1769 21.818 18.8625C21.9116 18.6758 22.9749 17.6514 24.1811 16.5859C25.3873 15.5207 26.4391 14.5668 26.5186 14.4666C26.598 14.3663 26.6647 14.0552 26.6667 13.7753C26.6696 13.3921 26.5999 13.1958 26.3844 12.9804C26.0195 12.6158 25.9959 12.6115 23.1735 12.3898C20.0465 12.1442 19.7959 12.1046 19.5032 11.8091C19.3671 11.6718 18.7599 10.2799 18.1538 8.71605C17.4056 6.78533 16.9573 5.78721 16.7572 5.60619C16.3471 5.23526 15.6586 5.24403 15.3007 5.62467Z" fill="white"/>
</svg>
