<svg width="24" height="24" viewBox="0 0 24 24" fill="none" xmlns="http://www.w3.org/2000/svg">
<path d="M19.3208 5.562C19.169 5.48345 19.0211 5.39734 18.8778 5.304C18.4615 5.02872 18.0798 4.7044 17.7408 4.338C16.8918 3.367 16.5748 2.382 16.4588 1.693H16.4628C16.3658 1.12 16.4058 0.75 16.4128 0.75H12.5478V15.693C12.5478 15.893 12.5478 16.092 12.5398 16.288C12.5398 16.312 12.5368 16.334 12.5358 16.361C12.5358 16.371 12.5358 16.383 12.5328 16.394V16.403C12.4922 16.939 12.3205 17.4569 12.0328 17.9109C11.7451 18.365 11.3502 18.7414 10.8828 19.007C10.3953 19.2844 9.84378 19.4298 9.28283 19.429C7.48283 19.429 6.02283 17.961 6.02283 16.148C6.02283 14.334 7.48283 12.866 9.28283 12.866C9.62383 12.866 9.96283 12.92 10.2868 13.026L10.2918 9.09C9.30784 8.96305 8.30822 9.04147 7.35607 9.3203C6.40391 9.59913 5.5199 10.0723 4.75983 10.71C4.09368 11.2885 3.53362 11.9789 3.10483 12.75C2.94183 13.031 2.32583 14.162 2.25183 15.996C2.20483 17.036 2.51783 18.116 2.66683 18.561V18.571C2.75983 18.833 3.12383 19.729 3.71583 20.484C4.19323 21.09 4.75728 21.6224 5.38983 22.064V22.054L5.39883 22.064C7.26883 23.334 9.34383 23.251 9.34383 23.251C9.70283 23.236 10.9058 23.251 12.2718 22.604C13.7868 21.886 14.6488 20.817 14.6488 20.817C15.1999 20.1781 15.6382 19.45 15.9448 18.664C16.2948 17.744 16.4108 16.642 16.4108 16.202V8.273C16.4578 8.301 17.0828 8.714 17.0828 8.714C17.0828 8.714 17.9828 9.291 19.3858 9.666C20.3918 9.933 21.7488 9.99 21.7488 9.99V6.153C21.2738 6.205 20.3088 6.055 19.3198 5.563L19.3208 5.562Z" fill="#252525" fill-opacity="0.2"/>
</svg>
